%TF.GenerationSoftware,KiCad,Pcbnew,7.0.5*%
%TF.CreationDate,2023-09-10T10:55:36+02:00*%
%TF.ProjectId,LED-Matrix,4c45442d-4d61-4747-9269-782e6b696361,rev?*%
%TF.SameCoordinates,Original*%
%TF.FileFunction,Drillmap*%
%TF.FilePolarity,Positive*%
%FSLAX45Y45*%
G04 Gerber Fmt 4.5, Leading zero omitted, Abs format (unit mm)*
G04 Created by KiCad (PCBNEW 7.0.5) date 2023-09-10 10:55:36*
%MOMM*%
%LPD*%
G01*
G04 APERTURE LIST*
%ADD10C,0.100000*%
%ADD11C,0.200000*%
%ADD12C,0.220000*%
G04 APERTURE END LIST*
D10*
X10000000Y-4000000D02*
X23500000Y-4000000D01*
X23500000Y-14000000D01*
X10000000Y-14000000D01*
X10000000Y-4000000D01*
D11*
D12*
X11701500Y-4793500D02*
X11921500Y-5013500D01*
X11921500Y-4793500D02*
X11701500Y-5013500D01*
X11701500Y-12793500D02*
X11921500Y-13013500D01*
X11921500Y-12793500D02*
X11701500Y-13013500D01*
X19701500Y-4793500D02*
X19921500Y-5013500D01*
X19921500Y-4793500D02*
X19701500Y-5013500D01*
X19701500Y-12793500D02*
X19921500Y-13013500D01*
X19921500Y-12793500D02*
X19701500Y-13013500D01*
D11*
X10255777Y-14316484D02*
X10255777Y-14116484D01*
X10255777Y-14116484D02*
X10303396Y-14116484D01*
X10303396Y-14116484D02*
X10331967Y-14126008D01*
X10331967Y-14126008D02*
X10351015Y-14145055D01*
X10351015Y-14145055D02*
X10360539Y-14164103D01*
X10360539Y-14164103D02*
X10370063Y-14202198D01*
X10370063Y-14202198D02*
X10370063Y-14230769D01*
X10370063Y-14230769D02*
X10360539Y-14268865D01*
X10360539Y-14268865D02*
X10351015Y-14287912D01*
X10351015Y-14287912D02*
X10331967Y-14306960D01*
X10331967Y-14306960D02*
X10303396Y-14316484D01*
X10303396Y-14316484D02*
X10255777Y-14316484D01*
X10455777Y-14316484D02*
X10455777Y-14183150D01*
X10455777Y-14221246D02*
X10465301Y-14202198D01*
X10465301Y-14202198D02*
X10474824Y-14192674D01*
X10474824Y-14192674D02*
X10493872Y-14183150D01*
X10493872Y-14183150D02*
X10512920Y-14183150D01*
X10579586Y-14316484D02*
X10579586Y-14183150D01*
X10579586Y-14116484D02*
X10570063Y-14126008D01*
X10570063Y-14126008D02*
X10579586Y-14135531D01*
X10579586Y-14135531D02*
X10589110Y-14126008D01*
X10589110Y-14126008D02*
X10579586Y-14116484D01*
X10579586Y-14116484D02*
X10579586Y-14135531D01*
X10703396Y-14316484D02*
X10684348Y-14306960D01*
X10684348Y-14306960D02*
X10674824Y-14287912D01*
X10674824Y-14287912D02*
X10674824Y-14116484D01*
X10808158Y-14316484D02*
X10789110Y-14306960D01*
X10789110Y-14306960D02*
X10779586Y-14287912D01*
X10779586Y-14287912D02*
X10779586Y-14116484D01*
X11036729Y-14316484D02*
X11036729Y-14116484D01*
X11036729Y-14116484D02*
X11103396Y-14259341D01*
X11103396Y-14259341D02*
X11170063Y-14116484D01*
X11170063Y-14116484D02*
X11170063Y-14316484D01*
X11351015Y-14316484D02*
X11351015Y-14211722D01*
X11351015Y-14211722D02*
X11341491Y-14192674D01*
X11341491Y-14192674D02*
X11322443Y-14183150D01*
X11322443Y-14183150D02*
X11284348Y-14183150D01*
X11284348Y-14183150D02*
X11265301Y-14192674D01*
X11351015Y-14306960D02*
X11331967Y-14316484D01*
X11331967Y-14316484D02*
X11284348Y-14316484D01*
X11284348Y-14316484D02*
X11265301Y-14306960D01*
X11265301Y-14306960D02*
X11255777Y-14287912D01*
X11255777Y-14287912D02*
X11255777Y-14268865D01*
X11255777Y-14268865D02*
X11265301Y-14249817D01*
X11265301Y-14249817D02*
X11284348Y-14240293D01*
X11284348Y-14240293D02*
X11331967Y-14240293D01*
X11331967Y-14240293D02*
X11351015Y-14230769D01*
X11446253Y-14183150D02*
X11446253Y-14383150D01*
X11446253Y-14192674D02*
X11465301Y-14183150D01*
X11465301Y-14183150D02*
X11503396Y-14183150D01*
X11503396Y-14183150D02*
X11522443Y-14192674D01*
X11522443Y-14192674D02*
X11531967Y-14202198D01*
X11531967Y-14202198D02*
X11541491Y-14221246D01*
X11541491Y-14221246D02*
X11541491Y-14278388D01*
X11541491Y-14278388D02*
X11531967Y-14297436D01*
X11531967Y-14297436D02*
X11522443Y-14306960D01*
X11522443Y-14306960D02*
X11503396Y-14316484D01*
X11503396Y-14316484D02*
X11465301Y-14316484D01*
X11465301Y-14316484D02*
X11446253Y-14306960D01*
X11627205Y-14297436D02*
X11636729Y-14306960D01*
X11636729Y-14306960D02*
X11627205Y-14316484D01*
X11627205Y-14316484D02*
X11617682Y-14306960D01*
X11617682Y-14306960D02*
X11627205Y-14297436D01*
X11627205Y-14297436D02*
X11627205Y-14316484D01*
X11627205Y-14192674D02*
X11636729Y-14202198D01*
X11636729Y-14202198D02*
X11627205Y-14211722D01*
X11627205Y-14211722D02*
X11617682Y-14202198D01*
X11617682Y-14202198D02*
X11627205Y-14192674D01*
X11627205Y-14192674D02*
X11627205Y-14211722D01*
X9795000Y-14545000D02*
X9995000Y-14745000D01*
X9995000Y-14545000D02*
X9795000Y-14745000D01*
X10246253Y-14555531D02*
X10255777Y-14546008D01*
X10255777Y-14546008D02*
X10274824Y-14536484D01*
X10274824Y-14536484D02*
X10322444Y-14536484D01*
X10322444Y-14536484D02*
X10341491Y-14546008D01*
X10341491Y-14546008D02*
X10351015Y-14555531D01*
X10351015Y-14555531D02*
X10360539Y-14574579D01*
X10360539Y-14574579D02*
X10360539Y-14593627D01*
X10360539Y-14593627D02*
X10351015Y-14622198D01*
X10351015Y-14622198D02*
X10236729Y-14736484D01*
X10236729Y-14736484D02*
X10360539Y-14736484D01*
X10446253Y-14717436D02*
X10455777Y-14726960D01*
X10455777Y-14726960D02*
X10446253Y-14736484D01*
X10446253Y-14736484D02*
X10436729Y-14726960D01*
X10436729Y-14726960D02*
X10446253Y-14717436D01*
X10446253Y-14717436D02*
X10446253Y-14736484D01*
X10531967Y-14555531D02*
X10541491Y-14546008D01*
X10541491Y-14546008D02*
X10560539Y-14536484D01*
X10560539Y-14536484D02*
X10608158Y-14536484D01*
X10608158Y-14536484D02*
X10627205Y-14546008D01*
X10627205Y-14546008D02*
X10636729Y-14555531D01*
X10636729Y-14555531D02*
X10646253Y-14574579D01*
X10646253Y-14574579D02*
X10646253Y-14593627D01*
X10646253Y-14593627D02*
X10636729Y-14622198D01*
X10636729Y-14622198D02*
X10522444Y-14736484D01*
X10522444Y-14736484D02*
X10646253Y-14736484D01*
X10770063Y-14536484D02*
X10789110Y-14536484D01*
X10789110Y-14536484D02*
X10808158Y-14546008D01*
X10808158Y-14546008D02*
X10817682Y-14555531D01*
X10817682Y-14555531D02*
X10827205Y-14574579D01*
X10827205Y-14574579D02*
X10836729Y-14612674D01*
X10836729Y-14612674D02*
X10836729Y-14660293D01*
X10836729Y-14660293D02*
X10827205Y-14698388D01*
X10827205Y-14698388D02*
X10817682Y-14717436D01*
X10817682Y-14717436D02*
X10808158Y-14726960D01*
X10808158Y-14726960D02*
X10789110Y-14736484D01*
X10789110Y-14736484D02*
X10770063Y-14736484D01*
X10770063Y-14736484D02*
X10751015Y-14726960D01*
X10751015Y-14726960D02*
X10741491Y-14717436D01*
X10741491Y-14717436D02*
X10731967Y-14698388D01*
X10731967Y-14698388D02*
X10722444Y-14660293D01*
X10722444Y-14660293D02*
X10722444Y-14612674D01*
X10722444Y-14612674D02*
X10731967Y-14574579D01*
X10731967Y-14574579D02*
X10741491Y-14555531D01*
X10741491Y-14555531D02*
X10751015Y-14546008D01*
X10751015Y-14546008D02*
X10770063Y-14536484D01*
X10960539Y-14536484D02*
X10979586Y-14536484D01*
X10979586Y-14536484D02*
X10998634Y-14546008D01*
X10998634Y-14546008D02*
X11008158Y-14555531D01*
X11008158Y-14555531D02*
X11017682Y-14574579D01*
X11017682Y-14574579D02*
X11027205Y-14612674D01*
X11027205Y-14612674D02*
X11027205Y-14660293D01*
X11027205Y-14660293D02*
X11017682Y-14698388D01*
X11017682Y-14698388D02*
X11008158Y-14717436D01*
X11008158Y-14717436D02*
X10998634Y-14726960D01*
X10998634Y-14726960D02*
X10979586Y-14736484D01*
X10979586Y-14736484D02*
X10960539Y-14736484D01*
X10960539Y-14736484D02*
X10941491Y-14726960D01*
X10941491Y-14726960D02*
X10931967Y-14717436D01*
X10931967Y-14717436D02*
X10922444Y-14698388D01*
X10922444Y-14698388D02*
X10912920Y-14660293D01*
X10912920Y-14660293D02*
X10912920Y-14612674D01*
X10912920Y-14612674D02*
X10922444Y-14574579D01*
X10922444Y-14574579D02*
X10931967Y-14555531D01*
X10931967Y-14555531D02*
X10941491Y-14546008D01*
X10941491Y-14546008D02*
X10960539Y-14536484D01*
X11112920Y-14736484D02*
X11112920Y-14603150D01*
X11112920Y-14622198D02*
X11122444Y-14612674D01*
X11122444Y-14612674D02*
X11141491Y-14603150D01*
X11141491Y-14603150D02*
X11170063Y-14603150D01*
X11170063Y-14603150D02*
X11189110Y-14612674D01*
X11189110Y-14612674D02*
X11198634Y-14631722D01*
X11198634Y-14631722D02*
X11198634Y-14736484D01*
X11198634Y-14631722D02*
X11208158Y-14612674D01*
X11208158Y-14612674D02*
X11227205Y-14603150D01*
X11227205Y-14603150D02*
X11255777Y-14603150D01*
X11255777Y-14603150D02*
X11274824Y-14612674D01*
X11274824Y-14612674D02*
X11284348Y-14631722D01*
X11284348Y-14631722D02*
X11284348Y-14736484D01*
X11379586Y-14736484D02*
X11379586Y-14603150D01*
X11379586Y-14622198D02*
X11389110Y-14612674D01*
X11389110Y-14612674D02*
X11408158Y-14603150D01*
X11408158Y-14603150D02*
X11436729Y-14603150D01*
X11436729Y-14603150D02*
X11455777Y-14612674D01*
X11455777Y-14612674D02*
X11465301Y-14631722D01*
X11465301Y-14631722D02*
X11465301Y-14736484D01*
X11465301Y-14631722D02*
X11474824Y-14612674D01*
X11474824Y-14612674D02*
X11493872Y-14603150D01*
X11493872Y-14603150D02*
X11522443Y-14603150D01*
X11522443Y-14603150D02*
X11541491Y-14612674D01*
X11541491Y-14612674D02*
X11551015Y-14631722D01*
X11551015Y-14631722D02*
X11551015Y-14736484D01*
X11941491Y-14526960D02*
X11770063Y-14784103D01*
X12198634Y-14536484D02*
X12217682Y-14536484D01*
X12217682Y-14536484D02*
X12236729Y-14546008D01*
X12236729Y-14546008D02*
X12246253Y-14555531D01*
X12246253Y-14555531D02*
X12255777Y-14574579D01*
X12255777Y-14574579D02*
X12265301Y-14612674D01*
X12265301Y-14612674D02*
X12265301Y-14660293D01*
X12265301Y-14660293D02*
X12255777Y-14698388D01*
X12255777Y-14698388D02*
X12246253Y-14717436D01*
X12246253Y-14717436D02*
X12236729Y-14726960D01*
X12236729Y-14726960D02*
X12217682Y-14736484D01*
X12217682Y-14736484D02*
X12198634Y-14736484D01*
X12198634Y-14736484D02*
X12179586Y-14726960D01*
X12179586Y-14726960D02*
X12170063Y-14717436D01*
X12170063Y-14717436D02*
X12160539Y-14698388D01*
X12160539Y-14698388D02*
X12151015Y-14660293D01*
X12151015Y-14660293D02*
X12151015Y-14612674D01*
X12151015Y-14612674D02*
X12160539Y-14574579D01*
X12160539Y-14574579D02*
X12170063Y-14555531D01*
X12170063Y-14555531D02*
X12179586Y-14546008D01*
X12179586Y-14546008D02*
X12198634Y-14536484D01*
X12351015Y-14717436D02*
X12360539Y-14726960D01*
X12360539Y-14726960D02*
X12351015Y-14736484D01*
X12351015Y-14736484D02*
X12341491Y-14726960D01*
X12341491Y-14726960D02*
X12351015Y-14717436D01*
X12351015Y-14717436D02*
X12351015Y-14736484D01*
X12484348Y-14536484D02*
X12503396Y-14536484D01*
X12503396Y-14536484D02*
X12522444Y-14546008D01*
X12522444Y-14546008D02*
X12531967Y-14555531D01*
X12531967Y-14555531D02*
X12541491Y-14574579D01*
X12541491Y-14574579D02*
X12551015Y-14612674D01*
X12551015Y-14612674D02*
X12551015Y-14660293D01*
X12551015Y-14660293D02*
X12541491Y-14698388D01*
X12541491Y-14698388D02*
X12531967Y-14717436D01*
X12531967Y-14717436D02*
X12522444Y-14726960D01*
X12522444Y-14726960D02*
X12503396Y-14736484D01*
X12503396Y-14736484D02*
X12484348Y-14736484D01*
X12484348Y-14736484D02*
X12465301Y-14726960D01*
X12465301Y-14726960D02*
X12455777Y-14717436D01*
X12455777Y-14717436D02*
X12446253Y-14698388D01*
X12446253Y-14698388D02*
X12436729Y-14660293D01*
X12436729Y-14660293D02*
X12436729Y-14612674D01*
X12436729Y-14612674D02*
X12446253Y-14574579D01*
X12446253Y-14574579D02*
X12455777Y-14555531D01*
X12455777Y-14555531D02*
X12465301Y-14546008D01*
X12465301Y-14546008D02*
X12484348Y-14536484D01*
X12665301Y-14622198D02*
X12646253Y-14612674D01*
X12646253Y-14612674D02*
X12636729Y-14603150D01*
X12636729Y-14603150D02*
X12627206Y-14584103D01*
X12627206Y-14584103D02*
X12627206Y-14574579D01*
X12627206Y-14574579D02*
X12636729Y-14555531D01*
X12636729Y-14555531D02*
X12646253Y-14546008D01*
X12646253Y-14546008D02*
X12665301Y-14536484D01*
X12665301Y-14536484D02*
X12703396Y-14536484D01*
X12703396Y-14536484D02*
X12722444Y-14546008D01*
X12722444Y-14546008D02*
X12731967Y-14555531D01*
X12731967Y-14555531D02*
X12741491Y-14574579D01*
X12741491Y-14574579D02*
X12741491Y-14584103D01*
X12741491Y-14584103D02*
X12731967Y-14603150D01*
X12731967Y-14603150D02*
X12722444Y-14612674D01*
X12722444Y-14612674D02*
X12703396Y-14622198D01*
X12703396Y-14622198D02*
X12665301Y-14622198D01*
X12665301Y-14622198D02*
X12646253Y-14631722D01*
X12646253Y-14631722D02*
X12636729Y-14641246D01*
X12636729Y-14641246D02*
X12627206Y-14660293D01*
X12627206Y-14660293D02*
X12627206Y-14698388D01*
X12627206Y-14698388D02*
X12636729Y-14717436D01*
X12636729Y-14717436D02*
X12646253Y-14726960D01*
X12646253Y-14726960D02*
X12665301Y-14736484D01*
X12665301Y-14736484D02*
X12703396Y-14736484D01*
X12703396Y-14736484D02*
X12722444Y-14726960D01*
X12722444Y-14726960D02*
X12731967Y-14717436D01*
X12731967Y-14717436D02*
X12741491Y-14698388D01*
X12741491Y-14698388D02*
X12741491Y-14660293D01*
X12741491Y-14660293D02*
X12731967Y-14641246D01*
X12731967Y-14641246D02*
X12722444Y-14631722D01*
X12722444Y-14631722D02*
X12703396Y-14622198D01*
X12912920Y-14536484D02*
X12874825Y-14536484D01*
X12874825Y-14536484D02*
X12855777Y-14546008D01*
X12855777Y-14546008D02*
X12846253Y-14555531D01*
X12846253Y-14555531D02*
X12827206Y-14584103D01*
X12827206Y-14584103D02*
X12817682Y-14622198D01*
X12817682Y-14622198D02*
X12817682Y-14698388D01*
X12817682Y-14698388D02*
X12827206Y-14717436D01*
X12827206Y-14717436D02*
X12836729Y-14726960D01*
X12836729Y-14726960D02*
X12855777Y-14736484D01*
X12855777Y-14736484D02*
X12893872Y-14736484D01*
X12893872Y-14736484D02*
X12912920Y-14726960D01*
X12912920Y-14726960D02*
X12922444Y-14717436D01*
X12922444Y-14717436D02*
X12931967Y-14698388D01*
X12931967Y-14698388D02*
X12931967Y-14650769D01*
X12931967Y-14650769D02*
X12922444Y-14631722D01*
X12922444Y-14631722D02*
X12912920Y-14622198D01*
X12912920Y-14622198D02*
X12893872Y-14612674D01*
X12893872Y-14612674D02*
X12855777Y-14612674D01*
X12855777Y-14612674D02*
X12836729Y-14622198D01*
X12836729Y-14622198D02*
X12827206Y-14631722D01*
X12827206Y-14631722D02*
X12817682Y-14650769D01*
X13103396Y-14536484D02*
X13065301Y-14536484D01*
X13065301Y-14536484D02*
X13046253Y-14546008D01*
X13046253Y-14546008D02*
X13036729Y-14555531D01*
X13036729Y-14555531D02*
X13017682Y-14584103D01*
X13017682Y-14584103D02*
X13008158Y-14622198D01*
X13008158Y-14622198D02*
X13008158Y-14698388D01*
X13008158Y-14698388D02*
X13017682Y-14717436D01*
X13017682Y-14717436D02*
X13027206Y-14726960D01*
X13027206Y-14726960D02*
X13046253Y-14736484D01*
X13046253Y-14736484D02*
X13084348Y-14736484D01*
X13084348Y-14736484D02*
X13103396Y-14726960D01*
X13103396Y-14726960D02*
X13112920Y-14717436D01*
X13112920Y-14717436D02*
X13122444Y-14698388D01*
X13122444Y-14698388D02*
X13122444Y-14650769D01*
X13122444Y-14650769D02*
X13112920Y-14631722D01*
X13112920Y-14631722D02*
X13103396Y-14622198D01*
X13103396Y-14622198D02*
X13084348Y-14612674D01*
X13084348Y-14612674D02*
X13046253Y-14612674D01*
X13046253Y-14612674D02*
X13027206Y-14622198D01*
X13027206Y-14622198D02*
X13017682Y-14631722D01*
X13017682Y-14631722D02*
X13008158Y-14650769D01*
X13198634Y-14536484D02*
X13198634Y-14574579D01*
X13274825Y-14536484D02*
X13274825Y-14574579D01*
X13570063Y-14812674D02*
X13560539Y-14803150D01*
X13560539Y-14803150D02*
X13541491Y-14774579D01*
X13541491Y-14774579D02*
X13531968Y-14755531D01*
X13531968Y-14755531D02*
X13522444Y-14726960D01*
X13522444Y-14726960D02*
X13512920Y-14679341D01*
X13512920Y-14679341D02*
X13512920Y-14641246D01*
X13512920Y-14641246D02*
X13522444Y-14593627D01*
X13522444Y-14593627D02*
X13531968Y-14565055D01*
X13531968Y-14565055D02*
X13541491Y-14546008D01*
X13541491Y-14546008D02*
X13560539Y-14517436D01*
X13560539Y-14517436D02*
X13570063Y-14507912D01*
X13731968Y-14603150D02*
X13731968Y-14736484D01*
X13684348Y-14526960D02*
X13636729Y-14669817D01*
X13636729Y-14669817D02*
X13760539Y-14669817D01*
X13989110Y-14736484D02*
X13989110Y-14536484D01*
X14074825Y-14736484D02*
X14074825Y-14631722D01*
X14074825Y-14631722D02*
X14065301Y-14612674D01*
X14065301Y-14612674D02*
X14046253Y-14603150D01*
X14046253Y-14603150D02*
X14017682Y-14603150D01*
X14017682Y-14603150D02*
X13998634Y-14612674D01*
X13998634Y-14612674D02*
X13989110Y-14622198D01*
X14198634Y-14736484D02*
X14179587Y-14726960D01*
X14179587Y-14726960D02*
X14170063Y-14717436D01*
X14170063Y-14717436D02*
X14160539Y-14698388D01*
X14160539Y-14698388D02*
X14160539Y-14641246D01*
X14160539Y-14641246D02*
X14170063Y-14622198D01*
X14170063Y-14622198D02*
X14179587Y-14612674D01*
X14179587Y-14612674D02*
X14198634Y-14603150D01*
X14198634Y-14603150D02*
X14227206Y-14603150D01*
X14227206Y-14603150D02*
X14246253Y-14612674D01*
X14246253Y-14612674D02*
X14255777Y-14622198D01*
X14255777Y-14622198D02*
X14265301Y-14641246D01*
X14265301Y-14641246D02*
X14265301Y-14698388D01*
X14265301Y-14698388D02*
X14255777Y-14717436D01*
X14255777Y-14717436D02*
X14246253Y-14726960D01*
X14246253Y-14726960D02*
X14227206Y-14736484D01*
X14227206Y-14736484D02*
X14198634Y-14736484D01*
X14379587Y-14736484D02*
X14360539Y-14726960D01*
X14360539Y-14726960D02*
X14351015Y-14707912D01*
X14351015Y-14707912D02*
X14351015Y-14536484D01*
X14531968Y-14726960D02*
X14512920Y-14736484D01*
X14512920Y-14736484D02*
X14474825Y-14736484D01*
X14474825Y-14736484D02*
X14455777Y-14726960D01*
X14455777Y-14726960D02*
X14446253Y-14707912D01*
X14446253Y-14707912D02*
X14446253Y-14631722D01*
X14446253Y-14631722D02*
X14455777Y-14612674D01*
X14455777Y-14612674D02*
X14474825Y-14603150D01*
X14474825Y-14603150D02*
X14512920Y-14603150D01*
X14512920Y-14603150D02*
X14531968Y-14612674D01*
X14531968Y-14612674D02*
X14541491Y-14631722D01*
X14541491Y-14631722D02*
X14541491Y-14650769D01*
X14541491Y-14650769D02*
X14446253Y-14669817D01*
X14617682Y-14726960D02*
X14636730Y-14736484D01*
X14636730Y-14736484D02*
X14674825Y-14736484D01*
X14674825Y-14736484D02*
X14693872Y-14726960D01*
X14693872Y-14726960D02*
X14703396Y-14707912D01*
X14703396Y-14707912D02*
X14703396Y-14698388D01*
X14703396Y-14698388D02*
X14693872Y-14679341D01*
X14693872Y-14679341D02*
X14674825Y-14669817D01*
X14674825Y-14669817D02*
X14646253Y-14669817D01*
X14646253Y-14669817D02*
X14627206Y-14660293D01*
X14627206Y-14660293D02*
X14617682Y-14641246D01*
X14617682Y-14641246D02*
X14617682Y-14631722D01*
X14617682Y-14631722D02*
X14627206Y-14612674D01*
X14627206Y-14612674D02*
X14646253Y-14603150D01*
X14646253Y-14603150D02*
X14674825Y-14603150D01*
X14674825Y-14603150D02*
X14693872Y-14612674D01*
X14770063Y-14812674D02*
X14779587Y-14803150D01*
X14779587Y-14803150D02*
X14798634Y-14774579D01*
X14798634Y-14774579D02*
X14808158Y-14755531D01*
X14808158Y-14755531D02*
X14817682Y-14726960D01*
X14817682Y-14726960D02*
X14827206Y-14679341D01*
X14827206Y-14679341D02*
X14827206Y-14641246D01*
X14827206Y-14641246D02*
X14817682Y-14593627D01*
X14817682Y-14593627D02*
X14808158Y-14565055D01*
X14808158Y-14565055D02*
X14798634Y-14546008D01*
X14798634Y-14546008D02*
X14779587Y-14517436D01*
X14779587Y-14517436D02*
X14770063Y-14507912D01*
X15131968Y-14812674D02*
X15122444Y-14803150D01*
X15122444Y-14803150D02*
X15103396Y-14774579D01*
X15103396Y-14774579D02*
X15093872Y-14755531D01*
X15093872Y-14755531D02*
X15084349Y-14726960D01*
X15084349Y-14726960D02*
X15074825Y-14679341D01*
X15074825Y-14679341D02*
X15074825Y-14641246D01*
X15074825Y-14641246D02*
X15084349Y-14593627D01*
X15084349Y-14593627D02*
X15093872Y-14565055D01*
X15093872Y-14565055D02*
X15103396Y-14546008D01*
X15103396Y-14546008D02*
X15122444Y-14517436D01*
X15122444Y-14517436D02*
X15131968Y-14507912D01*
X15208158Y-14603150D02*
X15208158Y-14736484D01*
X15208158Y-14622198D02*
X15217682Y-14612674D01*
X15217682Y-14612674D02*
X15236730Y-14603150D01*
X15236730Y-14603150D02*
X15265301Y-14603150D01*
X15265301Y-14603150D02*
X15284349Y-14612674D01*
X15284349Y-14612674D02*
X15293872Y-14631722D01*
X15293872Y-14631722D02*
X15293872Y-14736484D01*
X15417682Y-14736484D02*
X15398634Y-14726960D01*
X15398634Y-14726960D02*
X15389111Y-14717436D01*
X15389111Y-14717436D02*
X15379587Y-14698388D01*
X15379587Y-14698388D02*
X15379587Y-14641246D01*
X15379587Y-14641246D02*
X15389111Y-14622198D01*
X15389111Y-14622198D02*
X15398634Y-14612674D01*
X15398634Y-14612674D02*
X15417682Y-14603150D01*
X15417682Y-14603150D02*
X15446253Y-14603150D01*
X15446253Y-14603150D02*
X15465301Y-14612674D01*
X15465301Y-14612674D02*
X15474825Y-14622198D01*
X15474825Y-14622198D02*
X15484349Y-14641246D01*
X15484349Y-14641246D02*
X15484349Y-14698388D01*
X15484349Y-14698388D02*
X15474825Y-14717436D01*
X15474825Y-14717436D02*
X15465301Y-14726960D01*
X15465301Y-14726960D02*
X15446253Y-14736484D01*
X15446253Y-14736484D02*
X15417682Y-14736484D01*
X15541492Y-14603150D02*
X15617682Y-14603150D01*
X15570063Y-14536484D02*
X15570063Y-14707912D01*
X15570063Y-14707912D02*
X15579587Y-14726960D01*
X15579587Y-14726960D02*
X15598634Y-14736484D01*
X15598634Y-14736484D02*
X15617682Y-14736484D01*
X15836730Y-14603150D02*
X15836730Y-14803150D01*
X15836730Y-14612674D02*
X15855777Y-14603150D01*
X15855777Y-14603150D02*
X15893873Y-14603150D01*
X15893873Y-14603150D02*
X15912920Y-14612674D01*
X15912920Y-14612674D02*
X15922444Y-14622198D01*
X15922444Y-14622198D02*
X15931968Y-14641246D01*
X15931968Y-14641246D02*
X15931968Y-14698388D01*
X15931968Y-14698388D02*
X15922444Y-14717436D01*
X15922444Y-14717436D02*
X15912920Y-14726960D01*
X15912920Y-14726960D02*
X15893873Y-14736484D01*
X15893873Y-14736484D02*
X15855777Y-14736484D01*
X15855777Y-14736484D02*
X15836730Y-14726960D01*
X16046253Y-14736484D02*
X16027206Y-14726960D01*
X16027206Y-14726960D02*
X16017682Y-14707912D01*
X16017682Y-14707912D02*
X16017682Y-14536484D01*
X16208158Y-14736484D02*
X16208158Y-14631722D01*
X16208158Y-14631722D02*
X16198634Y-14612674D01*
X16198634Y-14612674D02*
X16179587Y-14603150D01*
X16179587Y-14603150D02*
X16141492Y-14603150D01*
X16141492Y-14603150D02*
X16122444Y-14612674D01*
X16208158Y-14726960D02*
X16189111Y-14736484D01*
X16189111Y-14736484D02*
X16141492Y-14736484D01*
X16141492Y-14736484D02*
X16122444Y-14726960D01*
X16122444Y-14726960D02*
X16112920Y-14707912D01*
X16112920Y-14707912D02*
X16112920Y-14688865D01*
X16112920Y-14688865D02*
X16122444Y-14669817D01*
X16122444Y-14669817D02*
X16141492Y-14660293D01*
X16141492Y-14660293D02*
X16189111Y-14660293D01*
X16189111Y-14660293D02*
X16208158Y-14650769D01*
X16274825Y-14603150D02*
X16351015Y-14603150D01*
X16303396Y-14536484D02*
X16303396Y-14707912D01*
X16303396Y-14707912D02*
X16312920Y-14726960D01*
X16312920Y-14726960D02*
X16331968Y-14736484D01*
X16331968Y-14736484D02*
X16351015Y-14736484D01*
X16493873Y-14726960D02*
X16474825Y-14736484D01*
X16474825Y-14736484D02*
X16436730Y-14736484D01*
X16436730Y-14736484D02*
X16417682Y-14726960D01*
X16417682Y-14726960D02*
X16408158Y-14707912D01*
X16408158Y-14707912D02*
X16408158Y-14631722D01*
X16408158Y-14631722D02*
X16417682Y-14612674D01*
X16417682Y-14612674D02*
X16436730Y-14603150D01*
X16436730Y-14603150D02*
X16474825Y-14603150D01*
X16474825Y-14603150D02*
X16493873Y-14612674D01*
X16493873Y-14612674D02*
X16503396Y-14631722D01*
X16503396Y-14631722D02*
X16503396Y-14650769D01*
X16503396Y-14650769D02*
X16408158Y-14669817D01*
X16674825Y-14736484D02*
X16674825Y-14536484D01*
X16674825Y-14726960D02*
X16655777Y-14736484D01*
X16655777Y-14736484D02*
X16617682Y-14736484D01*
X16617682Y-14736484D02*
X16598634Y-14726960D01*
X16598634Y-14726960D02*
X16589111Y-14717436D01*
X16589111Y-14717436D02*
X16579587Y-14698388D01*
X16579587Y-14698388D02*
X16579587Y-14641246D01*
X16579587Y-14641246D02*
X16589111Y-14622198D01*
X16589111Y-14622198D02*
X16598634Y-14612674D01*
X16598634Y-14612674D02*
X16617682Y-14603150D01*
X16617682Y-14603150D02*
X16655777Y-14603150D01*
X16655777Y-14603150D02*
X16674825Y-14612674D01*
X16751015Y-14812674D02*
X16760539Y-14803150D01*
X16760539Y-14803150D02*
X16779587Y-14774579D01*
X16779587Y-14774579D02*
X16789111Y-14755531D01*
X16789111Y-14755531D02*
X16798635Y-14726960D01*
X16798635Y-14726960D02*
X16808158Y-14679341D01*
X16808158Y-14679341D02*
X16808158Y-14641246D01*
X16808158Y-14641246D02*
X16798635Y-14593627D01*
X16798635Y-14593627D02*
X16789111Y-14565055D01*
X16789111Y-14565055D02*
X16779587Y-14546008D01*
X16779587Y-14546008D02*
X16760539Y-14517436D01*
X16760539Y-14517436D02*
X16751015Y-14507912D01*
M02*
