M48
; DRILL file {KiCad 7.0.5} date Sun Sep 10 10:55:30 2023
; FORMAT={-:-/ absolute / metric / decimal}
; #@! TF.CreationDate,2023-09-10T10:55:30+02:00
; #@! TF.GenerationSoftware,Kicad,Pcbnew,7.0.5
; #@! TF.FileFunction,Plated,1,2,PTH
FMAT,2
METRIC
; #@! TA.AperFunction,Plated,PTH,ViaDrill
T1C0.400
; #@! TA.AperFunction,Plated,PTH,ComponentDrill
T2C0.800
; #@! TA.AperFunction,Plated,PTH,ComponentDrill
T3C0.900
; #@! TA.AperFunction,Plated,PTH,ComponentDrill
T4C1.000
; #@! TA.AperFunction,Plated,PTH,ComponentDrill
T5C3.200
%
G90
G05
T1
X114.344Y-62.274
X118.0Y-52.45
X118.0Y-61.0
X118.0Y-71.0
X118.0Y-81.45
X118.0Y-101.45
X118.0Y-111.45
X118.0Y-121.45
X118.11Y-91.44
X128.057Y-91.507
X128.27Y-101.6
X128.27Y-121.92
X132.08Y-101.6
X138.43Y-81.28
X138.43Y-91.44
X138.43Y-101.6
X138.43Y-121.92
X145.331Y-96.602
X148.0Y-91.45
X148.0Y-121.45
X152.175Y-77.577
X161.632Y-110.088
X165.677Y-134.114
X188.0Y-111.45
X188.0Y-121.45
X189.23Y-80.268
X190.118Y-71.274
X190.5Y-81.28
X190.5Y-91.44
X190.5Y-101.6
X193.04Y-70.793
X196.327Y-91.767
X196.85Y-113.03
X197.166Y-62.971
X197.531Y-96.1
X197.88Y-80.625
X200.66Y-58.42
X200.66Y-61.177
X200.66Y-73.66
X200.66Y-85.98
X200.66Y-97.999
X200.66Y-110.49
X200.66Y-121.92
X203.2Y-133.653
X203.2Y-137.16
X204.051Y-70.08
X204.157Y-94.148
X204.164Y-106.294
X204.296Y-82.142
X204.938Y-72.647
X205.001Y-96.546
X205.001Y-108.688
X205.02Y-60.543
X205.057Y-84.53
X205.088Y-117.683
X205.088Y-128.496
X205.74Y-47.746
X205.756Y-105.656
X205.784Y-93.286
X205.84Y-120.462
X205.846Y-69.367
X205.846Y-81.352
X205.905Y-131.807
X206.032Y-58.86
X206.203Y-54.634
X206.999Y-55.256
X208.271Y-115.265
X208.367Y-127.355
X208.627Y-119.9
X208.632Y-83.975
X208.632Y-95.975
X208.638Y-108.371
X208.753Y-56.075
X208.756Y-71.965
X208.884Y-130.228
X209.075Y-68.075
X209.08Y-80.354
X209.941Y-95.489
X210.093Y-106.001
X210.12Y-116.873
X210.153Y-83.975
X210.177Y-114.491
X210.6Y-125.73
X210.618Y-93.324
X210.811Y-131.263
X210.881Y-90.917
X210.892Y-70.153
X210.96Y-130.261
X210.975Y-78.54
X211.113Y-49.462
X211.378Y-105.181
X211.462Y-98.896
X211.547Y-97.894
X211.616Y-94.025
X211.628Y-134.194
X211.638Y-120.55
X211.657Y-81.121
X211.761Y-69.375
X212.09Y-87.304
X212.491Y-62.748
X212.855Y-79.272
X212.874Y-67.254
X212.909Y-127.148
X212.957Y-100.097
X213.0Y-102.094
X213.34Y-111.021
X213.746Y-100.725
X213.888Y-115.112
X214.456Y-121.663
X214.561Y-46.247
X214.645Y-48.828
X214.65Y-72.222
X214.666Y-129.868
X214.743Y-60.025
X214.748Y-77.533
X214.879Y-84.348
X214.904Y-76.229
X215.095Y-123.795
X215.151Y-71.241
X215.41Y-49.51
X215.686Y-60.542
X216.612Y-61.275
X216.843Y-77.098
X217.224Y-57.05
X218.343Y-114.203
X220.466Y-96.574
X221.002Y-59.396
X221.13Y-84.625
X221.185Y-86.565
X222.001Y-92.236
X222.455Y-74.525
X222.813Y-78.019
X223.169Y-68.244
X223.825Y-83.411
X224.267Y-78.502
X224.615Y-84.097
X226.585Y-80.293
X226.597Y-81.814
X226.833Y-71.65
X226.847Y-69.871
X228.508Y-67.37
X229.542Y-58.371
X229.573Y-59.65
T2
X221.347Y-50.8
X228.968Y-50.8
T3
X122.0Y-64.0
X122.0Y-74.0
X122.0Y-84.0
X122.0Y-94.0
X122.0Y-104.0
X122.0Y-114.0
X122.0Y-124.0
X122.06Y-54.0
X124.54Y-64.0
X124.54Y-74.0
X124.54Y-84.0
X124.54Y-94.0
X124.54Y-104.0
X124.54Y-114.0
X124.54Y-124.0
X124.6Y-54.0
X131.965Y-64.0
X131.965Y-74.0
X131.965Y-84.0
X131.965Y-94.0
X131.965Y-104.0
X131.965Y-114.0
X131.965Y-124.0
X132.0Y-54.0
X134.505Y-64.0
X134.505Y-74.0
X134.505Y-84.0
X134.505Y-94.0
X134.505Y-104.0
X134.505Y-114.0
X134.505Y-124.0
X134.54Y-54.0
X141.965Y-64.0
X141.965Y-74.0
X141.965Y-84.0
X141.965Y-94.0
X141.965Y-104.0
X141.965Y-114.0
X141.965Y-124.0
X142.0Y-54.0
X144.505Y-64.0
X144.505Y-74.0
X144.505Y-84.0
X144.505Y-94.0
X144.505Y-104.0
X144.505Y-114.0
X144.505Y-124.0
X144.54Y-54.0
X151.965Y-64.0
X151.965Y-74.0
X151.965Y-84.0
X151.965Y-94.0
X151.965Y-104.0
X151.965Y-114.0
X151.965Y-124.0
X152.0Y-54.0
X154.505Y-64.0
X154.505Y-74.0
X154.505Y-84.0
X154.505Y-94.0
X154.505Y-104.0
X154.505Y-114.0
X154.505Y-124.0
X154.54Y-54.0
X161.965Y-64.0
X161.965Y-74.0
X161.965Y-84.0
X161.965Y-94.0
X161.965Y-104.0
X161.965Y-114.0
X161.965Y-124.0
X162.0Y-54.0
X164.505Y-64.0
X164.505Y-74.0
X164.505Y-84.0
X164.505Y-94.0
X164.505Y-104.0
X164.505Y-114.0
X164.505Y-124.0
X164.54Y-54.0
X171.965Y-64.0
X171.965Y-74.0
X171.965Y-84.0
X171.965Y-94.0
X171.965Y-104.0
X171.965Y-114.0
X171.965Y-124.0
X172.0Y-54.0
X174.505Y-64.0
X174.505Y-74.0
X174.505Y-84.0
X174.505Y-94.0
X174.505Y-104.0
X174.505Y-114.0
X174.505Y-124.0
X174.54Y-54.0
X181.965Y-64.0
X181.965Y-74.0
X181.965Y-84.0
X181.965Y-94.0
X181.965Y-104.0
X181.965Y-114.0
X181.965Y-124.0
X182.0Y-54.0
X184.505Y-64.0
X184.505Y-74.0
X184.505Y-84.0
X184.505Y-94.0
X184.505Y-104.0
X184.505Y-114.0
X184.505Y-124.0
X184.54Y-54.0
X191.965Y-64.0
X191.965Y-74.0
X191.965Y-84.0
X191.965Y-94.0
X191.965Y-104.0
X191.965Y-114.0
X191.965Y-124.0
X192.0Y-54.0
X194.505Y-64.0
X194.505Y-74.0
X194.505Y-84.0
X194.505Y-94.0
X194.505Y-104.0
X194.505Y-114.0
X194.505Y-124.0
X194.54Y-54.0
T4
X110.0Y-66.38
X110.0Y-69.15
X110.0Y-71.92
X110.0Y-74.69
X110.0Y-77.46
X110.0Y-80.23
X110.0Y-83.0
X110.0Y-85.77
X110.0Y-88.54
X110.0Y-91.31
X110.0Y-94.08
X110.0Y-96.85
X110.0Y-99.62
X110.0Y-102.39
X110.0Y-105.16
X110.0Y-107.93
X110.0Y-110.7
X110.0Y-113.47
X112.84Y-64.995
X112.84Y-67.765
X112.84Y-70.535
X112.84Y-73.305
X112.84Y-76.075
X112.84Y-78.845
X112.84Y-81.615
X112.84Y-84.385
X112.84Y-87.155
X112.84Y-89.925
X112.84Y-92.695
X112.84Y-95.465
X112.84Y-98.235
X112.84Y-101.005
X112.84Y-103.775
X112.84Y-106.545
X112.84Y-109.315
X112.84Y-112.085
X112.84Y-114.855
T5
X111.42Y-58.175
X111.42Y-121.675
T0
M30
