G04 #@! TF.GenerationSoftware,KiCad,Pcbnew,7.0.5*
G04 #@! TF.CreationDate,2023-09-10T10:54:51+02:00*
G04 #@! TF.ProjectId,LED-Matrix,4c45442d-4d61-4747-9269-782e6b696361,rev?*
G04 #@! TF.SameCoordinates,Original*
G04 #@! TF.FileFunction,Soldermask,Top*
G04 #@! TF.FilePolarity,Negative*
%FSLAX46Y46*%
G04 Gerber Fmt 4.6, Leading zero omitted, Abs format (unit mm)*
G04 Created by KiCad (PCBNEW 7.0.5) date 2023-09-10 10:54:51*
%MOMM*%
%LPD*%
G01*
G04 APERTURE LIST*
G04 Aperture macros list*
%AMRoundRect*
0 Rectangle with rounded corners*
0 $1 Rounding radius*
0 $2 $3 $4 $5 $6 $7 $8 $9 X,Y pos of 4 corners*
0 Add a 4 corners polygon primitive as box body*
4,1,4,$2,$3,$4,$5,$6,$7,$8,$9,$2,$3,0*
0 Add four circle primitives for the rounded corners*
1,1,$1+$1,$2,$3*
1,1,$1+$1,$4,$5*
1,1,$1+$1,$6,$7*
1,1,$1+$1,$8,$9*
0 Add four rect primitives between the rounded corners*
20,1,$1+$1,$2,$3,$4,$5,0*
20,1,$1+$1,$4,$5,$6,$7,0*
20,1,$1+$1,$6,$7,$8,$9,0*
20,1,$1+$1,$8,$9,$2,$3,0*%
G04 Aperture macros list end*
%ADD10RoundRect,0.250000X-0.625000X0.400000X-0.625000X-0.400000X0.625000X-0.400000X0.625000X0.400000X0*%
%ADD11R,1.800000X1.800000*%
%ADD12C,1.800000*%
%ADD13C,2.200000*%
%ADD14RoundRect,0.100000X-0.637500X-0.100000X0.637500X-0.100000X0.637500X0.100000X-0.637500X0.100000X0*%
%ADD15RoundRect,0.250000X-0.400000X-0.625000X0.400000X-0.625000X0.400000X0.625000X-0.400000X0.625000X0*%
%ADD16R,1.600000X1.600000*%
%ADD17O,1.600000X1.600000*%
%ADD18C,4.000000*%
%ADD19C,1.600000*%
G04 APERTURE END LIST*
D10*
X178000000Y-121450000D03*
X178000000Y-124550000D03*
D11*
X142000000Y-54000000D03*
D12*
X144540000Y-54000000D03*
D11*
X182000000Y-54000000D03*
D12*
X184540000Y-54000000D03*
D10*
X188000000Y-81450000D03*
X188000000Y-84550000D03*
D11*
X171965000Y-84000000D03*
D12*
X174505000Y-84000000D03*
D11*
X192000000Y-54000000D03*
D12*
X194540000Y-54000000D03*
D13*
X118115000Y-49035000D03*
D11*
X171965000Y-114000000D03*
D12*
X174505000Y-114000000D03*
D10*
X178000000Y-61000000D03*
X178000000Y-64100000D03*
D11*
X181965000Y-84000000D03*
D12*
X184505000Y-84000000D03*
D11*
X151965000Y-74000000D03*
D12*
X154505000Y-74000000D03*
D10*
X128000000Y-121450000D03*
X128000000Y-124550000D03*
D11*
X172000000Y-54000000D03*
D12*
X174540000Y-54000000D03*
D14*
X207275000Y-128000000D03*
X207275000Y-128650000D03*
X207275000Y-129300000D03*
X207275000Y-129950000D03*
X207275000Y-130600000D03*
X207275000Y-131250000D03*
X207275000Y-131900000D03*
X207275000Y-132550000D03*
X207275000Y-133200000D03*
X207275000Y-133850000D03*
X213000000Y-133850000D03*
X213000000Y-133200000D03*
X213000000Y-132550000D03*
X213000000Y-131900000D03*
X213000000Y-131250000D03*
X213000000Y-130600000D03*
X213000000Y-129950000D03*
X213000000Y-129300000D03*
X213000000Y-128650000D03*
X213000000Y-128000000D03*
D10*
X158000000Y-52350000D03*
X158000000Y-55450000D03*
X138000000Y-71000000D03*
X138000000Y-74100000D03*
D14*
X207275000Y-116000000D03*
X207275000Y-116650000D03*
X207275000Y-117300000D03*
X207275000Y-117950000D03*
X207275000Y-118600000D03*
X207275000Y-119250000D03*
X207275000Y-119900000D03*
X207275000Y-120550000D03*
X207275000Y-121200000D03*
X207275000Y-121850000D03*
X213000000Y-121850000D03*
X213000000Y-121200000D03*
X213000000Y-120550000D03*
X213000000Y-119900000D03*
X213000000Y-119250000D03*
X213000000Y-118600000D03*
X213000000Y-117950000D03*
X213000000Y-117300000D03*
X213000000Y-116650000D03*
X213000000Y-116000000D03*
D10*
X118000000Y-101450000D03*
X118000000Y-104550000D03*
X158000000Y-121450000D03*
X158000000Y-124550000D03*
D11*
X122000000Y-84000000D03*
D12*
X124540000Y-84000000D03*
D13*
X198115000Y-129035000D03*
D11*
X151965000Y-84000000D03*
D12*
X154505000Y-84000000D03*
D11*
X181965000Y-114000000D03*
D12*
X184505000Y-114000000D03*
D11*
X131965000Y-94000000D03*
D12*
X134505000Y-94000000D03*
D11*
X141965000Y-114000000D03*
D12*
X144505000Y-114000000D03*
D11*
X122000000Y-94000000D03*
D12*
X124540000Y-94000000D03*
D13*
X198115000Y-49035000D03*
D10*
X178000000Y-81450000D03*
X178000000Y-84550000D03*
D11*
X161965000Y-64000000D03*
D12*
X164505000Y-64000000D03*
D11*
X131965000Y-74000000D03*
D12*
X134505000Y-74000000D03*
D10*
X128000000Y-101450000D03*
X128000000Y-104550000D03*
D14*
X222475000Y-80725000D03*
X222475000Y-81375000D03*
X222475000Y-82025000D03*
X222475000Y-82675000D03*
X222475000Y-83325000D03*
X222475000Y-83975000D03*
X222475000Y-84625000D03*
X222475000Y-85275000D03*
X228200000Y-85275000D03*
X228200000Y-84625000D03*
X228200000Y-83975000D03*
X228200000Y-83325000D03*
X228200000Y-82675000D03*
X228200000Y-82025000D03*
X228200000Y-81375000D03*
X228200000Y-80725000D03*
D10*
X168000000Y-121450000D03*
X168000000Y-124550000D03*
D11*
X191965000Y-74000000D03*
D12*
X194505000Y-74000000D03*
D11*
X161965000Y-104000000D03*
D12*
X164505000Y-104000000D03*
D15*
X227650000Y-45720000D03*
X230750000Y-45720000D03*
D10*
X158000000Y-111450000D03*
X158000000Y-114550000D03*
D11*
X131965000Y-84000000D03*
D12*
X134505000Y-84000000D03*
D10*
X128000000Y-71000000D03*
X128000000Y-74100000D03*
X158000000Y-91450000D03*
X158000000Y-94550000D03*
X138000000Y-61000000D03*
X138000000Y-64100000D03*
D11*
X122000000Y-114000000D03*
D12*
X124540000Y-114000000D03*
D10*
X148000000Y-101450000D03*
X148000000Y-104550000D03*
D11*
X171965000Y-104000000D03*
D12*
X174505000Y-104000000D03*
D10*
X118000000Y-71000000D03*
X118000000Y-74100000D03*
X148000000Y-111450000D03*
X148000000Y-114550000D03*
D14*
X207412500Y-68075000D03*
X207412500Y-68725000D03*
X207412500Y-69375000D03*
X207412500Y-70025000D03*
X207412500Y-70675000D03*
X207412500Y-71325000D03*
X207412500Y-71975000D03*
X207412500Y-72625000D03*
X207412500Y-73275000D03*
X207412500Y-73925000D03*
X213137500Y-73925000D03*
X213137500Y-73275000D03*
X213137500Y-72625000D03*
X213137500Y-71975000D03*
X213137500Y-71325000D03*
X213137500Y-70675000D03*
X213137500Y-70025000D03*
X213137500Y-69375000D03*
X213137500Y-68725000D03*
X213137500Y-68075000D03*
D11*
X191965000Y-124000000D03*
D12*
X194505000Y-124000000D03*
D10*
X168000000Y-81450000D03*
X168000000Y-84550000D03*
X158000000Y-81450000D03*
X158000000Y-84550000D03*
D11*
X161965000Y-84000000D03*
D12*
X164505000Y-84000000D03*
D11*
X131965000Y-104000000D03*
D12*
X134505000Y-104000000D03*
D10*
X158000000Y-101450000D03*
X158000000Y-104550000D03*
X178000000Y-52350000D03*
X178000000Y-55450000D03*
D11*
X181965000Y-64000000D03*
D12*
X184505000Y-64000000D03*
D10*
X168000000Y-52350000D03*
X168000000Y-55450000D03*
D14*
X207275000Y-80075000D03*
X207275000Y-80725000D03*
X207275000Y-81375000D03*
X207275000Y-82025000D03*
X207275000Y-82675000D03*
X207275000Y-83325000D03*
X207275000Y-83975000D03*
X207275000Y-84625000D03*
X207275000Y-85275000D03*
X207275000Y-85925000D03*
X213000000Y-85925000D03*
X213000000Y-85275000D03*
X213000000Y-84625000D03*
X213000000Y-83975000D03*
X213000000Y-83325000D03*
X213000000Y-82675000D03*
X213000000Y-82025000D03*
X213000000Y-81375000D03*
X213000000Y-80725000D03*
X213000000Y-80075000D03*
D10*
X168000000Y-91450000D03*
X168000000Y-94550000D03*
D11*
X191965000Y-114000000D03*
D12*
X194505000Y-114000000D03*
D10*
X128000000Y-52450000D03*
X128000000Y-55550000D03*
X158000000Y-61000000D03*
X158000000Y-64100000D03*
X188000000Y-121450000D03*
X188000000Y-124550000D03*
X168000000Y-111450000D03*
X168000000Y-114550000D03*
D11*
X181965000Y-104000000D03*
D12*
X184505000Y-104000000D03*
D11*
X181965000Y-74000000D03*
D12*
X184505000Y-74000000D03*
D11*
X191965000Y-64000000D03*
D12*
X194505000Y-64000000D03*
D10*
X178000000Y-91450000D03*
X178000000Y-94550000D03*
D11*
X171965000Y-94000000D03*
D12*
X174505000Y-94000000D03*
D11*
X151965000Y-124000000D03*
D12*
X154505000Y-124000000D03*
D10*
X148000000Y-81450000D03*
X148000000Y-84550000D03*
D14*
X222475000Y-69050000D03*
X222475000Y-69700000D03*
X222475000Y-70350000D03*
X222475000Y-71000000D03*
X222475000Y-71650000D03*
X222475000Y-72300000D03*
X222475000Y-72950000D03*
X228200000Y-72950000D03*
X228200000Y-72300000D03*
X228200000Y-71650000D03*
X228200000Y-71000000D03*
X228200000Y-70350000D03*
X228200000Y-69700000D03*
X228200000Y-69050000D03*
D11*
X181965000Y-94000000D03*
D12*
X184505000Y-94000000D03*
D11*
X161965000Y-124000000D03*
D12*
X164505000Y-124000000D03*
D11*
X161965000Y-114000000D03*
D12*
X164505000Y-114000000D03*
D10*
X188000000Y-101450000D03*
X188000000Y-104550000D03*
X128000000Y-91450000D03*
X128000000Y-94550000D03*
X138000000Y-101450000D03*
X138000000Y-104550000D03*
D11*
X151965000Y-104000000D03*
D12*
X154505000Y-104000000D03*
D10*
X188000000Y-91450000D03*
X188000000Y-94550000D03*
D11*
X171965000Y-74000000D03*
D12*
X174505000Y-74000000D03*
D10*
X168000000Y-71000000D03*
X168000000Y-74100000D03*
X118000000Y-61000000D03*
X118000000Y-64100000D03*
D11*
X191965000Y-84000000D03*
D12*
X194505000Y-84000000D03*
D11*
X122000000Y-104000000D03*
D12*
X124540000Y-104000000D03*
D10*
X148000000Y-52350000D03*
X148000000Y-55450000D03*
D11*
X141965000Y-84000000D03*
D12*
X144505000Y-84000000D03*
D10*
X128000000Y-61000000D03*
X128000000Y-64100000D03*
X188000000Y-61000000D03*
X188000000Y-64100000D03*
X138000000Y-111450000D03*
X138000000Y-114550000D03*
D11*
X132000000Y-54000000D03*
D12*
X134540000Y-54000000D03*
D16*
X228967500Y-50800000D03*
D17*
X221347500Y-50800000D03*
D10*
X128000000Y-81450000D03*
X128000000Y-84550000D03*
X178000000Y-101450000D03*
X178000000Y-104550000D03*
D14*
X207412500Y-45335000D03*
X207412500Y-45985000D03*
X207412500Y-46635000D03*
X207412500Y-47285000D03*
X207412500Y-47935000D03*
X207412500Y-48585000D03*
X207412500Y-49235000D03*
X207412500Y-49885000D03*
X207412500Y-50535000D03*
X207412500Y-51185000D03*
X213137500Y-51185000D03*
X213137500Y-50535000D03*
X213137500Y-49885000D03*
X213137500Y-49235000D03*
X213137500Y-48585000D03*
X213137500Y-47935000D03*
X213137500Y-47285000D03*
X213137500Y-46635000D03*
X213137500Y-45985000D03*
X213137500Y-45335000D03*
D10*
X188000000Y-52350000D03*
X188000000Y-55450000D03*
D11*
X122060000Y-54000000D03*
D12*
X124600000Y-54000000D03*
D11*
X152000000Y-54000000D03*
D12*
X154540000Y-54000000D03*
D11*
X191965000Y-104000000D03*
D12*
X194505000Y-104000000D03*
D14*
X207412500Y-56075000D03*
X207412500Y-56725000D03*
X207412500Y-57375000D03*
X207412500Y-58025000D03*
X207412500Y-58675000D03*
X207412500Y-59325000D03*
X207412500Y-59975000D03*
X207412500Y-60625000D03*
X207412500Y-61275000D03*
X207412500Y-61925000D03*
X213137500Y-61925000D03*
X213137500Y-61275000D03*
X213137500Y-60625000D03*
X213137500Y-59975000D03*
X213137500Y-59325000D03*
X213137500Y-58675000D03*
X213137500Y-58025000D03*
X213137500Y-57375000D03*
X213137500Y-56725000D03*
X213137500Y-56075000D03*
D10*
X138000000Y-91450000D03*
X138000000Y-94550000D03*
X168000000Y-61000000D03*
X168000000Y-64100000D03*
D11*
X162000000Y-54000000D03*
D12*
X164540000Y-54000000D03*
D11*
X131965000Y-114000000D03*
D12*
X134505000Y-114000000D03*
D10*
X148000000Y-91450000D03*
X148000000Y-94550000D03*
X168000000Y-101450000D03*
X168000000Y-104550000D03*
D11*
X141965000Y-74000000D03*
D12*
X144505000Y-74000000D03*
D11*
X131965000Y-124000000D03*
D12*
X134505000Y-124000000D03*
D10*
X118000000Y-81450000D03*
X118000000Y-84550000D03*
D18*
X111420000Y-58175000D03*
X111420000Y-121675000D03*
D16*
X112840000Y-114855000D03*
D19*
X112840000Y-112085000D03*
X112840000Y-109315000D03*
X112840000Y-106545000D03*
X112840000Y-103775000D03*
X112840000Y-101005000D03*
X112840000Y-98235000D03*
X112840000Y-95465000D03*
X112840000Y-92695000D03*
X112840000Y-89925000D03*
X112840000Y-87155000D03*
X112840000Y-84385000D03*
X112840000Y-81615000D03*
X112840000Y-78845000D03*
X112840000Y-76075000D03*
X112840000Y-73305000D03*
X112840000Y-70535000D03*
X112840000Y-67765000D03*
X112840000Y-64995000D03*
X110000000Y-113470000D03*
X110000000Y-110700000D03*
X110000000Y-107930000D03*
X110000000Y-105160000D03*
X110000000Y-102390000D03*
X110000000Y-99620000D03*
X110000000Y-96850000D03*
X110000000Y-94080000D03*
X110000000Y-91310000D03*
X110000000Y-88540000D03*
X110000000Y-85770000D03*
X110000000Y-83000000D03*
X110000000Y-80230000D03*
X110000000Y-77460000D03*
X110000000Y-74690000D03*
X110000000Y-71920000D03*
X110000000Y-69150000D03*
X110000000Y-66380000D03*
D10*
X178000000Y-71000000D03*
X178000000Y-74100000D03*
X138000000Y-52450000D03*
X138000000Y-55550000D03*
D11*
X161965000Y-94000000D03*
D12*
X164505000Y-94000000D03*
D11*
X141965000Y-64000000D03*
D12*
X144505000Y-64000000D03*
D10*
X138000000Y-81450000D03*
X138000000Y-84550000D03*
X148000000Y-121450000D03*
X148000000Y-124550000D03*
D11*
X131965000Y-64000000D03*
D12*
X134505000Y-64000000D03*
D11*
X122000000Y-64000000D03*
D12*
X124540000Y-64000000D03*
D10*
X178000000Y-111450000D03*
X178000000Y-114550000D03*
D14*
X222475000Y-93050000D03*
X222475000Y-93700000D03*
X222475000Y-94350000D03*
X222475000Y-95000000D03*
X222475000Y-95650000D03*
X222475000Y-96300000D03*
X222475000Y-96950000D03*
X228200000Y-96950000D03*
X228200000Y-96300000D03*
X228200000Y-95650000D03*
X228200000Y-95000000D03*
X228200000Y-94350000D03*
X228200000Y-93700000D03*
X228200000Y-93050000D03*
X222475000Y-57050000D03*
X222475000Y-57700000D03*
X222475000Y-58350000D03*
X222475000Y-59000000D03*
X222475000Y-59650000D03*
X222475000Y-60300000D03*
X222475000Y-60950000D03*
X228200000Y-60950000D03*
X228200000Y-60300000D03*
X228200000Y-59650000D03*
X228200000Y-59000000D03*
X228200000Y-58350000D03*
X228200000Y-57700000D03*
X228200000Y-57050000D03*
D11*
X151965000Y-114000000D03*
D12*
X154505000Y-114000000D03*
D13*
X118115000Y-129035000D03*
D11*
X151965000Y-94000000D03*
D12*
X154505000Y-94000000D03*
D10*
X118000000Y-121450000D03*
X118000000Y-124550000D03*
X148000000Y-71000000D03*
X148000000Y-74100000D03*
X118000000Y-52450000D03*
X118000000Y-55550000D03*
D11*
X191965000Y-94000000D03*
D12*
X194505000Y-94000000D03*
D10*
X128000000Y-111450000D03*
X128000000Y-114550000D03*
D14*
X207275000Y-92075000D03*
X207275000Y-92725000D03*
X207275000Y-93375000D03*
X207275000Y-94025000D03*
X207275000Y-94675000D03*
X207275000Y-95325000D03*
X207275000Y-95975000D03*
X207275000Y-96625000D03*
X207275000Y-97275000D03*
X207275000Y-97925000D03*
X213000000Y-97925000D03*
X213000000Y-97275000D03*
X213000000Y-96625000D03*
X213000000Y-95975000D03*
X213000000Y-95325000D03*
X213000000Y-94675000D03*
X213000000Y-94025000D03*
X213000000Y-93375000D03*
X213000000Y-92725000D03*
X213000000Y-92075000D03*
D10*
X138000000Y-121450000D03*
X138000000Y-124550000D03*
X148000000Y-61000000D03*
X148000000Y-64100000D03*
X188000000Y-111450000D03*
X188000000Y-114550000D03*
D11*
X151965000Y-64000000D03*
D12*
X154505000Y-64000000D03*
D11*
X141965000Y-104000000D03*
D12*
X144505000Y-104000000D03*
D11*
X141965000Y-124000000D03*
D12*
X144505000Y-124000000D03*
D10*
X158000000Y-71000000D03*
X158000000Y-74100000D03*
X118000000Y-91450000D03*
X118000000Y-94550000D03*
D11*
X181965000Y-124000000D03*
D12*
X184505000Y-124000000D03*
D10*
X188000000Y-71000000D03*
X188000000Y-74100000D03*
X118000000Y-111450000D03*
X118000000Y-114550000D03*
D11*
X122000000Y-124000000D03*
D12*
X124540000Y-124000000D03*
D11*
X171965000Y-64000000D03*
D12*
X174505000Y-64000000D03*
D11*
X171965000Y-124000000D03*
D12*
X174505000Y-124000000D03*
D11*
X122000000Y-74000000D03*
D12*
X124540000Y-74000000D03*
D11*
X141965000Y-94000000D03*
D12*
X144505000Y-94000000D03*
D14*
X207275000Y-104350000D03*
X207275000Y-105000000D03*
X207275000Y-105650000D03*
X207275000Y-106300000D03*
X207275000Y-106950000D03*
X207275000Y-107600000D03*
X207275000Y-108250000D03*
X207275000Y-108900000D03*
X207275000Y-109550000D03*
X207275000Y-110200000D03*
X213000000Y-110200000D03*
X213000000Y-109550000D03*
X213000000Y-108900000D03*
X213000000Y-108250000D03*
X213000000Y-107600000D03*
X213000000Y-106950000D03*
X213000000Y-106300000D03*
X213000000Y-105650000D03*
X213000000Y-105000000D03*
X213000000Y-104350000D03*
D11*
X161965000Y-74000000D03*
D12*
X164505000Y-74000000D03*
M02*
