%TF.GenerationSoftware,KiCad,Pcbnew,7.0.5*%
%TF.CreationDate,2023-09-10T10:55:36+02:00*%
%TF.ProjectId,LED-Matrix,4c45442d-4d61-4747-9269-782e6b696361,rev?*%
%TF.SameCoordinates,Original*%
%TF.FileFunction,Drillmap*%
%TF.FilePolarity,Positive*%
%FSLAX45Y45*%
G04 Gerber Fmt 4.5, Leading zero omitted, Abs format (unit mm)*
G04 Created by KiCad (PCBNEW 7.0.5) date 2023-09-10 10:55:36*
%MOMM*%
%LPD*%
G01*
G04 APERTURE LIST*
%ADD10C,0.100000*%
%ADD11C,0.200000*%
%ADD12C,0.040000*%
%ADD13C,0.080000*%
%ADD14C,0.090000*%
%ADD15C,0.320000*%
G04 APERTURE END LIST*
D10*
X10000000Y-4000000D02*
X23500000Y-4000000D01*
X23500000Y-14000000D01*
X10000000Y-14000000D01*
X10000000Y-4000000D01*
D11*
D12*
X11414355Y-6207355D02*
X11454355Y-6247355D01*
X11454355Y-6207355D02*
X11414355Y-6247355D01*
X11780000Y-5225000D02*
X11820000Y-5265000D01*
X11820000Y-5225000D02*
X11780000Y-5265000D01*
X11780000Y-6080000D02*
X11820000Y-6120000D01*
X11820000Y-6080000D02*
X11780000Y-6120000D01*
X11780000Y-7080000D02*
X11820000Y-7120000D01*
X11820000Y-7080000D02*
X11780000Y-7120000D01*
X11780000Y-8125000D02*
X11820000Y-8165000D01*
X11820000Y-8125000D02*
X11780000Y-8165000D01*
X11780000Y-10125000D02*
X11820000Y-10165000D01*
X11820000Y-10125000D02*
X11780000Y-10165000D01*
X11780000Y-11125000D02*
X11820000Y-11165000D01*
X11820000Y-11125000D02*
X11780000Y-11165000D01*
X11780000Y-12125000D02*
X11820000Y-12165000D01*
X11820000Y-12125000D02*
X11780000Y-12165000D01*
X11791000Y-9124000D02*
X11831000Y-9164000D01*
X11831000Y-9124000D02*
X11791000Y-9164000D01*
X12785730Y-9130730D02*
X12825730Y-9170730D01*
X12825730Y-9130730D02*
X12785730Y-9170730D01*
X12807000Y-10140000D02*
X12847000Y-10180000D01*
X12847000Y-10140000D02*
X12807000Y-10180000D01*
X12807000Y-12172000D02*
X12847000Y-12212000D01*
X12847000Y-12172000D02*
X12807000Y-12212000D01*
X13188000Y-10140000D02*
X13228000Y-10180000D01*
X13228000Y-10140000D02*
X13188000Y-10180000D01*
X13823000Y-8108000D02*
X13863000Y-8148000D01*
X13863000Y-8108000D02*
X13823000Y-8148000D01*
X13823000Y-9124000D02*
X13863000Y-9164000D01*
X13863000Y-9124000D02*
X13823000Y-9164000D01*
X13823000Y-10140000D02*
X13863000Y-10180000D01*
X13863000Y-10140000D02*
X13823000Y-10180000D01*
X13823000Y-12172000D02*
X13863000Y-12212000D01*
X13863000Y-12172000D02*
X13823000Y-12212000D01*
X14513100Y-9640230D02*
X14553100Y-9680230D01*
X14553100Y-9640230D02*
X14513100Y-9680230D01*
X14780000Y-9125000D02*
X14820000Y-9165000D01*
X14820000Y-9125000D02*
X14780000Y-9165000D01*
X14780000Y-12125000D02*
X14820000Y-12165000D01*
X14820000Y-12125000D02*
X14780000Y-12165000D01*
X15197490Y-7737670D02*
X15237490Y-7777670D01*
X15237490Y-7737670D02*
X15197490Y-7777670D01*
X16143250Y-10988790D02*
X16183250Y-11028790D01*
X16183250Y-10988790D02*
X16143250Y-11028790D01*
X16547690Y-13391370D02*
X16587690Y-13431370D01*
X16587690Y-13391370D02*
X16547690Y-13431370D01*
X18780000Y-11125000D02*
X18820000Y-11165000D01*
X18820000Y-11125000D02*
X18780000Y-11165000D01*
X18780000Y-12125000D02*
X18820000Y-12165000D01*
X18820000Y-12125000D02*
X18780000Y-12165000D01*
X18903000Y-8006840D02*
X18943000Y-8046840D01*
X18943000Y-8006840D02*
X18903000Y-8046840D01*
X18991780Y-7107360D02*
X19031780Y-7147360D01*
X19031780Y-7107360D02*
X18991780Y-7147360D01*
X19030000Y-8108000D02*
X19070000Y-8148000D01*
X19070000Y-8108000D02*
X19030000Y-8148000D01*
X19030000Y-9124000D02*
X19070000Y-9164000D01*
X19070000Y-9124000D02*
X19030000Y-9164000D01*
X19030000Y-10140000D02*
X19070000Y-10180000D01*
X19070000Y-10140000D02*
X19030000Y-10180000D01*
X19284000Y-7059290D02*
X19324000Y-7099290D01*
X19324000Y-7059290D02*
X19284000Y-7099290D01*
X19612690Y-9156680D02*
X19652690Y-9196680D01*
X19652690Y-9156680D02*
X19612690Y-9196680D01*
X19665000Y-11283000D02*
X19705000Y-11323000D01*
X19705000Y-11283000D02*
X19665000Y-11323000D01*
X19696620Y-6277070D02*
X19736620Y-6317070D01*
X19736620Y-6277070D02*
X19696620Y-6317070D01*
X19733140Y-9590050D02*
X19773140Y-9630050D01*
X19773140Y-9590050D02*
X19733140Y-9630050D01*
X19768000Y-8042500D02*
X19808000Y-8082500D01*
X19808000Y-8042500D02*
X19768000Y-8082500D01*
X20046000Y-5822000D02*
X20086000Y-5862000D01*
X20086000Y-5822000D02*
X20046000Y-5862000D01*
X20046000Y-6097660D02*
X20086000Y-6137660D01*
X20086000Y-6097660D02*
X20046000Y-6137660D01*
X20046000Y-7346000D02*
X20086000Y-7386000D01*
X20086000Y-7346000D02*
X20046000Y-7386000D01*
X20046000Y-8578050D02*
X20086000Y-8618050D01*
X20086000Y-8578050D02*
X20046000Y-8618050D01*
X20046000Y-9779950D02*
X20086000Y-9819950D01*
X20086000Y-9779950D02*
X20046000Y-9819950D01*
X20046000Y-11029000D02*
X20086000Y-11069000D01*
X20086000Y-11029000D02*
X20046000Y-11069000D01*
X20046000Y-12172000D02*
X20086000Y-12212000D01*
X20086000Y-12172000D02*
X20046000Y-12212000D01*
X20300000Y-13345280D02*
X20340000Y-13385280D01*
X20340000Y-13345280D02*
X20300000Y-13385280D01*
X20300000Y-13696000D02*
X20340000Y-13736000D01*
X20340000Y-13696000D02*
X20300000Y-13736000D01*
X20385080Y-6987990D02*
X20425080Y-7027990D01*
X20425080Y-6987990D02*
X20385080Y-7027990D01*
X20395700Y-9394770D02*
X20435700Y-9434770D01*
X20435700Y-9394770D02*
X20395700Y-9434770D01*
X20396410Y-10609360D02*
X20436410Y-10649360D01*
X20436410Y-10609360D02*
X20396410Y-10649360D01*
X20409580Y-8194250D02*
X20449580Y-8234250D01*
X20449580Y-8194250D02*
X20409580Y-8234250D01*
X20473750Y-7244690D02*
X20513750Y-7284690D01*
X20513750Y-7244690D02*
X20473750Y-7284690D01*
X20480090Y-9634600D02*
X20520090Y-9674600D01*
X20520090Y-9634600D02*
X20480090Y-9674600D01*
X20480090Y-10848810D02*
X20520090Y-10888810D01*
X20520090Y-10848810D02*
X20480090Y-10888810D01*
X20481970Y-6034280D02*
X20521970Y-6074280D01*
X20521970Y-6034280D02*
X20481970Y-6074280D01*
X20485690Y-8432980D02*
X20525690Y-8472980D01*
X20525690Y-8432980D02*
X20485690Y-8472980D01*
X20488810Y-11748280D02*
X20528810Y-11788280D01*
X20528810Y-11748280D02*
X20488810Y-11788280D01*
X20488810Y-12829590D02*
X20528810Y-12869590D01*
X20528810Y-12829590D02*
X20488810Y-12869590D01*
X20554000Y-4754650D02*
X20594000Y-4794650D01*
X20594000Y-4754650D02*
X20554000Y-4794650D01*
X20555620Y-10545650D02*
X20595620Y-10585650D01*
X20595620Y-10545650D02*
X20555620Y-10585650D01*
X20558390Y-9308570D02*
X20598390Y-9348570D01*
X20598390Y-9308570D02*
X20558390Y-9348570D01*
X20564000Y-12026210D02*
X20604000Y-12066210D01*
X20604000Y-12026210D02*
X20564000Y-12066210D01*
X20564640Y-6916700D02*
X20604640Y-6956700D01*
X20604640Y-6916700D02*
X20564640Y-6956700D01*
X20564640Y-8115200D02*
X20604640Y-8155200D01*
X20604640Y-8115200D02*
X20564640Y-8155200D01*
X20570470Y-13160670D02*
X20610470Y-13200670D01*
X20610470Y-13160670D02*
X20570470Y-13200670D01*
X20583230Y-5866050D02*
X20623230Y-5906050D01*
X20623230Y-5866050D02*
X20583230Y-5906050D01*
X20600330Y-5443410D02*
X20640330Y-5483410D01*
X20640330Y-5443410D02*
X20600330Y-5483410D01*
X20679860Y-5505640D02*
X20719860Y-5545640D01*
X20719860Y-5505640D02*
X20679860Y-5545640D01*
X20807090Y-11506460D02*
X20847090Y-11546460D01*
X20847090Y-11506460D02*
X20807090Y-11546460D01*
X20816650Y-12715490D02*
X20856650Y-12755490D01*
X20856650Y-12715490D02*
X20816650Y-12755490D01*
X20842750Y-11970000D02*
X20882750Y-12010000D01*
X20882750Y-11970000D02*
X20842750Y-12010000D01*
X20843210Y-8377500D02*
X20883210Y-8417500D01*
X20883210Y-8377500D02*
X20843210Y-8417500D01*
X20843210Y-9577500D02*
X20883210Y-9617500D01*
X20883210Y-9577500D02*
X20843210Y-9617500D01*
X20843760Y-10817130D02*
X20883760Y-10857130D01*
X20883760Y-10817130D02*
X20843760Y-10857130D01*
X20855260Y-5587500D02*
X20895260Y-5627500D01*
X20895260Y-5587500D02*
X20855260Y-5627500D01*
X20855620Y-7176550D02*
X20895620Y-7216550D01*
X20895620Y-7176550D02*
X20855620Y-7216550D01*
X20868440Y-13002840D02*
X20908440Y-13042840D01*
X20908440Y-13002840D02*
X20868440Y-13042840D01*
X20887530Y-6787500D02*
X20927530Y-6827500D01*
X20927530Y-6787500D02*
X20887530Y-6827500D01*
X20887990Y-8015370D02*
X20927990Y-8055370D01*
X20927990Y-8015370D02*
X20887990Y-8055370D01*
X20974080Y-9528860D02*
X21014080Y-9568860D01*
X21014080Y-9528860D02*
X20974080Y-9568860D01*
X20989350Y-10580070D02*
X21029350Y-10620070D01*
X21029350Y-10580070D02*
X20989350Y-10620070D01*
X20992040Y-11667330D02*
X21032040Y-11707330D01*
X21032040Y-11667330D02*
X20992040Y-11707330D01*
X20995250Y-8377500D02*
X21035250Y-8417500D01*
X21035250Y-8377500D02*
X20995250Y-8417500D01*
X20997670Y-11429150D02*
X21037670Y-11469150D01*
X21037670Y-11429150D02*
X20997670Y-11469150D01*
X21040000Y-12553000D02*
X21080000Y-12593000D01*
X21080000Y-12553000D02*
X21040000Y-12593000D01*
X21041850Y-9312410D02*
X21081850Y-9352410D01*
X21081850Y-9312410D02*
X21041850Y-9352410D01*
X21061070Y-13106350D02*
X21101070Y-13146350D01*
X21101070Y-13106350D02*
X21061070Y-13146350D01*
X21068060Y-9071680D02*
X21108060Y-9111680D01*
X21108060Y-9071680D02*
X21068060Y-9111680D01*
X21069160Y-6995280D02*
X21109160Y-7035280D01*
X21109160Y-6995280D02*
X21069160Y-7035280D01*
X21076030Y-13006150D02*
X21116030Y-13046150D01*
X21116030Y-13006150D02*
X21076030Y-13046150D01*
X21077510Y-7834030D02*
X21117510Y-7874030D01*
X21117510Y-7834030D02*
X21077510Y-7874030D01*
X21091330Y-4926250D02*
X21131330Y-4966250D01*
X21131330Y-4926250D02*
X21091330Y-4966250D01*
X21117780Y-10498150D02*
X21157780Y-10538150D01*
X21157780Y-10498150D02*
X21117780Y-10538150D01*
X21126250Y-9869640D02*
X21166250Y-9909640D01*
X21166250Y-9869640D02*
X21126250Y-9909640D01*
X21134690Y-9769440D02*
X21174690Y-9809440D01*
X21174690Y-9769440D02*
X21134690Y-9809440D01*
X21141570Y-9382500D02*
X21181570Y-9422500D01*
X21181570Y-9382500D02*
X21141570Y-9422500D01*
X21142840Y-13399440D02*
X21182840Y-13439440D01*
X21182840Y-13399440D02*
X21142840Y-13439440D01*
X21143850Y-12035000D02*
X21183850Y-12075000D01*
X21183850Y-12035000D02*
X21143850Y-12075000D01*
X21145750Y-8092150D02*
X21185750Y-8132150D01*
X21185750Y-8092150D02*
X21145750Y-8132150D01*
X21156060Y-6917500D02*
X21196060Y-6957500D01*
X21196060Y-6917500D02*
X21156060Y-6957500D01*
X21189050Y-8710400D02*
X21229050Y-8750400D01*
X21229050Y-8710400D02*
X21189050Y-8750400D01*
X21229090Y-6254800D02*
X21269090Y-6294800D01*
X21269090Y-6254800D02*
X21229090Y-6294800D01*
X21265450Y-7907170D02*
X21305450Y-7947170D01*
X21305450Y-7907170D02*
X21265450Y-7947170D01*
X21267440Y-6705420D02*
X21307440Y-6745420D01*
X21307440Y-6705420D02*
X21267440Y-6745420D01*
X21270940Y-12694800D02*
X21310940Y-12734800D01*
X21310940Y-12694800D02*
X21270940Y-12734800D01*
X21275680Y-9989740D02*
X21315680Y-10029740D01*
X21315680Y-9989740D02*
X21275680Y-10029740D01*
X21280000Y-10189440D02*
X21320000Y-10229440D01*
X21320000Y-10189440D02*
X21280000Y-10229440D01*
X21314030Y-11082120D02*
X21354030Y-11122120D01*
X21354030Y-11082120D02*
X21314030Y-11122120D01*
X21354610Y-10052530D02*
X21394610Y-10092530D01*
X21394610Y-10052530D02*
X21354610Y-10092530D01*
X21368820Y-11491180D02*
X21408820Y-11531180D01*
X21408820Y-11491180D02*
X21368820Y-11531180D01*
X21425650Y-12146290D02*
X21465650Y-12186290D01*
X21465650Y-12146290D02*
X21425650Y-12186290D01*
X21436140Y-4604750D02*
X21476140Y-4644750D01*
X21476140Y-4604750D02*
X21436140Y-4644750D01*
X21444460Y-4862790D02*
X21484460Y-4902790D01*
X21484460Y-4862790D02*
X21444460Y-4902790D01*
X21445030Y-7202190D02*
X21485030Y-7242190D01*
X21485030Y-7202190D02*
X21445030Y-7242190D01*
X21446630Y-12966850D02*
X21486630Y-13006850D01*
X21486630Y-12966850D02*
X21446630Y-13006850D01*
X21454320Y-5982460D02*
X21494320Y-6022460D01*
X21494320Y-5982460D02*
X21454320Y-6022460D01*
X21454760Y-7733310D02*
X21494760Y-7773310D01*
X21494760Y-7733310D02*
X21454760Y-7773310D01*
X21467860Y-8414790D02*
X21507860Y-8454790D01*
X21507860Y-8414790D02*
X21467860Y-8454790D01*
X21470410Y-7602940D02*
X21510410Y-7642940D01*
X21510410Y-7602940D02*
X21470410Y-7642940D01*
X21489500Y-12359460D02*
X21529500Y-12399460D01*
X21529500Y-12359460D02*
X21489500Y-12399460D01*
X21495060Y-7104090D02*
X21535060Y-7144090D01*
X21535060Y-7104090D02*
X21495060Y-7144090D01*
X21521020Y-4931040D02*
X21561020Y-4971040D01*
X21561020Y-4931040D02*
X21521020Y-4971040D01*
X21548610Y-6034250D02*
X21588610Y-6074250D01*
X21588610Y-6034250D02*
X21548610Y-6074250D01*
X21641220Y-6107500D02*
X21681220Y-6147500D01*
X21681220Y-6107500D02*
X21641220Y-6147500D01*
X21664290Y-7689790D02*
X21704290Y-7729790D01*
X21704290Y-7689790D02*
X21664290Y-7729790D01*
X21702410Y-5685000D02*
X21742410Y-5725000D01*
X21742410Y-5685000D02*
X21702410Y-5725000D01*
X21814350Y-11400350D02*
X21854350Y-11440350D01*
X21854350Y-11400350D02*
X21814350Y-11440350D01*
X22026610Y-9637430D02*
X22066610Y-9677430D01*
X22066610Y-9637430D02*
X22026610Y-9677430D01*
X22080190Y-5919570D02*
X22120190Y-5959570D01*
X22120190Y-5919570D02*
X22080190Y-5959570D01*
X22092980Y-8442500D02*
X22132980Y-8482500D01*
X22132980Y-8442500D02*
X22092980Y-8482500D01*
X22098500Y-8636500D02*
X22138500Y-8676500D01*
X22138500Y-8636500D02*
X22098500Y-8676500D01*
X22180060Y-9203640D02*
X22220060Y-9243640D01*
X22220060Y-9203640D02*
X22180060Y-9243640D01*
X22225460Y-7432520D02*
X22265460Y-7472520D01*
X22265460Y-7432520D02*
X22225460Y-7472520D01*
X22261270Y-7781860D02*
X22301270Y-7821860D01*
X22301270Y-7781860D02*
X22261270Y-7821860D01*
X22296950Y-6804390D02*
X22336950Y-6844390D01*
X22336950Y-6804390D02*
X22296950Y-6844390D01*
X22362550Y-8321080D02*
X22402550Y-8361080D01*
X22402550Y-8321080D02*
X22362550Y-8361080D01*
X22406660Y-7830240D02*
X22446660Y-7870240D01*
X22446660Y-7830240D02*
X22406660Y-7870240D01*
X22441550Y-8389720D02*
X22481550Y-8429720D01*
X22481550Y-8389720D02*
X22441550Y-8429720D01*
X22638520Y-8009340D02*
X22678520Y-8049340D01*
X22678520Y-8009340D02*
X22638520Y-8049340D01*
X22639750Y-8161400D02*
X22679750Y-8201400D01*
X22679750Y-8161400D02*
X22639750Y-8201400D01*
X22663300Y-7145000D02*
X22703300Y-7185000D01*
X22703300Y-7145000D02*
X22663300Y-7185000D01*
X22664720Y-6967140D02*
X22704720Y-7007140D01*
X22704720Y-6967140D02*
X22664720Y-7007140D01*
X22830800Y-6717050D02*
X22870800Y-6757050D01*
X22870800Y-6717050D02*
X22830800Y-6757050D01*
X22934230Y-5817150D02*
X22974230Y-5857150D01*
X22974230Y-5817150D02*
X22934230Y-5857150D01*
X22937340Y-5945000D02*
X22977340Y-5985000D01*
X22977340Y-5945000D02*
X22937340Y-5985000D01*
D13*
X22174750Y-5080000D02*
G75*
G03*
X22174750Y-5080000I-40000J0D01*
G01*
X22936750Y-5080000D02*
G75*
G03*
X22936750Y-5080000I-40000J0D01*
G01*
D14*
X12200000Y-6355000D02*
X12200000Y-6445000D01*
X12155000Y-6400000D02*
X12245000Y-6400000D01*
X12200000Y-7355000D02*
X12200000Y-7445000D01*
X12155000Y-7400000D02*
X12245000Y-7400000D01*
X12200000Y-8355000D02*
X12200000Y-8445000D01*
X12155000Y-8400000D02*
X12245000Y-8400000D01*
X12200000Y-9355000D02*
X12200000Y-9445000D01*
X12155000Y-9400000D02*
X12245000Y-9400000D01*
X12200000Y-10355000D02*
X12200000Y-10445000D01*
X12155000Y-10400000D02*
X12245000Y-10400000D01*
X12200000Y-11355000D02*
X12200000Y-11445000D01*
X12155000Y-11400000D02*
X12245000Y-11400000D01*
X12200000Y-12355000D02*
X12200000Y-12445000D01*
X12155000Y-12400000D02*
X12245000Y-12400000D01*
X12206000Y-5355000D02*
X12206000Y-5445000D01*
X12161000Y-5400000D02*
X12251000Y-5400000D01*
X12454000Y-6355000D02*
X12454000Y-6445000D01*
X12409000Y-6400000D02*
X12499000Y-6400000D01*
X12454000Y-7355000D02*
X12454000Y-7445000D01*
X12409000Y-7400000D02*
X12499000Y-7400000D01*
X12454000Y-8355000D02*
X12454000Y-8445000D01*
X12409000Y-8400000D02*
X12499000Y-8400000D01*
X12454000Y-9355000D02*
X12454000Y-9445000D01*
X12409000Y-9400000D02*
X12499000Y-9400000D01*
X12454000Y-10355000D02*
X12454000Y-10445000D01*
X12409000Y-10400000D02*
X12499000Y-10400000D01*
X12454000Y-11355000D02*
X12454000Y-11445000D01*
X12409000Y-11400000D02*
X12499000Y-11400000D01*
X12454000Y-12355000D02*
X12454000Y-12445000D01*
X12409000Y-12400000D02*
X12499000Y-12400000D01*
X12460000Y-5355000D02*
X12460000Y-5445000D01*
X12415000Y-5400000D02*
X12505000Y-5400000D01*
X13196500Y-6355000D02*
X13196500Y-6445000D01*
X13151500Y-6400000D02*
X13241500Y-6400000D01*
X13196500Y-7355000D02*
X13196500Y-7445000D01*
X13151500Y-7400000D02*
X13241500Y-7400000D01*
X13196500Y-8355000D02*
X13196500Y-8445000D01*
X13151500Y-8400000D02*
X13241500Y-8400000D01*
X13196500Y-9355000D02*
X13196500Y-9445000D01*
X13151500Y-9400000D02*
X13241500Y-9400000D01*
X13196500Y-10355000D02*
X13196500Y-10445000D01*
X13151500Y-10400000D02*
X13241500Y-10400000D01*
X13196500Y-11355000D02*
X13196500Y-11445000D01*
X13151500Y-11400000D02*
X13241500Y-11400000D01*
X13196500Y-12355000D02*
X13196500Y-12445000D01*
X13151500Y-12400000D02*
X13241500Y-12400000D01*
X13200000Y-5355000D02*
X13200000Y-5445000D01*
X13155000Y-5400000D02*
X13245000Y-5400000D01*
X13450500Y-6355000D02*
X13450500Y-6445000D01*
X13405500Y-6400000D02*
X13495500Y-6400000D01*
X13450500Y-7355000D02*
X13450500Y-7445000D01*
X13405500Y-7400000D02*
X13495500Y-7400000D01*
X13450500Y-8355000D02*
X13450500Y-8445000D01*
X13405500Y-8400000D02*
X13495500Y-8400000D01*
X13450500Y-9355000D02*
X13450500Y-9445000D01*
X13405500Y-9400000D02*
X13495500Y-9400000D01*
X13450500Y-10355000D02*
X13450500Y-10445000D01*
X13405500Y-10400000D02*
X13495500Y-10400000D01*
X13450500Y-11355000D02*
X13450500Y-11445000D01*
X13405500Y-11400000D02*
X13495500Y-11400000D01*
X13450500Y-12355000D02*
X13450500Y-12445000D01*
X13405500Y-12400000D02*
X13495500Y-12400000D01*
X13454000Y-5355000D02*
X13454000Y-5445000D01*
X13409000Y-5400000D02*
X13499000Y-5400000D01*
X14196500Y-6355000D02*
X14196500Y-6445000D01*
X14151500Y-6400000D02*
X14241500Y-6400000D01*
X14196500Y-7355000D02*
X14196500Y-7445000D01*
X14151500Y-7400000D02*
X14241500Y-7400000D01*
X14196500Y-8355000D02*
X14196500Y-8445000D01*
X14151500Y-8400000D02*
X14241500Y-8400000D01*
X14196500Y-9355000D02*
X14196500Y-9445000D01*
X14151500Y-9400000D02*
X14241500Y-9400000D01*
X14196500Y-10355000D02*
X14196500Y-10445000D01*
X14151500Y-10400000D02*
X14241500Y-10400000D01*
X14196500Y-11355000D02*
X14196500Y-11445000D01*
X14151500Y-11400000D02*
X14241500Y-11400000D01*
X14196500Y-12355000D02*
X14196500Y-12445000D01*
X14151500Y-12400000D02*
X14241500Y-12400000D01*
X14200000Y-5355000D02*
X14200000Y-5445000D01*
X14155000Y-5400000D02*
X14245000Y-5400000D01*
X14450500Y-6355000D02*
X14450500Y-6445000D01*
X14405500Y-6400000D02*
X14495500Y-6400000D01*
X14450500Y-7355000D02*
X14450500Y-7445000D01*
X14405500Y-7400000D02*
X14495500Y-7400000D01*
X14450500Y-8355000D02*
X14450500Y-8445000D01*
X14405500Y-8400000D02*
X14495500Y-8400000D01*
X14450500Y-9355000D02*
X14450500Y-9445000D01*
X14405500Y-9400000D02*
X14495500Y-9400000D01*
X14450500Y-10355000D02*
X14450500Y-10445000D01*
X14405500Y-10400000D02*
X14495500Y-10400000D01*
X14450500Y-11355000D02*
X14450500Y-11445000D01*
X14405500Y-11400000D02*
X14495500Y-11400000D01*
X14450500Y-12355000D02*
X14450500Y-12445000D01*
X14405500Y-12400000D02*
X14495500Y-12400000D01*
X14454000Y-5355000D02*
X14454000Y-5445000D01*
X14409000Y-5400000D02*
X14499000Y-5400000D01*
X15196500Y-6355000D02*
X15196500Y-6445000D01*
X15151500Y-6400000D02*
X15241500Y-6400000D01*
X15196500Y-7355000D02*
X15196500Y-7445000D01*
X15151500Y-7400000D02*
X15241500Y-7400000D01*
X15196500Y-8355000D02*
X15196500Y-8445000D01*
X15151500Y-8400000D02*
X15241500Y-8400000D01*
X15196500Y-9355000D02*
X15196500Y-9445000D01*
X15151500Y-9400000D02*
X15241500Y-9400000D01*
X15196500Y-10355000D02*
X15196500Y-10445000D01*
X15151500Y-10400000D02*
X15241500Y-10400000D01*
X15196500Y-11355000D02*
X15196500Y-11445000D01*
X15151500Y-11400000D02*
X15241500Y-11400000D01*
X15196500Y-12355000D02*
X15196500Y-12445000D01*
X15151500Y-12400000D02*
X15241500Y-12400000D01*
X15200000Y-5355000D02*
X15200000Y-5445000D01*
X15155000Y-5400000D02*
X15245000Y-5400000D01*
X15450500Y-6355000D02*
X15450500Y-6445000D01*
X15405500Y-6400000D02*
X15495500Y-6400000D01*
X15450500Y-7355000D02*
X15450500Y-7445000D01*
X15405500Y-7400000D02*
X15495500Y-7400000D01*
X15450500Y-8355000D02*
X15450500Y-8445000D01*
X15405500Y-8400000D02*
X15495500Y-8400000D01*
X15450500Y-9355000D02*
X15450500Y-9445000D01*
X15405500Y-9400000D02*
X15495500Y-9400000D01*
X15450500Y-10355000D02*
X15450500Y-10445000D01*
X15405500Y-10400000D02*
X15495500Y-10400000D01*
X15450500Y-11355000D02*
X15450500Y-11445000D01*
X15405500Y-11400000D02*
X15495500Y-11400000D01*
X15450500Y-12355000D02*
X15450500Y-12445000D01*
X15405500Y-12400000D02*
X15495500Y-12400000D01*
X15454000Y-5355000D02*
X15454000Y-5445000D01*
X15409000Y-5400000D02*
X15499000Y-5400000D01*
X16196500Y-6355000D02*
X16196500Y-6445000D01*
X16151500Y-6400000D02*
X16241500Y-6400000D01*
X16196500Y-7355000D02*
X16196500Y-7445000D01*
X16151500Y-7400000D02*
X16241500Y-7400000D01*
X16196500Y-8355000D02*
X16196500Y-8445000D01*
X16151500Y-8400000D02*
X16241500Y-8400000D01*
X16196500Y-9355000D02*
X16196500Y-9445000D01*
X16151500Y-9400000D02*
X16241500Y-9400000D01*
X16196500Y-10355000D02*
X16196500Y-10445000D01*
X16151500Y-10400000D02*
X16241500Y-10400000D01*
X16196500Y-11355000D02*
X16196500Y-11445000D01*
X16151500Y-11400000D02*
X16241500Y-11400000D01*
X16196500Y-12355000D02*
X16196500Y-12445000D01*
X16151500Y-12400000D02*
X16241500Y-12400000D01*
X16200000Y-5355000D02*
X16200000Y-5445000D01*
X16155000Y-5400000D02*
X16245000Y-5400000D01*
X16450500Y-6355000D02*
X16450500Y-6445000D01*
X16405500Y-6400000D02*
X16495500Y-6400000D01*
X16450500Y-7355000D02*
X16450500Y-7445000D01*
X16405500Y-7400000D02*
X16495500Y-7400000D01*
X16450500Y-8355000D02*
X16450500Y-8445000D01*
X16405500Y-8400000D02*
X16495500Y-8400000D01*
X16450500Y-9355000D02*
X16450500Y-9445000D01*
X16405500Y-9400000D02*
X16495500Y-9400000D01*
X16450500Y-10355000D02*
X16450500Y-10445000D01*
X16405500Y-10400000D02*
X16495500Y-10400000D01*
X16450500Y-11355000D02*
X16450500Y-11445000D01*
X16405500Y-11400000D02*
X16495500Y-11400000D01*
X16450500Y-12355000D02*
X16450500Y-12445000D01*
X16405500Y-12400000D02*
X16495500Y-12400000D01*
X16454000Y-5355000D02*
X16454000Y-5445000D01*
X16409000Y-5400000D02*
X16499000Y-5400000D01*
X17196500Y-6355000D02*
X17196500Y-6445000D01*
X17151500Y-6400000D02*
X17241500Y-6400000D01*
X17196500Y-7355000D02*
X17196500Y-7445000D01*
X17151500Y-7400000D02*
X17241500Y-7400000D01*
X17196500Y-8355000D02*
X17196500Y-8445000D01*
X17151500Y-8400000D02*
X17241500Y-8400000D01*
X17196500Y-9355000D02*
X17196500Y-9445000D01*
X17151500Y-9400000D02*
X17241500Y-9400000D01*
X17196500Y-10355000D02*
X17196500Y-10445000D01*
X17151500Y-10400000D02*
X17241500Y-10400000D01*
X17196500Y-11355000D02*
X17196500Y-11445000D01*
X17151500Y-11400000D02*
X17241500Y-11400000D01*
X17196500Y-12355000D02*
X17196500Y-12445000D01*
X17151500Y-12400000D02*
X17241500Y-12400000D01*
X17200000Y-5355000D02*
X17200000Y-5445000D01*
X17155000Y-5400000D02*
X17245000Y-5400000D01*
X17450500Y-6355000D02*
X17450500Y-6445000D01*
X17405500Y-6400000D02*
X17495500Y-6400000D01*
X17450500Y-7355000D02*
X17450500Y-7445000D01*
X17405500Y-7400000D02*
X17495500Y-7400000D01*
X17450500Y-8355000D02*
X17450500Y-8445000D01*
X17405500Y-8400000D02*
X17495500Y-8400000D01*
X17450500Y-9355000D02*
X17450500Y-9445000D01*
X17405500Y-9400000D02*
X17495500Y-9400000D01*
X17450500Y-10355000D02*
X17450500Y-10445000D01*
X17405500Y-10400000D02*
X17495500Y-10400000D01*
X17450500Y-11355000D02*
X17450500Y-11445000D01*
X17405500Y-11400000D02*
X17495500Y-11400000D01*
X17450500Y-12355000D02*
X17450500Y-12445000D01*
X17405500Y-12400000D02*
X17495500Y-12400000D01*
X17454000Y-5355000D02*
X17454000Y-5445000D01*
X17409000Y-5400000D02*
X17499000Y-5400000D01*
X18196500Y-6355000D02*
X18196500Y-6445000D01*
X18151500Y-6400000D02*
X18241500Y-6400000D01*
X18196500Y-7355000D02*
X18196500Y-7445000D01*
X18151500Y-7400000D02*
X18241500Y-7400000D01*
X18196500Y-8355000D02*
X18196500Y-8445000D01*
X18151500Y-8400000D02*
X18241500Y-8400000D01*
X18196500Y-9355000D02*
X18196500Y-9445000D01*
X18151500Y-9400000D02*
X18241500Y-9400000D01*
X18196500Y-10355000D02*
X18196500Y-10445000D01*
X18151500Y-10400000D02*
X18241500Y-10400000D01*
X18196500Y-11355000D02*
X18196500Y-11445000D01*
X18151500Y-11400000D02*
X18241500Y-11400000D01*
X18196500Y-12355000D02*
X18196500Y-12445000D01*
X18151500Y-12400000D02*
X18241500Y-12400000D01*
X18200000Y-5355000D02*
X18200000Y-5445000D01*
X18155000Y-5400000D02*
X18245000Y-5400000D01*
X18450500Y-6355000D02*
X18450500Y-6445000D01*
X18405500Y-6400000D02*
X18495500Y-6400000D01*
X18450500Y-7355000D02*
X18450500Y-7445000D01*
X18405500Y-7400000D02*
X18495500Y-7400000D01*
X18450500Y-8355000D02*
X18450500Y-8445000D01*
X18405500Y-8400000D02*
X18495500Y-8400000D01*
X18450500Y-9355000D02*
X18450500Y-9445000D01*
X18405500Y-9400000D02*
X18495500Y-9400000D01*
X18450500Y-10355000D02*
X18450500Y-10445000D01*
X18405500Y-10400000D02*
X18495500Y-10400000D01*
X18450500Y-11355000D02*
X18450500Y-11445000D01*
X18405500Y-11400000D02*
X18495500Y-11400000D01*
X18450500Y-12355000D02*
X18450500Y-12445000D01*
X18405500Y-12400000D02*
X18495500Y-12400000D01*
X18454000Y-5355000D02*
X18454000Y-5445000D01*
X18409000Y-5400000D02*
X18499000Y-5400000D01*
X19196500Y-6355000D02*
X19196500Y-6445000D01*
X19151500Y-6400000D02*
X19241500Y-6400000D01*
X19196500Y-7355000D02*
X19196500Y-7445000D01*
X19151500Y-7400000D02*
X19241500Y-7400000D01*
X19196500Y-8355000D02*
X19196500Y-8445000D01*
X19151500Y-8400000D02*
X19241500Y-8400000D01*
X19196500Y-9355000D02*
X19196500Y-9445000D01*
X19151500Y-9400000D02*
X19241500Y-9400000D01*
X19196500Y-10355000D02*
X19196500Y-10445000D01*
X19151500Y-10400000D02*
X19241500Y-10400000D01*
X19196500Y-11355000D02*
X19196500Y-11445000D01*
X19151500Y-11400000D02*
X19241500Y-11400000D01*
X19196500Y-12355000D02*
X19196500Y-12445000D01*
X19151500Y-12400000D02*
X19241500Y-12400000D01*
X19200000Y-5355000D02*
X19200000Y-5445000D01*
X19155000Y-5400000D02*
X19245000Y-5400000D01*
X19450500Y-6355000D02*
X19450500Y-6445000D01*
X19405500Y-6400000D02*
X19495500Y-6400000D01*
X19450500Y-7355000D02*
X19450500Y-7445000D01*
X19405500Y-7400000D02*
X19495500Y-7400000D01*
X19450500Y-8355000D02*
X19450500Y-8445000D01*
X19405500Y-8400000D02*
X19495500Y-8400000D01*
X19450500Y-9355000D02*
X19450500Y-9445000D01*
X19405500Y-9400000D02*
X19495500Y-9400000D01*
X19450500Y-10355000D02*
X19450500Y-10445000D01*
X19405500Y-10400000D02*
X19495500Y-10400000D01*
X19450500Y-11355000D02*
X19450500Y-11445000D01*
X19405500Y-11400000D02*
X19495500Y-11400000D01*
X19450500Y-12355000D02*
X19450500Y-12445000D01*
X19405500Y-12400000D02*
X19495500Y-12400000D01*
X19454000Y-5355000D02*
X19454000Y-5445000D01*
X19409000Y-5400000D02*
X19499000Y-5400000D01*
D10*
X11035356Y-6673356D02*
X11035356Y-6602644D01*
X10964644Y-6602644D01*
X10964644Y-6673356D01*
X11035356Y-6673356D01*
X11035356Y-6950356D02*
X11035356Y-6879644D01*
X10964644Y-6879644D01*
X10964644Y-6950356D01*
X11035356Y-6950356D01*
X11035356Y-7227356D02*
X11035356Y-7156644D01*
X10964644Y-7156644D01*
X10964644Y-7227356D01*
X11035356Y-7227356D01*
X11035356Y-7504356D02*
X11035356Y-7433644D01*
X10964644Y-7433644D01*
X10964644Y-7504356D01*
X11035356Y-7504356D01*
X11035356Y-7781356D02*
X11035356Y-7710644D01*
X10964644Y-7710644D01*
X10964644Y-7781356D01*
X11035356Y-7781356D01*
X11035356Y-8058356D02*
X11035356Y-7987644D01*
X10964644Y-7987644D01*
X10964644Y-8058356D01*
X11035356Y-8058356D01*
X11035356Y-8335356D02*
X11035356Y-8264644D01*
X10964644Y-8264644D01*
X10964644Y-8335356D01*
X11035356Y-8335356D01*
X11035356Y-8612356D02*
X11035356Y-8541644D01*
X10964644Y-8541644D01*
X10964644Y-8612356D01*
X11035356Y-8612356D01*
X11035356Y-8889356D02*
X11035356Y-8818644D01*
X10964644Y-8818644D01*
X10964644Y-8889356D01*
X11035356Y-8889356D01*
X11035356Y-9166356D02*
X11035356Y-9095644D01*
X10964644Y-9095644D01*
X10964644Y-9166356D01*
X11035356Y-9166356D01*
X11035356Y-9443356D02*
X11035356Y-9372644D01*
X10964644Y-9372644D01*
X10964644Y-9443356D01*
X11035356Y-9443356D01*
X11035356Y-9720356D02*
X11035356Y-9649644D01*
X10964644Y-9649644D01*
X10964644Y-9720356D01*
X11035356Y-9720356D01*
X11035356Y-9997356D02*
X11035356Y-9926644D01*
X10964644Y-9926644D01*
X10964644Y-9997356D01*
X11035356Y-9997356D01*
X11035356Y-10274356D02*
X11035356Y-10203644D01*
X10964644Y-10203644D01*
X10964644Y-10274356D01*
X11035356Y-10274356D01*
X11035356Y-10551356D02*
X11035356Y-10480644D01*
X10964644Y-10480644D01*
X10964644Y-10551356D01*
X11035356Y-10551356D01*
X11035356Y-10828356D02*
X11035356Y-10757644D01*
X10964644Y-10757644D01*
X10964644Y-10828356D01*
X11035356Y-10828356D01*
X11035356Y-11105356D02*
X11035356Y-11034644D01*
X10964644Y-11034644D01*
X10964644Y-11105356D01*
X11035356Y-11105356D01*
X11035356Y-11382356D02*
X11035356Y-11311644D01*
X10964644Y-11311644D01*
X10964644Y-11382356D01*
X11035356Y-11382356D01*
X11319356Y-6534856D02*
X11319356Y-6464144D01*
X11248644Y-6464144D01*
X11248644Y-6534856D01*
X11319356Y-6534856D01*
X11319356Y-6811856D02*
X11319356Y-6741144D01*
X11248644Y-6741144D01*
X11248644Y-6811856D01*
X11319356Y-6811856D01*
X11319356Y-7088856D02*
X11319356Y-7018144D01*
X11248644Y-7018144D01*
X11248644Y-7088856D01*
X11319356Y-7088856D01*
X11319356Y-7365856D02*
X11319356Y-7295144D01*
X11248644Y-7295144D01*
X11248644Y-7365856D01*
X11319356Y-7365856D01*
X11319356Y-7642856D02*
X11319356Y-7572144D01*
X11248644Y-7572144D01*
X11248644Y-7642856D01*
X11319356Y-7642856D01*
X11319356Y-7919856D02*
X11319356Y-7849144D01*
X11248644Y-7849144D01*
X11248644Y-7919856D01*
X11319356Y-7919856D01*
X11319356Y-8196856D02*
X11319356Y-8126144D01*
X11248644Y-8126144D01*
X11248644Y-8196856D01*
X11319356Y-8196856D01*
X11319356Y-8473856D02*
X11319356Y-8403144D01*
X11248644Y-8403144D01*
X11248644Y-8473856D01*
X11319356Y-8473856D01*
X11319356Y-8750856D02*
X11319356Y-8680144D01*
X11248644Y-8680144D01*
X11248644Y-8750856D01*
X11319356Y-8750856D01*
X11319356Y-9027856D02*
X11319356Y-8957144D01*
X11248644Y-8957144D01*
X11248644Y-9027856D01*
X11319356Y-9027856D01*
X11319356Y-9304856D02*
X11319356Y-9234144D01*
X11248644Y-9234144D01*
X11248644Y-9304856D01*
X11319356Y-9304856D01*
X11319356Y-9581856D02*
X11319356Y-9511144D01*
X11248644Y-9511144D01*
X11248644Y-9581856D01*
X11319356Y-9581856D01*
X11319356Y-9858856D02*
X11319356Y-9788144D01*
X11248644Y-9788144D01*
X11248644Y-9858856D01*
X11319356Y-9858856D01*
X11319356Y-10135856D02*
X11319356Y-10065144D01*
X11248644Y-10065144D01*
X11248644Y-10135856D01*
X11319356Y-10135856D01*
X11319356Y-10412856D02*
X11319356Y-10342144D01*
X11248644Y-10342144D01*
X11248644Y-10412856D01*
X11319356Y-10412856D01*
X11319356Y-10689856D02*
X11319356Y-10619144D01*
X11248644Y-10619144D01*
X11248644Y-10689856D01*
X11319356Y-10689856D01*
X11319356Y-10966856D02*
X11319356Y-10896144D01*
X11248644Y-10896144D01*
X11248644Y-10966856D01*
X11319356Y-10966856D01*
X11319356Y-11243856D02*
X11319356Y-11173144D01*
X11248644Y-11173144D01*
X11248644Y-11243856D01*
X11319356Y-11243856D01*
X11319356Y-11520856D02*
X11319356Y-11450144D01*
X11248644Y-11450144D01*
X11248644Y-11520856D01*
X11319356Y-11520856D01*
D15*
X11142000Y-5977500D02*
X11302000Y-5817500D01*
X11142000Y-5657500D01*
X10982000Y-5817500D01*
X11142000Y-5977500D01*
X11142000Y-12327500D02*
X11302000Y-12167500D01*
X11142000Y-12007500D01*
X10982000Y-12167500D01*
X11142000Y-12327500D01*
D11*
X10255777Y-14316484D02*
X10255777Y-14116484D01*
X10255777Y-14116484D02*
X10303396Y-14116484D01*
X10303396Y-14116484D02*
X10331967Y-14126008D01*
X10331967Y-14126008D02*
X10351015Y-14145055D01*
X10351015Y-14145055D02*
X10360539Y-14164103D01*
X10360539Y-14164103D02*
X10370063Y-14202198D01*
X10370063Y-14202198D02*
X10370063Y-14230769D01*
X10370063Y-14230769D02*
X10360539Y-14268865D01*
X10360539Y-14268865D02*
X10351015Y-14287912D01*
X10351015Y-14287912D02*
X10331967Y-14306960D01*
X10331967Y-14306960D02*
X10303396Y-14316484D01*
X10303396Y-14316484D02*
X10255777Y-14316484D01*
X10455777Y-14316484D02*
X10455777Y-14183150D01*
X10455777Y-14221246D02*
X10465301Y-14202198D01*
X10465301Y-14202198D02*
X10474824Y-14192674D01*
X10474824Y-14192674D02*
X10493872Y-14183150D01*
X10493872Y-14183150D02*
X10512920Y-14183150D01*
X10579586Y-14316484D02*
X10579586Y-14183150D01*
X10579586Y-14116484D02*
X10570063Y-14126008D01*
X10570063Y-14126008D02*
X10579586Y-14135531D01*
X10579586Y-14135531D02*
X10589110Y-14126008D01*
X10589110Y-14126008D02*
X10579586Y-14116484D01*
X10579586Y-14116484D02*
X10579586Y-14135531D01*
X10703396Y-14316484D02*
X10684348Y-14306960D01*
X10684348Y-14306960D02*
X10674824Y-14287912D01*
X10674824Y-14287912D02*
X10674824Y-14116484D01*
X10808158Y-14316484D02*
X10789110Y-14306960D01*
X10789110Y-14306960D02*
X10779586Y-14287912D01*
X10779586Y-14287912D02*
X10779586Y-14116484D01*
X11036729Y-14316484D02*
X11036729Y-14116484D01*
X11036729Y-14116484D02*
X11103396Y-14259341D01*
X11103396Y-14259341D02*
X11170063Y-14116484D01*
X11170063Y-14116484D02*
X11170063Y-14316484D01*
X11351015Y-14316484D02*
X11351015Y-14211722D01*
X11351015Y-14211722D02*
X11341491Y-14192674D01*
X11341491Y-14192674D02*
X11322443Y-14183150D01*
X11322443Y-14183150D02*
X11284348Y-14183150D01*
X11284348Y-14183150D02*
X11265301Y-14192674D01*
X11351015Y-14306960D02*
X11331967Y-14316484D01*
X11331967Y-14316484D02*
X11284348Y-14316484D01*
X11284348Y-14316484D02*
X11265301Y-14306960D01*
X11265301Y-14306960D02*
X11255777Y-14287912D01*
X11255777Y-14287912D02*
X11255777Y-14268865D01*
X11255777Y-14268865D02*
X11265301Y-14249817D01*
X11265301Y-14249817D02*
X11284348Y-14240293D01*
X11284348Y-14240293D02*
X11331967Y-14240293D01*
X11331967Y-14240293D02*
X11351015Y-14230769D01*
X11446253Y-14183150D02*
X11446253Y-14383150D01*
X11446253Y-14192674D02*
X11465301Y-14183150D01*
X11465301Y-14183150D02*
X11503396Y-14183150D01*
X11503396Y-14183150D02*
X11522443Y-14192674D01*
X11522443Y-14192674D02*
X11531967Y-14202198D01*
X11531967Y-14202198D02*
X11541491Y-14221246D01*
X11541491Y-14221246D02*
X11541491Y-14278388D01*
X11541491Y-14278388D02*
X11531967Y-14297436D01*
X11531967Y-14297436D02*
X11522443Y-14306960D01*
X11522443Y-14306960D02*
X11503396Y-14316484D01*
X11503396Y-14316484D02*
X11465301Y-14316484D01*
X11465301Y-14316484D02*
X11446253Y-14306960D01*
X11627205Y-14297436D02*
X11636729Y-14306960D01*
X11636729Y-14306960D02*
X11627205Y-14316484D01*
X11627205Y-14316484D02*
X11617682Y-14306960D01*
X11617682Y-14306960D02*
X11627205Y-14297436D01*
X11627205Y-14297436D02*
X11627205Y-14316484D01*
X11627205Y-14192674D02*
X11636729Y-14202198D01*
X11636729Y-14202198D02*
X11627205Y-14211722D01*
X11627205Y-14211722D02*
X11617682Y-14202198D01*
X11617682Y-14202198D02*
X11627205Y-14192674D01*
X11627205Y-14192674D02*
X11627205Y-14211722D01*
D12*
X9955000Y-14625000D02*
X9995000Y-14665000D01*
X9995000Y-14625000D02*
X9955000Y-14665000D01*
D11*
X10293872Y-14536484D02*
X10312920Y-14536484D01*
X10312920Y-14536484D02*
X10331967Y-14546008D01*
X10331967Y-14546008D02*
X10341491Y-14555531D01*
X10341491Y-14555531D02*
X10351015Y-14574579D01*
X10351015Y-14574579D02*
X10360539Y-14612674D01*
X10360539Y-14612674D02*
X10360539Y-14660293D01*
X10360539Y-14660293D02*
X10351015Y-14698388D01*
X10351015Y-14698388D02*
X10341491Y-14717436D01*
X10341491Y-14717436D02*
X10331967Y-14726960D01*
X10331967Y-14726960D02*
X10312920Y-14736484D01*
X10312920Y-14736484D02*
X10293872Y-14736484D01*
X10293872Y-14736484D02*
X10274824Y-14726960D01*
X10274824Y-14726960D02*
X10265301Y-14717436D01*
X10265301Y-14717436D02*
X10255777Y-14698388D01*
X10255777Y-14698388D02*
X10246253Y-14660293D01*
X10246253Y-14660293D02*
X10246253Y-14612674D01*
X10246253Y-14612674D02*
X10255777Y-14574579D01*
X10255777Y-14574579D02*
X10265301Y-14555531D01*
X10265301Y-14555531D02*
X10274824Y-14546008D01*
X10274824Y-14546008D02*
X10293872Y-14536484D01*
X10446253Y-14717436D02*
X10455777Y-14726960D01*
X10455777Y-14726960D02*
X10446253Y-14736484D01*
X10446253Y-14736484D02*
X10436729Y-14726960D01*
X10436729Y-14726960D02*
X10446253Y-14717436D01*
X10446253Y-14717436D02*
X10446253Y-14736484D01*
X10627205Y-14603150D02*
X10627205Y-14736484D01*
X10579586Y-14526960D02*
X10531967Y-14669817D01*
X10531967Y-14669817D02*
X10655777Y-14669817D01*
X10770063Y-14536484D02*
X10789110Y-14536484D01*
X10789110Y-14536484D02*
X10808158Y-14546008D01*
X10808158Y-14546008D02*
X10817682Y-14555531D01*
X10817682Y-14555531D02*
X10827205Y-14574579D01*
X10827205Y-14574579D02*
X10836729Y-14612674D01*
X10836729Y-14612674D02*
X10836729Y-14660293D01*
X10836729Y-14660293D02*
X10827205Y-14698388D01*
X10827205Y-14698388D02*
X10817682Y-14717436D01*
X10817682Y-14717436D02*
X10808158Y-14726960D01*
X10808158Y-14726960D02*
X10789110Y-14736484D01*
X10789110Y-14736484D02*
X10770063Y-14736484D01*
X10770063Y-14736484D02*
X10751015Y-14726960D01*
X10751015Y-14726960D02*
X10741491Y-14717436D01*
X10741491Y-14717436D02*
X10731967Y-14698388D01*
X10731967Y-14698388D02*
X10722444Y-14660293D01*
X10722444Y-14660293D02*
X10722444Y-14612674D01*
X10722444Y-14612674D02*
X10731967Y-14574579D01*
X10731967Y-14574579D02*
X10741491Y-14555531D01*
X10741491Y-14555531D02*
X10751015Y-14546008D01*
X10751015Y-14546008D02*
X10770063Y-14536484D01*
X10960539Y-14536484D02*
X10979586Y-14536484D01*
X10979586Y-14536484D02*
X10998634Y-14546008D01*
X10998634Y-14546008D02*
X11008158Y-14555531D01*
X11008158Y-14555531D02*
X11017682Y-14574579D01*
X11017682Y-14574579D02*
X11027205Y-14612674D01*
X11027205Y-14612674D02*
X11027205Y-14660293D01*
X11027205Y-14660293D02*
X11017682Y-14698388D01*
X11017682Y-14698388D02*
X11008158Y-14717436D01*
X11008158Y-14717436D02*
X10998634Y-14726960D01*
X10998634Y-14726960D02*
X10979586Y-14736484D01*
X10979586Y-14736484D02*
X10960539Y-14736484D01*
X10960539Y-14736484D02*
X10941491Y-14726960D01*
X10941491Y-14726960D02*
X10931967Y-14717436D01*
X10931967Y-14717436D02*
X10922444Y-14698388D01*
X10922444Y-14698388D02*
X10912920Y-14660293D01*
X10912920Y-14660293D02*
X10912920Y-14612674D01*
X10912920Y-14612674D02*
X10922444Y-14574579D01*
X10922444Y-14574579D02*
X10931967Y-14555531D01*
X10931967Y-14555531D02*
X10941491Y-14546008D01*
X10941491Y-14546008D02*
X10960539Y-14536484D01*
X11112920Y-14736484D02*
X11112920Y-14603150D01*
X11112920Y-14622198D02*
X11122444Y-14612674D01*
X11122444Y-14612674D02*
X11141491Y-14603150D01*
X11141491Y-14603150D02*
X11170063Y-14603150D01*
X11170063Y-14603150D02*
X11189110Y-14612674D01*
X11189110Y-14612674D02*
X11198634Y-14631722D01*
X11198634Y-14631722D02*
X11198634Y-14736484D01*
X11198634Y-14631722D02*
X11208158Y-14612674D01*
X11208158Y-14612674D02*
X11227205Y-14603150D01*
X11227205Y-14603150D02*
X11255777Y-14603150D01*
X11255777Y-14603150D02*
X11274824Y-14612674D01*
X11274824Y-14612674D02*
X11284348Y-14631722D01*
X11284348Y-14631722D02*
X11284348Y-14736484D01*
X11379586Y-14736484D02*
X11379586Y-14603150D01*
X11379586Y-14622198D02*
X11389110Y-14612674D01*
X11389110Y-14612674D02*
X11408158Y-14603150D01*
X11408158Y-14603150D02*
X11436729Y-14603150D01*
X11436729Y-14603150D02*
X11455777Y-14612674D01*
X11455777Y-14612674D02*
X11465301Y-14631722D01*
X11465301Y-14631722D02*
X11465301Y-14736484D01*
X11465301Y-14631722D02*
X11474824Y-14612674D01*
X11474824Y-14612674D02*
X11493872Y-14603150D01*
X11493872Y-14603150D02*
X11522443Y-14603150D01*
X11522443Y-14603150D02*
X11541491Y-14612674D01*
X11541491Y-14612674D02*
X11551015Y-14631722D01*
X11551015Y-14631722D02*
X11551015Y-14736484D01*
X11941491Y-14526960D02*
X11770063Y-14784103D01*
X12198634Y-14536484D02*
X12217682Y-14536484D01*
X12217682Y-14536484D02*
X12236729Y-14546008D01*
X12236729Y-14546008D02*
X12246253Y-14555531D01*
X12246253Y-14555531D02*
X12255777Y-14574579D01*
X12255777Y-14574579D02*
X12265301Y-14612674D01*
X12265301Y-14612674D02*
X12265301Y-14660293D01*
X12265301Y-14660293D02*
X12255777Y-14698388D01*
X12255777Y-14698388D02*
X12246253Y-14717436D01*
X12246253Y-14717436D02*
X12236729Y-14726960D01*
X12236729Y-14726960D02*
X12217682Y-14736484D01*
X12217682Y-14736484D02*
X12198634Y-14736484D01*
X12198634Y-14736484D02*
X12179586Y-14726960D01*
X12179586Y-14726960D02*
X12170063Y-14717436D01*
X12170063Y-14717436D02*
X12160539Y-14698388D01*
X12160539Y-14698388D02*
X12151015Y-14660293D01*
X12151015Y-14660293D02*
X12151015Y-14612674D01*
X12151015Y-14612674D02*
X12160539Y-14574579D01*
X12160539Y-14574579D02*
X12170063Y-14555531D01*
X12170063Y-14555531D02*
X12179586Y-14546008D01*
X12179586Y-14546008D02*
X12198634Y-14536484D01*
X12351015Y-14717436D02*
X12360539Y-14726960D01*
X12360539Y-14726960D02*
X12351015Y-14736484D01*
X12351015Y-14736484D02*
X12341491Y-14726960D01*
X12341491Y-14726960D02*
X12351015Y-14717436D01*
X12351015Y-14717436D02*
X12351015Y-14736484D01*
X12484348Y-14536484D02*
X12503396Y-14536484D01*
X12503396Y-14536484D02*
X12522444Y-14546008D01*
X12522444Y-14546008D02*
X12531967Y-14555531D01*
X12531967Y-14555531D02*
X12541491Y-14574579D01*
X12541491Y-14574579D02*
X12551015Y-14612674D01*
X12551015Y-14612674D02*
X12551015Y-14660293D01*
X12551015Y-14660293D02*
X12541491Y-14698388D01*
X12541491Y-14698388D02*
X12531967Y-14717436D01*
X12531967Y-14717436D02*
X12522444Y-14726960D01*
X12522444Y-14726960D02*
X12503396Y-14736484D01*
X12503396Y-14736484D02*
X12484348Y-14736484D01*
X12484348Y-14736484D02*
X12465301Y-14726960D01*
X12465301Y-14726960D02*
X12455777Y-14717436D01*
X12455777Y-14717436D02*
X12446253Y-14698388D01*
X12446253Y-14698388D02*
X12436729Y-14660293D01*
X12436729Y-14660293D02*
X12436729Y-14612674D01*
X12436729Y-14612674D02*
X12446253Y-14574579D01*
X12446253Y-14574579D02*
X12455777Y-14555531D01*
X12455777Y-14555531D02*
X12465301Y-14546008D01*
X12465301Y-14546008D02*
X12484348Y-14536484D01*
X12741491Y-14736484D02*
X12627206Y-14736484D01*
X12684348Y-14736484D02*
X12684348Y-14536484D01*
X12684348Y-14536484D02*
X12665301Y-14565055D01*
X12665301Y-14565055D02*
X12646253Y-14584103D01*
X12646253Y-14584103D02*
X12627206Y-14593627D01*
X12922444Y-14536484D02*
X12827206Y-14536484D01*
X12827206Y-14536484D02*
X12817682Y-14631722D01*
X12817682Y-14631722D02*
X12827206Y-14622198D01*
X12827206Y-14622198D02*
X12846253Y-14612674D01*
X12846253Y-14612674D02*
X12893872Y-14612674D01*
X12893872Y-14612674D02*
X12912920Y-14622198D01*
X12912920Y-14622198D02*
X12922444Y-14631722D01*
X12922444Y-14631722D02*
X12931967Y-14650769D01*
X12931967Y-14650769D02*
X12931967Y-14698388D01*
X12931967Y-14698388D02*
X12922444Y-14717436D01*
X12922444Y-14717436D02*
X12912920Y-14726960D01*
X12912920Y-14726960D02*
X12893872Y-14736484D01*
X12893872Y-14736484D02*
X12846253Y-14736484D01*
X12846253Y-14736484D02*
X12827206Y-14726960D01*
X12827206Y-14726960D02*
X12817682Y-14717436D01*
X12998634Y-14536484D02*
X13131967Y-14536484D01*
X13131967Y-14536484D02*
X13046253Y-14736484D01*
X13198634Y-14536484D02*
X13198634Y-14574579D01*
X13274825Y-14536484D02*
X13274825Y-14574579D01*
X13570063Y-14812674D02*
X13560539Y-14803150D01*
X13560539Y-14803150D02*
X13541491Y-14774579D01*
X13541491Y-14774579D02*
X13531968Y-14755531D01*
X13531968Y-14755531D02*
X13522444Y-14726960D01*
X13522444Y-14726960D02*
X13512920Y-14679341D01*
X13512920Y-14679341D02*
X13512920Y-14641246D01*
X13512920Y-14641246D02*
X13522444Y-14593627D01*
X13522444Y-14593627D02*
X13531968Y-14565055D01*
X13531968Y-14565055D02*
X13541491Y-14546008D01*
X13541491Y-14546008D02*
X13560539Y-14517436D01*
X13560539Y-14517436D02*
X13570063Y-14507912D01*
X13751015Y-14736484D02*
X13636729Y-14736484D01*
X13693872Y-14736484D02*
X13693872Y-14536484D01*
X13693872Y-14536484D02*
X13674825Y-14565055D01*
X13674825Y-14565055D02*
X13655777Y-14584103D01*
X13655777Y-14584103D02*
X13636729Y-14593627D01*
X13922444Y-14603150D02*
X13922444Y-14736484D01*
X13874825Y-14526960D02*
X13827206Y-14669817D01*
X13827206Y-14669817D02*
X13951015Y-14669817D01*
X14008158Y-14536484D02*
X14131968Y-14536484D01*
X14131968Y-14536484D02*
X14065301Y-14612674D01*
X14065301Y-14612674D02*
X14093872Y-14612674D01*
X14093872Y-14612674D02*
X14112920Y-14622198D01*
X14112920Y-14622198D02*
X14122444Y-14631722D01*
X14122444Y-14631722D02*
X14131968Y-14650769D01*
X14131968Y-14650769D02*
X14131968Y-14698388D01*
X14131968Y-14698388D02*
X14122444Y-14717436D01*
X14122444Y-14717436D02*
X14112920Y-14726960D01*
X14112920Y-14726960D02*
X14093872Y-14736484D01*
X14093872Y-14736484D02*
X14036729Y-14736484D01*
X14036729Y-14736484D02*
X14017682Y-14726960D01*
X14017682Y-14726960D02*
X14008158Y-14717436D01*
X14370063Y-14736484D02*
X14370063Y-14536484D01*
X14455777Y-14736484D02*
X14455777Y-14631722D01*
X14455777Y-14631722D02*
X14446253Y-14612674D01*
X14446253Y-14612674D02*
X14427206Y-14603150D01*
X14427206Y-14603150D02*
X14398634Y-14603150D01*
X14398634Y-14603150D02*
X14379587Y-14612674D01*
X14379587Y-14612674D02*
X14370063Y-14622198D01*
X14579587Y-14736484D02*
X14560539Y-14726960D01*
X14560539Y-14726960D02*
X14551015Y-14717436D01*
X14551015Y-14717436D02*
X14541491Y-14698388D01*
X14541491Y-14698388D02*
X14541491Y-14641246D01*
X14541491Y-14641246D02*
X14551015Y-14622198D01*
X14551015Y-14622198D02*
X14560539Y-14612674D01*
X14560539Y-14612674D02*
X14579587Y-14603150D01*
X14579587Y-14603150D02*
X14608158Y-14603150D01*
X14608158Y-14603150D02*
X14627206Y-14612674D01*
X14627206Y-14612674D02*
X14636730Y-14622198D01*
X14636730Y-14622198D02*
X14646253Y-14641246D01*
X14646253Y-14641246D02*
X14646253Y-14698388D01*
X14646253Y-14698388D02*
X14636730Y-14717436D01*
X14636730Y-14717436D02*
X14627206Y-14726960D01*
X14627206Y-14726960D02*
X14608158Y-14736484D01*
X14608158Y-14736484D02*
X14579587Y-14736484D01*
X14760539Y-14736484D02*
X14741491Y-14726960D01*
X14741491Y-14726960D02*
X14731968Y-14707912D01*
X14731968Y-14707912D02*
X14731968Y-14536484D01*
X14912920Y-14726960D02*
X14893872Y-14736484D01*
X14893872Y-14736484D02*
X14855777Y-14736484D01*
X14855777Y-14736484D02*
X14836730Y-14726960D01*
X14836730Y-14726960D02*
X14827206Y-14707912D01*
X14827206Y-14707912D02*
X14827206Y-14631722D01*
X14827206Y-14631722D02*
X14836730Y-14612674D01*
X14836730Y-14612674D02*
X14855777Y-14603150D01*
X14855777Y-14603150D02*
X14893872Y-14603150D01*
X14893872Y-14603150D02*
X14912920Y-14612674D01*
X14912920Y-14612674D02*
X14922444Y-14631722D01*
X14922444Y-14631722D02*
X14922444Y-14650769D01*
X14922444Y-14650769D02*
X14827206Y-14669817D01*
X14998634Y-14726960D02*
X15017682Y-14736484D01*
X15017682Y-14736484D02*
X15055777Y-14736484D01*
X15055777Y-14736484D02*
X15074825Y-14726960D01*
X15074825Y-14726960D02*
X15084349Y-14707912D01*
X15084349Y-14707912D02*
X15084349Y-14698388D01*
X15084349Y-14698388D02*
X15074825Y-14679341D01*
X15074825Y-14679341D02*
X15055777Y-14669817D01*
X15055777Y-14669817D02*
X15027206Y-14669817D01*
X15027206Y-14669817D02*
X15008158Y-14660293D01*
X15008158Y-14660293D02*
X14998634Y-14641246D01*
X14998634Y-14641246D02*
X14998634Y-14631722D01*
X14998634Y-14631722D02*
X15008158Y-14612674D01*
X15008158Y-14612674D02*
X15027206Y-14603150D01*
X15027206Y-14603150D02*
X15055777Y-14603150D01*
X15055777Y-14603150D02*
X15074825Y-14612674D01*
X15151015Y-14812674D02*
X15160539Y-14803150D01*
X15160539Y-14803150D02*
X15179587Y-14774579D01*
X15179587Y-14774579D02*
X15189111Y-14755531D01*
X15189111Y-14755531D02*
X15198634Y-14726960D01*
X15198634Y-14726960D02*
X15208158Y-14679341D01*
X15208158Y-14679341D02*
X15208158Y-14641246D01*
X15208158Y-14641246D02*
X15198634Y-14593627D01*
X15198634Y-14593627D02*
X15189111Y-14565055D01*
X15189111Y-14565055D02*
X15179587Y-14546008D01*
X15179587Y-14546008D02*
X15160539Y-14517436D01*
X15160539Y-14517436D02*
X15151015Y-14507912D01*
D13*
X9995000Y-14909000D02*
G75*
G03*
X9995000Y-14909000I-40000J0D01*
G01*
D11*
X10293872Y-14800484D02*
X10312920Y-14800484D01*
X10312920Y-14800484D02*
X10331967Y-14810008D01*
X10331967Y-14810008D02*
X10341491Y-14819531D01*
X10341491Y-14819531D02*
X10351015Y-14838579D01*
X10351015Y-14838579D02*
X10360539Y-14876674D01*
X10360539Y-14876674D02*
X10360539Y-14924293D01*
X10360539Y-14924293D02*
X10351015Y-14962388D01*
X10351015Y-14962388D02*
X10341491Y-14981436D01*
X10341491Y-14981436D02*
X10331967Y-14990960D01*
X10331967Y-14990960D02*
X10312920Y-15000484D01*
X10312920Y-15000484D02*
X10293872Y-15000484D01*
X10293872Y-15000484D02*
X10274824Y-14990960D01*
X10274824Y-14990960D02*
X10265301Y-14981436D01*
X10265301Y-14981436D02*
X10255777Y-14962388D01*
X10255777Y-14962388D02*
X10246253Y-14924293D01*
X10246253Y-14924293D02*
X10246253Y-14876674D01*
X10246253Y-14876674D02*
X10255777Y-14838579D01*
X10255777Y-14838579D02*
X10265301Y-14819531D01*
X10265301Y-14819531D02*
X10274824Y-14810008D01*
X10274824Y-14810008D02*
X10293872Y-14800484D01*
X10446253Y-14981436D02*
X10455777Y-14990960D01*
X10455777Y-14990960D02*
X10446253Y-15000484D01*
X10446253Y-15000484D02*
X10436729Y-14990960D01*
X10436729Y-14990960D02*
X10446253Y-14981436D01*
X10446253Y-14981436D02*
X10446253Y-15000484D01*
X10570063Y-14886198D02*
X10551015Y-14876674D01*
X10551015Y-14876674D02*
X10541491Y-14867150D01*
X10541491Y-14867150D02*
X10531967Y-14848103D01*
X10531967Y-14848103D02*
X10531967Y-14838579D01*
X10531967Y-14838579D02*
X10541491Y-14819531D01*
X10541491Y-14819531D02*
X10551015Y-14810008D01*
X10551015Y-14810008D02*
X10570063Y-14800484D01*
X10570063Y-14800484D02*
X10608158Y-14800484D01*
X10608158Y-14800484D02*
X10627205Y-14810008D01*
X10627205Y-14810008D02*
X10636729Y-14819531D01*
X10636729Y-14819531D02*
X10646253Y-14838579D01*
X10646253Y-14838579D02*
X10646253Y-14848103D01*
X10646253Y-14848103D02*
X10636729Y-14867150D01*
X10636729Y-14867150D02*
X10627205Y-14876674D01*
X10627205Y-14876674D02*
X10608158Y-14886198D01*
X10608158Y-14886198D02*
X10570063Y-14886198D01*
X10570063Y-14886198D02*
X10551015Y-14895722D01*
X10551015Y-14895722D02*
X10541491Y-14905246D01*
X10541491Y-14905246D02*
X10531967Y-14924293D01*
X10531967Y-14924293D02*
X10531967Y-14962388D01*
X10531967Y-14962388D02*
X10541491Y-14981436D01*
X10541491Y-14981436D02*
X10551015Y-14990960D01*
X10551015Y-14990960D02*
X10570063Y-15000484D01*
X10570063Y-15000484D02*
X10608158Y-15000484D01*
X10608158Y-15000484D02*
X10627205Y-14990960D01*
X10627205Y-14990960D02*
X10636729Y-14981436D01*
X10636729Y-14981436D02*
X10646253Y-14962388D01*
X10646253Y-14962388D02*
X10646253Y-14924293D01*
X10646253Y-14924293D02*
X10636729Y-14905246D01*
X10636729Y-14905246D02*
X10627205Y-14895722D01*
X10627205Y-14895722D02*
X10608158Y-14886198D01*
X10770063Y-14800484D02*
X10789110Y-14800484D01*
X10789110Y-14800484D02*
X10808158Y-14810008D01*
X10808158Y-14810008D02*
X10817682Y-14819531D01*
X10817682Y-14819531D02*
X10827205Y-14838579D01*
X10827205Y-14838579D02*
X10836729Y-14876674D01*
X10836729Y-14876674D02*
X10836729Y-14924293D01*
X10836729Y-14924293D02*
X10827205Y-14962388D01*
X10827205Y-14962388D02*
X10817682Y-14981436D01*
X10817682Y-14981436D02*
X10808158Y-14990960D01*
X10808158Y-14990960D02*
X10789110Y-15000484D01*
X10789110Y-15000484D02*
X10770063Y-15000484D01*
X10770063Y-15000484D02*
X10751015Y-14990960D01*
X10751015Y-14990960D02*
X10741491Y-14981436D01*
X10741491Y-14981436D02*
X10731967Y-14962388D01*
X10731967Y-14962388D02*
X10722444Y-14924293D01*
X10722444Y-14924293D02*
X10722444Y-14876674D01*
X10722444Y-14876674D02*
X10731967Y-14838579D01*
X10731967Y-14838579D02*
X10741491Y-14819531D01*
X10741491Y-14819531D02*
X10751015Y-14810008D01*
X10751015Y-14810008D02*
X10770063Y-14800484D01*
X10960539Y-14800484D02*
X10979586Y-14800484D01*
X10979586Y-14800484D02*
X10998634Y-14810008D01*
X10998634Y-14810008D02*
X11008158Y-14819531D01*
X11008158Y-14819531D02*
X11017682Y-14838579D01*
X11017682Y-14838579D02*
X11027205Y-14876674D01*
X11027205Y-14876674D02*
X11027205Y-14924293D01*
X11027205Y-14924293D02*
X11017682Y-14962388D01*
X11017682Y-14962388D02*
X11008158Y-14981436D01*
X11008158Y-14981436D02*
X10998634Y-14990960D01*
X10998634Y-14990960D02*
X10979586Y-15000484D01*
X10979586Y-15000484D02*
X10960539Y-15000484D01*
X10960539Y-15000484D02*
X10941491Y-14990960D01*
X10941491Y-14990960D02*
X10931967Y-14981436D01*
X10931967Y-14981436D02*
X10922444Y-14962388D01*
X10922444Y-14962388D02*
X10912920Y-14924293D01*
X10912920Y-14924293D02*
X10912920Y-14876674D01*
X10912920Y-14876674D02*
X10922444Y-14838579D01*
X10922444Y-14838579D02*
X10931967Y-14819531D01*
X10931967Y-14819531D02*
X10941491Y-14810008D01*
X10941491Y-14810008D02*
X10960539Y-14800484D01*
X11112920Y-15000484D02*
X11112920Y-14867150D01*
X11112920Y-14886198D02*
X11122444Y-14876674D01*
X11122444Y-14876674D02*
X11141491Y-14867150D01*
X11141491Y-14867150D02*
X11170063Y-14867150D01*
X11170063Y-14867150D02*
X11189110Y-14876674D01*
X11189110Y-14876674D02*
X11198634Y-14895722D01*
X11198634Y-14895722D02*
X11198634Y-15000484D01*
X11198634Y-14895722D02*
X11208158Y-14876674D01*
X11208158Y-14876674D02*
X11227205Y-14867150D01*
X11227205Y-14867150D02*
X11255777Y-14867150D01*
X11255777Y-14867150D02*
X11274824Y-14876674D01*
X11274824Y-14876674D02*
X11284348Y-14895722D01*
X11284348Y-14895722D02*
X11284348Y-15000484D01*
X11379586Y-15000484D02*
X11379586Y-14867150D01*
X11379586Y-14886198D02*
X11389110Y-14876674D01*
X11389110Y-14876674D02*
X11408158Y-14867150D01*
X11408158Y-14867150D02*
X11436729Y-14867150D01*
X11436729Y-14867150D02*
X11455777Y-14876674D01*
X11455777Y-14876674D02*
X11465301Y-14895722D01*
X11465301Y-14895722D02*
X11465301Y-15000484D01*
X11465301Y-14895722D02*
X11474824Y-14876674D01*
X11474824Y-14876674D02*
X11493872Y-14867150D01*
X11493872Y-14867150D02*
X11522443Y-14867150D01*
X11522443Y-14867150D02*
X11541491Y-14876674D01*
X11541491Y-14876674D02*
X11551015Y-14895722D01*
X11551015Y-14895722D02*
X11551015Y-15000484D01*
X11941491Y-14790960D02*
X11770063Y-15048103D01*
X12198634Y-14800484D02*
X12217682Y-14800484D01*
X12217682Y-14800484D02*
X12236729Y-14810008D01*
X12236729Y-14810008D02*
X12246253Y-14819531D01*
X12246253Y-14819531D02*
X12255777Y-14838579D01*
X12255777Y-14838579D02*
X12265301Y-14876674D01*
X12265301Y-14876674D02*
X12265301Y-14924293D01*
X12265301Y-14924293D02*
X12255777Y-14962388D01*
X12255777Y-14962388D02*
X12246253Y-14981436D01*
X12246253Y-14981436D02*
X12236729Y-14990960D01*
X12236729Y-14990960D02*
X12217682Y-15000484D01*
X12217682Y-15000484D02*
X12198634Y-15000484D01*
X12198634Y-15000484D02*
X12179586Y-14990960D01*
X12179586Y-14990960D02*
X12170063Y-14981436D01*
X12170063Y-14981436D02*
X12160539Y-14962388D01*
X12160539Y-14962388D02*
X12151015Y-14924293D01*
X12151015Y-14924293D02*
X12151015Y-14876674D01*
X12151015Y-14876674D02*
X12160539Y-14838579D01*
X12160539Y-14838579D02*
X12170063Y-14819531D01*
X12170063Y-14819531D02*
X12179586Y-14810008D01*
X12179586Y-14810008D02*
X12198634Y-14800484D01*
X12351015Y-14981436D02*
X12360539Y-14990960D01*
X12360539Y-14990960D02*
X12351015Y-15000484D01*
X12351015Y-15000484D02*
X12341491Y-14990960D01*
X12341491Y-14990960D02*
X12351015Y-14981436D01*
X12351015Y-14981436D02*
X12351015Y-15000484D01*
X12484348Y-14800484D02*
X12503396Y-14800484D01*
X12503396Y-14800484D02*
X12522444Y-14810008D01*
X12522444Y-14810008D02*
X12531967Y-14819531D01*
X12531967Y-14819531D02*
X12541491Y-14838579D01*
X12541491Y-14838579D02*
X12551015Y-14876674D01*
X12551015Y-14876674D02*
X12551015Y-14924293D01*
X12551015Y-14924293D02*
X12541491Y-14962388D01*
X12541491Y-14962388D02*
X12531967Y-14981436D01*
X12531967Y-14981436D02*
X12522444Y-14990960D01*
X12522444Y-14990960D02*
X12503396Y-15000484D01*
X12503396Y-15000484D02*
X12484348Y-15000484D01*
X12484348Y-15000484D02*
X12465301Y-14990960D01*
X12465301Y-14990960D02*
X12455777Y-14981436D01*
X12455777Y-14981436D02*
X12446253Y-14962388D01*
X12446253Y-14962388D02*
X12436729Y-14924293D01*
X12436729Y-14924293D02*
X12436729Y-14876674D01*
X12436729Y-14876674D02*
X12446253Y-14838579D01*
X12446253Y-14838579D02*
X12455777Y-14819531D01*
X12455777Y-14819531D02*
X12465301Y-14810008D01*
X12465301Y-14810008D02*
X12484348Y-14800484D01*
X12617682Y-14800484D02*
X12741491Y-14800484D01*
X12741491Y-14800484D02*
X12674825Y-14876674D01*
X12674825Y-14876674D02*
X12703396Y-14876674D01*
X12703396Y-14876674D02*
X12722444Y-14886198D01*
X12722444Y-14886198D02*
X12731967Y-14895722D01*
X12731967Y-14895722D02*
X12741491Y-14914769D01*
X12741491Y-14914769D02*
X12741491Y-14962388D01*
X12741491Y-14962388D02*
X12731967Y-14981436D01*
X12731967Y-14981436D02*
X12722444Y-14990960D01*
X12722444Y-14990960D02*
X12703396Y-15000484D01*
X12703396Y-15000484D02*
X12646253Y-15000484D01*
X12646253Y-15000484D02*
X12627206Y-14990960D01*
X12627206Y-14990960D02*
X12617682Y-14981436D01*
X12931967Y-15000484D02*
X12817682Y-15000484D01*
X12874825Y-15000484D02*
X12874825Y-14800484D01*
X12874825Y-14800484D02*
X12855777Y-14829055D01*
X12855777Y-14829055D02*
X12836729Y-14848103D01*
X12836729Y-14848103D02*
X12817682Y-14857627D01*
X13112920Y-14800484D02*
X13017682Y-14800484D01*
X13017682Y-14800484D02*
X13008158Y-14895722D01*
X13008158Y-14895722D02*
X13017682Y-14886198D01*
X13017682Y-14886198D02*
X13036729Y-14876674D01*
X13036729Y-14876674D02*
X13084348Y-14876674D01*
X13084348Y-14876674D02*
X13103396Y-14886198D01*
X13103396Y-14886198D02*
X13112920Y-14895722D01*
X13112920Y-14895722D02*
X13122444Y-14914769D01*
X13122444Y-14914769D02*
X13122444Y-14962388D01*
X13122444Y-14962388D02*
X13112920Y-14981436D01*
X13112920Y-14981436D02*
X13103396Y-14990960D01*
X13103396Y-14990960D02*
X13084348Y-15000484D01*
X13084348Y-15000484D02*
X13036729Y-15000484D01*
X13036729Y-15000484D02*
X13017682Y-14990960D01*
X13017682Y-14990960D02*
X13008158Y-14981436D01*
X13198634Y-14800484D02*
X13198634Y-14838579D01*
X13274825Y-14800484D02*
X13274825Y-14838579D01*
X13570063Y-15076674D02*
X13560539Y-15067150D01*
X13560539Y-15067150D02*
X13541491Y-15038579D01*
X13541491Y-15038579D02*
X13531968Y-15019531D01*
X13531968Y-15019531D02*
X13522444Y-14990960D01*
X13522444Y-14990960D02*
X13512920Y-14943341D01*
X13512920Y-14943341D02*
X13512920Y-14905246D01*
X13512920Y-14905246D02*
X13522444Y-14857627D01*
X13522444Y-14857627D02*
X13531968Y-14829055D01*
X13531968Y-14829055D02*
X13541491Y-14810008D01*
X13541491Y-14810008D02*
X13560539Y-14781436D01*
X13560539Y-14781436D02*
X13570063Y-14771912D01*
X13636729Y-14819531D02*
X13646253Y-14810008D01*
X13646253Y-14810008D02*
X13665301Y-14800484D01*
X13665301Y-14800484D02*
X13712920Y-14800484D01*
X13712920Y-14800484D02*
X13731968Y-14810008D01*
X13731968Y-14810008D02*
X13741491Y-14819531D01*
X13741491Y-14819531D02*
X13751015Y-14838579D01*
X13751015Y-14838579D02*
X13751015Y-14857627D01*
X13751015Y-14857627D02*
X13741491Y-14886198D01*
X13741491Y-14886198D02*
X13627206Y-15000484D01*
X13627206Y-15000484D02*
X13751015Y-15000484D01*
X13989110Y-15000484D02*
X13989110Y-14800484D01*
X14074825Y-15000484D02*
X14074825Y-14895722D01*
X14074825Y-14895722D02*
X14065301Y-14876674D01*
X14065301Y-14876674D02*
X14046253Y-14867150D01*
X14046253Y-14867150D02*
X14017682Y-14867150D01*
X14017682Y-14867150D02*
X13998634Y-14876674D01*
X13998634Y-14876674D02*
X13989110Y-14886198D01*
X14198634Y-15000484D02*
X14179587Y-14990960D01*
X14179587Y-14990960D02*
X14170063Y-14981436D01*
X14170063Y-14981436D02*
X14160539Y-14962388D01*
X14160539Y-14962388D02*
X14160539Y-14905246D01*
X14160539Y-14905246D02*
X14170063Y-14886198D01*
X14170063Y-14886198D02*
X14179587Y-14876674D01*
X14179587Y-14876674D02*
X14198634Y-14867150D01*
X14198634Y-14867150D02*
X14227206Y-14867150D01*
X14227206Y-14867150D02*
X14246253Y-14876674D01*
X14246253Y-14876674D02*
X14255777Y-14886198D01*
X14255777Y-14886198D02*
X14265301Y-14905246D01*
X14265301Y-14905246D02*
X14265301Y-14962388D01*
X14265301Y-14962388D02*
X14255777Y-14981436D01*
X14255777Y-14981436D02*
X14246253Y-14990960D01*
X14246253Y-14990960D02*
X14227206Y-15000484D01*
X14227206Y-15000484D02*
X14198634Y-15000484D01*
X14379587Y-15000484D02*
X14360539Y-14990960D01*
X14360539Y-14990960D02*
X14351015Y-14971912D01*
X14351015Y-14971912D02*
X14351015Y-14800484D01*
X14531968Y-14990960D02*
X14512920Y-15000484D01*
X14512920Y-15000484D02*
X14474825Y-15000484D01*
X14474825Y-15000484D02*
X14455777Y-14990960D01*
X14455777Y-14990960D02*
X14446253Y-14971912D01*
X14446253Y-14971912D02*
X14446253Y-14895722D01*
X14446253Y-14895722D02*
X14455777Y-14876674D01*
X14455777Y-14876674D02*
X14474825Y-14867150D01*
X14474825Y-14867150D02*
X14512920Y-14867150D01*
X14512920Y-14867150D02*
X14531968Y-14876674D01*
X14531968Y-14876674D02*
X14541491Y-14895722D01*
X14541491Y-14895722D02*
X14541491Y-14914769D01*
X14541491Y-14914769D02*
X14446253Y-14933817D01*
X14617682Y-14990960D02*
X14636730Y-15000484D01*
X14636730Y-15000484D02*
X14674825Y-15000484D01*
X14674825Y-15000484D02*
X14693872Y-14990960D01*
X14693872Y-14990960D02*
X14703396Y-14971912D01*
X14703396Y-14971912D02*
X14703396Y-14962388D01*
X14703396Y-14962388D02*
X14693872Y-14943341D01*
X14693872Y-14943341D02*
X14674825Y-14933817D01*
X14674825Y-14933817D02*
X14646253Y-14933817D01*
X14646253Y-14933817D02*
X14627206Y-14924293D01*
X14627206Y-14924293D02*
X14617682Y-14905246D01*
X14617682Y-14905246D02*
X14617682Y-14895722D01*
X14617682Y-14895722D02*
X14627206Y-14876674D01*
X14627206Y-14876674D02*
X14646253Y-14867150D01*
X14646253Y-14867150D02*
X14674825Y-14867150D01*
X14674825Y-14867150D02*
X14693872Y-14876674D01*
X14770063Y-15076674D02*
X14779587Y-15067150D01*
X14779587Y-15067150D02*
X14798634Y-15038579D01*
X14798634Y-15038579D02*
X14808158Y-15019531D01*
X14808158Y-15019531D02*
X14817682Y-14990960D01*
X14817682Y-14990960D02*
X14827206Y-14943341D01*
X14827206Y-14943341D02*
X14827206Y-14905246D01*
X14827206Y-14905246D02*
X14817682Y-14857627D01*
X14817682Y-14857627D02*
X14808158Y-14829055D01*
X14808158Y-14829055D02*
X14798634Y-14810008D01*
X14798634Y-14810008D02*
X14779587Y-14781436D01*
X14779587Y-14781436D02*
X14770063Y-14771912D01*
D14*
X9950000Y-15128000D02*
X9950000Y-15218000D01*
X9905000Y-15173000D02*
X9995000Y-15173000D01*
D11*
X10293872Y-15064484D02*
X10312920Y-15064484D01*
X10312920Y-15064484D02*
X10331967Y-15074008D01*
X10331967Y-15074008D02*
X10341491Y-15083531D01*
X10341491Y-15083531D02*
X10351015Y-15102579D01*
X10351015Y-15102579D02*
X10360539Y-15140674D01*
X10360539Y-15140674D02*
X10360539Y-15188293D01*
X10360539Y-15188293D02*
X10351015Y-15226388D01*
X10351015Y-15226388D02*
X10341491Y-15245436D01*
X10341491Y-15245436D02*
X10331967Y-15254960D01*
X10331967Y-15254960D02*
X10312920Y-15264484D01*
X10312920Y-15264484D02*
X10293872Y-15264484D01*
X10293872Y-15264484D02*
X10274824Y-15254960D01*
X10274824Y-15254960D02*
X10265301Y-15245436D01*
X10265301Y-15245436D02*
X10255777Y-15226388D01*
X10255777Y-15226388D02*
X10246253Y-15188293D01*
X10246253Y-15188293D02*
X10246253Y-15140674D01*
X10246253Y-15140674D02*
X10255777Y-15102579D01*
X10255777Y-15102579D02*
X10265301Y-15083531D01*
X10265301Y-15083531D02*
X10274824Y-15074008D01*
X10274824Y-15074008D02*
X10293872Y-15064484D01*
X10446253Y-15245436D02*
X10455777Y-15254960D01*
X10455777Y-15254960D02*
X10446253Y-15264484D01*
X10446253Y-15264484D02*
X10436729Y-15254960D01*
X10436729Y-15254960D02*
X10446253Y-15245436D01*
X10446253Y-15245436D02*
X10446253Y-15264484D01*
X10551015Y-15264484D02*
X10589110Y-15264484D01*
X10589110Y-15264484D02*
X10608158Y-15254960D01*
X10608158Y-15254960D02*
X10617682Y-15245436D01*
X10617682Y-15245436D02*
X10636729Y-15216865D01*
X10636729Y-15216865D02*
X10646253Y-15178769D01*
X10646253Y-15178769D02*
X10646253Y-15102579D01*
X10646253Y-15102579D02*
X10636729Y-15083531D01*
X10636729Y-15083531D02*
X10627205Y-15074008D01*
X10627205Y-15074008D02*
X10608158Y-15064484D01*
X10608158Y-15064484D02*
X10570063Y-15064484D01*
X10570063Y-15064484D02*
X10551015Y-15074008D01*
X10551015Y-15074008D02*
X10541491Y-15083531D01*
X10541491Y-15083531D02*
X10531967Y-15102579D01*
X10531967Y-15102579D02*
X10531967Y-15150198D01*
X10531967Y-15150198D02*
X10541491Y-15169246D01*
X10541491Y-15169246D02*
X10551015Y-15178769D01*
X10551015Y-15178769D02*
X10570063Y-15188293D01*
X10570063Y-15188293D02*
X10608158Y-15188293D01*
X10608158Y-15188293D02*
X10627205Y-15178769D01*
X10627205Y-15178769D02*
X10636729Y-15169246D01*
X10636729Y-15169246D02*
X10646253Y-15150198D01*
X10770063Y-15064484D02*
X10789110Y-15064484D01*
X10789110Y-15064484D02*
X10808158Y-15074008D01*
X10808158Y-15074008D02*
X10817682Y-15083531D01*
X10817682Y-15083531D02*
X10827205Y-15102579D01*
X10827205Y-15102579D02*
X10836729Y-15140674D01*
X10836729Y-15140674D02*
X10836729Y-15188293D01*
X10836729Y-15188293D02*
X10827205Y-15226388D01*
X10827205Y-15226388D02*
X10817682Y-15245436D01*
X10817682Y-15245436D02*
X10808158Y-15254960D01*
X10808158Y-15254960D02*
X10789110Y-15264484D01*
X10789110Y-15264484D02*
X10770063Y-15264484D01*
X10770063Y-15264484D02*
X10751015Y-15254960D01*
X10751015Y-15254960D02*
X10741491Y-15245436D01*
X10741491Y-15245436D02*
X10731967Y-15226388D01*
X10731967Y-15226388D02*
X10722444Y-15188293D01*
X10722444Y-15188293D02*
X10722444Y-15140674D01*
X10722444Y-15140674D02*
X10731967Y-15102579D01*
X10731967Y-15102579D02*
X10741491Y-15083531D01*
X10741491Y-15083531D02*
X10751015Y-15074008D01*
X10751015Y-15074008D02*
X10770063Y-15064484D01*
X10960539Y-15064484D02*
X10979586Y-15064484D01*
X10979586Y-15064484D02*
X10998634Y-15074008D01*
X10998634Y-15074008D02*
X11008158Y-15083531D01*
X11008158Y-15083531D02*
X11017682Y-15102579D01*
X11017682Y-15102579D02*
X11027205Y-15140674D01*
X11027205Y-15140674D02*
X11027205Y-15188293D01*
X11027205Y-15188293D02*
X11017682Y-15226388D01*
X11017682Y-15226388D02*
X11008158Y-15245436D01*
X11008158Y-15245436D02*
X10998634Y-15254960D01*
X10998634Y-15254960D02*
X10979586Y-15264484D01*
X10979586Y-15264484D02*
X10960539Y-15264484D01*
X10960539Y-15264484D02*
X10941491Y-15254960D01*
X10941491Y-15254960D02*
X10931967Y-15245436D01*
X10931967Y-15245436D02*
X10922444Y-15226388D01*
X10922444Y-15226388D02*
X10912920Y-15188293D01*
X10912920Y-15188293D02*
X10912920Y-15140674D01*
X10912920Y-15140674D02*
X10922444Y-15102579D01*
X10922444Y-15102579D02*
X10931967Y-15083531D01*
X10931967Y-15083531D02*
X10941491Y-15074008D01*
X10941491Y-15074008D02*
X10960539Y-15064484D01*
X11112920Y-15264484D02*
X11112920Y-15131150D01*
X11112920Y-15150198D02*
X11122444Y-15140674D01*
X11122444Y-15140674D02*
X11141491Y-15131150D01*
X11141491Y-15131150D02*
X11170063Y-15131150D01*
X11170063Y-15131150D02*
X11189110Y-15140674D01*
X11189110Y-15140674D02*
X11198634Y-15159722D01*
X11198634Y-15159722D02*
X11198634Y-15264484D01*
X11198634Y-15159722D02*
X11208158Y-15140674D01*
X11208158Y-15140674D02*
X11227205Y-15131150D01*
X11227205Y-15131150D02*
X11255777Y-15131150D01*
X11255777Y-15131150D02*
X11274824Y-15140674D01*
X11274824Y-15140674D02*
X11284348Y-15159722D01*
X11284348Y-15159722D02*
X11284348Y-15264484D01*
X11379586Y-15264484D02*
X11379586Y-15131150D01*
X11379586Y-15150198D02*
X11389110Y-15140674D01*
X11389110Y-15140674D02*
X11408158Y-15131150D01*
X11408158Y-15131150D02*
X11436729Y-15131150D01*
X11436729Y-15131150D02*
X11455777Y-15140674D01*
X11455777Y-15140674D02*
X11465301Y-15159722D01*
X11465301Y-15159722D02*
X11465301Y-15264484D01*
X11465301Y-15159722D02*
X11474824Y-15140674D01*
X11474824Y-15140674D02*
X11493872Y-15131150D01*
X11493872Y-15131150D02*
X11522443Y-15131150D01*
X11522443Y-15131150D02*
X11541491Y-15140674D01*
X11541491Y-15140674D02*
X11551015Y-15159722D01*
X11551015Y-15159722D02*
X11551015Y-15264484D01*
X11941491Y-15054960D02*
X11770063Y-15312103D01*
X12198634Y-15064484D02*
X12217682Y-15064484D01*
X12217682Y-15064484D02*
X12236729Y-15074008D01*
X12236729Y-15074008D02*
X12246253Y-15083531D01*
X12246253Y-15083531D02*
X12255777Y-15102579D01*
X12255777Y-15102579D02*
X12265301Y-15140674D01*
X12265301Y-15140674D02*
X12265301Y-15188293D01*
X12265301Y-15188293D02*
X12255777Y-15226388D01*
X12255777Y-15226388D02*
X12246253Y-15245436D01*
X12246253Y-15245436D02*
X12236729Y-15254960D01*
X12236729Y-15254960D02*
X12217682Y-15264484D01*
X12217682Y-15264484D02*
X12198634Y-15264484D01*
X12198634Y-15264484D02*
X12179586Y-15254960D01*
X12179586Y-15254960D02*
X12170063Y-15245436D01*
X12170063Y-15245436D02*
X12160539Y-15226388D01*
X12160539Y-15226388D02*
X12151015Y-15188293D01*
X12151015Y-15188293D02*
X12151015Y-15140674D01*
X12151015Y-15140674D02*
X12160539Y-15102579D01*
X12160539Y-15102579D02*
X12170063Y-15083531D01*
X12170063Y-15083531D02*
X12179586Y-15074008D01*
X12179586Y-15074008D02*
X12198634Y-15064484D01*
X12351015Y-15245436D02*
X12360539Y-15254960D01*
X12360539Y-15254960D02*
X12351015Y-15264484D01*
X12351015Y-15264484D02*
X12341491Y-15254960D01*
X12341491Y-15254960D02*
X12351015Y-15245436D01*
X12351015Y-15245436D02*
X12351015Y-15264484D01*
X12484348Y-15064484D02*
X12503396Y-15064484D01*
X12503396Y-15064484D02*
X12522444Y-15074008D01*
X12522444Y-15074008D02*
X12531967Y-15083531D01*
X12531967Y-15083531D02*
X12541491Y-15102579D01*
X12541491Y-15102579D02*
X12551015Y-15140674D01*
X12551015Y-15140674D02*
X12551015Y-15188293D01*
X12551015Y-15188293D02*
X12541491Y-15226388D01*
X12541491Y-15226388D02*
X12531967Y-15245436D01*
X12531967Y-15245436D02*
X12522444Y-15254960D01*
X12522444Y-15254960D02*
X12503396Y-15264484D01*
X12503396Y-15264484D02*
X12484348Y-15264484D01*
X12484348Y-15264484D02*
X12465301Y-15254960D01*
X12465301Y-15254960D02*
X12455777Y-15245436D01*
X12455777Y-15245436D02*
X12446253Y-15226388D01*
X12446253Y-15226388D02*
X12436729Y-15188293D01*
X12436729Y-15188293D02*
X12436729Y-15140674D01*
X12436729Y-15140674D02*
X12446253Y-15102579D01*
X12446253Y-15102579D02*
X12455777Y-15083531D01*
X12455777Y-15083531D02*
X12465301Y-15074008D01*
X12465301Y-15074008D02*
X12484348Y-15064484D01*
X12617682Y-15064484D02*
X12741491Y-15064484D01*
X12741491Y-15064484D02*
X12674825Y-15140674D01*
X12674825Y-15140674D02*
X12703396Y-15140674D01*
X12703396Y-15140674D02*
X12722444Y-15150198D01*
X12722444Y-15150198D02*
X12731967Y-15159722D01*
X12731967Y-15159722D02*
X12741491Y-15178769D01*
X12741491Y-15178769D02*
X12741491Y-15226388D01*
X12741491Y-15226388D02*
X12731967Y-15245436D01*
X12731967Y-15245436D02*
X12722444Y-15254960D01*
X12722444Y-15254960D02*
X12703396Y-15264484D01*
X12703396Y-15264484D02*
X12646253Y-15264484D01*
X12646253Y-15264484D02*
X12627206Y-15254960D01*
X12627206Y-15254960D02*
X12617682Y-15245436D01*
X12922444Y-15064484D02*
X12827206Y-15064484D01*
X12827206Y-15064484D02*
X12817682Y-15159722D01*
X12817682Y-15159722D02*
X12827206Y-15150198D01*
X12827206Y-15150198D02*
X12846253Y-15140674D01*
X12846253Y-15140674D02*
X12893872Y-15140674D01*
X12893872Y-15140674D02*
X12912920Y-15150198D01*
X12912920Y-15150198D02*
X12922444Y-15159722D01*
X12922444Y-15159722D02*
X12931967Y-15178769D01*
X12931967Y-15178769D02*
X12931967Y-15226388D01*
X12931967Y-15226388D02*
X12922444Y-15245436D01*
X12922444Y-15245436D02*
X12912920Y-15254960D01*
X12912920Y-15254960D02*
X12893872Y-15264484D01*
X12893872Y-15264484D02*
X12846253Y-15264484D01*
X12846253Y-15264484D02*
X12827206Y-15254960D01*
X12827206Y-15254960D02*
X12817682Y-15245436D01*
X13103396Y-15131150D02*
X13103396Y-15264484D01*
X13055777Y-15054960D02*
X13008158Y-15197817D01*
X13008158Y-15197817D02*
X13131967Y-15197817D01*
X13198634Y-15064484D02*
X13198634Y-15102579D01*
X13274825Y-15064484D02*
X13274825Y-15102579D01*
X13570063Y-15340674D02*
X13560539Y-15331150D01*
X13560539Y-15331150D02*
X13541491Y-15302579D01*
X13541491Y-15302579D02*
X13531968Y-15283531D01*
X13531968Y-15283531D02*
X13522444Y-15254960D01*
X13522444Y-15254960D02*
X13512920Y-15207341D01*
X13512920Y-15207341D02*
X13512920Y-15169246D01*
X13512920Y-15169246D02*
X13522444Y-15121627D01*
X13522444Y-15121627D02*
X13531968Y-15093055D01*
X13531968Y-15093055D02*
X13541491Y-15074008D01*
X13541491Y-15074008D02*
X13560539Y-15045436D01*
X13560539Y-15045436D02*
X13570063Y-15035912D01*
X13751015Y-15264484D02*
X13636729Y-15264484D01*
X13693872Y-15264484D02*
X13693872Y-15064484D01*
X13693872Y-15064484D02*
X13674825Y-15093055D01*
X13674825Y-15093055D02*
X13655777Y-15112103D01*
X13655777Y-15112103D02*
X13636729Y-15121627D01*
X13827206Y-15083531D02*
X13836729Y-15074008D01*
X13836729Y-15074008D02*
X13855777Y-15064484D01*
X13855777Y-15064484D02*
X13903396Y-15064484D01*
X13903396Y-15064484D02*
X13922444Y-15074008D01*
X13922444Y-15074008D02*
X13931968Y-15083531D01*
X13931968Y-15083531D02*
X13941491Y-15102579D01*
X13941491Y-15102579D02*
X13941491Y-15121627D01*
X13941491Y-15121627D02*
X13931968Y-15150198D01*
X13931968Y-15150198D02*
X13817682Y-15264484D01*
X13817682Y-15264484D02*
X13941491Y-15264484D01*
X14055777Y-15150198D02*
X14036729Y-15140674D01*
X14036729Y-15140674D02*
X14027206Y-15131150D01*
X14027206Y-15131150D02*
X14017682Y-15112103D01*
X14017682Y-15112103D02*
X14017682Y-15102579D01*
X14017682Y-15102579D02*
X14027206Y-15083531D01*
X14027206Y-15083531D02*
X14036729Y-15074008D01*
X14036729Y-15074008D02*
X14055777Y-15064484D01*
X14055777Y-15064484D02*
X14093872Y-15064484D01*
X14093872Y-15064484D02*
X14112920Y-15074008D01*
X14112920Y-15074008D02*
X14122444Y-15083531D01*
X14122444Y-15083531D02*
X14131968Y-15102579D01*
X14131968Y-15102579D02*
X14131968Y-15112103D01*
X14131968Y-15112103D02*
X14122444Y-15131150D01*
X14122444Y-15131150D02*
X14112920Y-15140674D01*
X14112920Y-15140674D02*
X14093872Y-15150198D01*
X14093872Y-15150198D02*
X14055777Y-15150198D01*
X14055777Y-15150198D02*
X14036729Y-15159722D01*
X14036729Y-15159722D02*
X14027206Y-15169246D01*
X14027206Y-15169246D02*
X14017682Y-15188293D01*
X14017682Y-15188293D02*
X14017682Y-15226388D01*
X14017682Y-15226388D02*
X14027206Y-15245436D01*
X14027206Y-15245436D02*
X14036729Y-15254960D01*
X14036729Y-15254960D02*
X14055777Y-15264484D01*
X14055777Y-15264484D02*
X14093872Y-15264484D01*
X14093872Y-15264484D02*
X14112920Y-15254960D01*
X14112920Y-15254960D02*
X14122444Y-15245436D01*
X14122444Y-15245436D02*
X14131968Y-15226388D01*
X14131968Y-15226388D02*
X14131968Y-15188293D01*
X14131968Y-15188293D02*
X14122444Y-15169246D01*
X14122444Y-15169246D02*
X14112920Y-15159722D01*
X14112920Y-15159722D02*
X14093872Y-15150198D01*
X14370063Y-15264484D02*
X14370063Y-15064484D01*
X14455777Y-15264484D02*
X14455777Y-15159722D01*
X14455777Y-15159722D02*
X14446253Y-15140674D01*
X14446253Y-15140674D02*
X14427206Y-15131150D01*
X14427206Y-15131150D02*
X14398634Y-15131150D01*
X14398634Y-15131150D02*
X14379587Y-15140674D01*
X14379587Y-15140674D02*
X14370063Y-15150198D01*
X14579587Y-15264484D02*
X14560539Y-15254960D01*
X14560539Y-15254960D02*
X14551015Y-15245436D01*
X14551015Y-15245436D02*
X14541491Y-15226388D01*
X14541491Y-15226388D02*
X14541491Y-15169246D01*
X14541491Y-15169246D02*
X14551015Y-15150198D01*
X14551015Y-15150198D02*
X14560539Y-15140674D01*
X14560539Y-15140674D02*
X14579587Y-15131150D01*
X14579587Y-15131150D02*
X14608158Y-15131150D01*
X14608158Y-15131150D02*
X14627206Y-15140674D01*
X14627206Y-15140674D02*
X14636730Y-15150198D01*
X14636730Y-15150198D02*
X14646253Y-15169246D01*
X14646253Y-15169246D02*
X14646253Y-15226388D01*
X14646253Y-15226388D02*
X14636730Y-15245436D01*
X14636730Y-15245436D02*
X14627206Y-15254960D01*
X14627206Y-15254960D02*
X14608158Y-15264484D01*
X14608158Y-15264484D02*
X14579587Y-15264484D01*
X14760539Y-15264484D02*
X14741491Y-15254960D01*
X14741491Y-15254960D02*
X14731968Y-15235912D01*
X14731968Y-15235912D02*
X14731968Y-15064484D01*
X14912920Y-15254960D02*
X14893872Y-15264484D01*
X14893872Y-15264484D02*
X14855777Y-15264484D01*
X14855777Y-15264484D02*
X14836730Y-15254960D01*
X14836730Y-15254960D02*
X14827206Y-15235912D01*
X14827206Y-15235912D02*
X14827206Y-15159722D01*
X14827206Y-15159722D02*
X14836730Y-15140674D01*
X14836730Y-15140674D02*
X14855777Y-15131150D01*
X14855777Y-15131150D02*
X14893872Y-15131150D01*
X14893872Y-15131150D02*
X14912920Y-15140674D01*
X14912920Y-15140674D02*
X14922444Y-15159722D01*
X14922444Y-15159722D02*
X14922444Y-15178769D01*
X14922444Y-15178769D02*
X14827206Y-15197817D01*
X14998634Y-15254960D02*
X15017682Y-15264484D01*
X15017682Y-15264484D02*
X15055777Y-15264484D01*
X15055777Y-15264484D02*
X15074825Y-15254960D01*
X15074825Y-15254960D02*
X15084349Y-15235912D01*
X15084349Y-15235912D02*
X15084349Y-15226388D01*
X15084349Y-15226388D02*
X15074825Y-15207341D01*
X15074825Y-15207341D02*
X15055777Y-15197817D01*
X15055777Y-15197817D02*
X15027206Y-15197817D01*
X15027206Y-15197817D02*
X15008158Y-15188293D01*
X15008158Y-15188293D02*
X14998634Y-15169246D01*
X14998634Y-15169246D02*
X14998634Y-15159722D01*
X14998634Y-15159722D02*
X15008158Y-15140674D01*
X15008158Y-15140674D02*
X15027206Y-15131150D01*
X15027206Y-15131150D02*
X15055777Y-15131150D01*
X15055777Y-15131150D02*
X15074825Y-15140674D01*
X15151015Y-15340674D02*
X15160539Y-15331150D01*
X15160539Y-15331150D02*
X15179587Y-15302579D01*
X15179587Y-15302579D02*
X15189111Y-15283531D01*
X15189111Y-15283531D02*
X15198634Y-15254960D01*
X15198634Y-15254960D02*
X15208158Y-15207341D01*
X15208158Y-15207341D02*
X15208158Y-15169246D01*
X15208158Y-15169246D02*
X15198634Y-15121627D01*
X15198634Y-15121627D02*
X15189111Y-15093055D01*
X15189111Y-15093055D02*
X15179587Y-15074008D01*
X15179587Y-15074008D02*
X15160539Y-15045436D01*
X15160539Y-15045436D02*
X15151015Y-15035912D01*
D10*
X9980356Y-15472356D02*
X9980356Y-15401644D01*
X9909644Y-15401644D01*
X9909644Y-15472356D01*
X9980356Y-15472356D01*
D11*
X10360539Y-15528484D02*
X10246253Y-15528484D01*
X10303396Y-15528484D02*
X10303396Y-15328484D01*
X10303396Y-15328484D02*
X10284348Y-15357055D01*
X10284348Y-15357055D02*
X10265301Y-15376103D01*
X10265301Y-15376103D02*
X10246253Y-15385627D01*
X10446253Y-15509436D02*
X10455777Y-15518960D01*
X10455777Y-15518960D02*
X10446253Y-15528484D01*
X10446253Y-15528484D02*
X10436729Y-15518960D01*
X10436729Y-15518960D02*
X10446253Y-15509436D01*
X10446253Y-15509436D02*
X10446253Y-15528484D01*
X10579586Y-15328484D02*
X10598634Y-15328484D01*
X10598634Y-15328484D02*
X10617682Y-15338008D01*
X10617682Y-15338008D02*
X10627205Y-15347531D01*
X10627205Y-15347531D02*
X10636729Y-15366579D01*
X10636729Y-15366579D02*
X10646253Y-15404674D01*
X10646253Y-15404674D02*
X10646253Y-15452293D01*
X10646253Y-15452293D02*
X10636729Y-15490388D01*
X10636729Y-15490388D02*
X10627205Y-15509436D01*
X10627205Y-15509436D02*
X10617682Y-15518960D01*
X10617682Y-15518960D02*
X10598634Y-15528484D01*
X10598634Y-15528484D02*
X10579586Y-15528484D01*
X10579586Y-15528484D02*
X10560539Y-15518960D01*
X10560539Y-15518960D02*
X10551015Y-15509436D01*
X10551015Y-15509436D02*
X10541491Y-15490388D01*
X10541491Y-15490388D02*
X10531967Y-15452293D01*
X10531967Y-15452293D02*
X10531967Y-15404674D01*
X10531967Y-15404674D02*
X10541491Y-15366579D01*
X10541491Y-15366579D02*
X10551015Y-15347531D01*
X10551015Y-15347531D02*
X10560539Y-15338008D01*
X10560539Y-15338008D02*
X10579586Y-15328484D01*
X10770063Y-15328484D02*
X10789110Y-15328484D01*
X10789110Y-15328484D02*
X10808158Y-15338008D01*
X10808158Y-15338008D02*
X10817682Y-15347531D01*
X10817682Y-15347531D02*
X10827205Y-15366579D01*
X10827205Y-15366579D02*
X10836729Y-15404674D01*
X10836729Y-15404674D02*
X10836729Y-15452293D01*
X10836729Y-15452293D02*
X10827205Y-15490388D01*
X10827205Y-15490388D02*
X10817682Y-15509436D01*
X10817682Y-15509436D02*
X10808158Y-15518960D01*
X10808158Y-15518960D02*
X10789110Y-15528484D01*
X10789110Y-15528484D02*
X10770063Y-15528484D01*
X10770063Y-15528484D02*
X10751015Y-15518960D01*
X10751015Y-15518960D02*
X10741491Y-15509436D01*
X10741491Y-15509436D02*
X10731967Y-15490388D01*
X10731967Y-15490388D02*
X10722444Y-15452293D01*
X10722444Y-15452293D02*
X10722444Y-15404674D01*
X10722444Y-15404674D02*
X10731967Y-15366579D01*
X10731967Y-15366579D02*
X10741491Y-15347531D01*
X10741491Y-15347531D02*
X10751015Y-15338008D01*
X10751015Y-15338008D02*
X10770063Y-15328484D01*
X10960539Y-15328484D02*
X10979586Y-15328484D01*
X10979586Y-15328484D02*
X10998634Y-15338008D01*
X10998634Y-15338008D02*
X11008158Y-15347531D01*
X11008158Y-15347531D02*
X11017682Y-15366579D01*
X11017682Y-15366579D02*
X11027205Y-15404674D01*
X11027205Y-15404674D02*
X11027205Y-15452293D01*
X11027205Y-15452293D02*
X11017682Y-15490388D01*
X11017682Y-15490388D02*
X11008158Y-15509436D01*
X11008158Y-15509436D02*
X10998634Y-15518960D01*
X10998634Y-15518960D02*
X10979586Y-15528484D01*
X10979586Y-15528484D02*
X10960539Y-15528484D01*
X10960539Y-15528484D02*
X10941491Y-15518960D01*
X10941491Y-15518960D02*
X10931967Y-15509436D01*
X10931967Y-15509436D02*
X10922444Y-15490388D01*
X10922444Y-15490388D02*
X10912920Y-15452293D01*
X10912920Y-15452293D02*
X10912920Y-15404674D01*
X10912920Y-15404674D02*
X10922444Y-15366579D01*
X10922444Y-15366579D02*
X10931967Y-15347531D01*
X10931967Y-15347531D02*
X10941491Y-15338008D01*
X10941491Y-15338008D02*
X10960539Y-15328484D01*
X11112920Y-15528484D02*
X11112920Y-15395150D01*
X11112920Y-15414198D02*
X11122444Y-15404674D01*
X11122444Y-15404674D02*
X11141491Y-15395150D01*
X11141491Y-15395150D02*
X11170063Y-15395150D01*
X11170063Y-15395150D02*
X11189110Y-15404674D01*
X11189110Y-15404674D02*
X11198634Y-15423722D01*
X11198634Y-15423722D02*
X11198634Y-15528484D01*
X11198634Y-15423722D02*
X11208158Y-15404674D01*
X11208158Y-15404674D02*
X11227205Y-15395150D01*
X11227205Y-15395150D02*
X11255777Y-15395150D01*
X11255777Y-15395150D02*
X11274824Y-15404674D01*
X11274824Y-15404674D02*
X11284348Y-15423722D01*
X11284348Y-15423722D02*
X11284348Y-15528484D01*
X11379586Y-15528484D02*
X11379586Y-15395150D01*
X11379586Y-15414198D02*
X11389110Y-15404674D01*
X11389110Y-15404674D02*
X11408158Y-15395150D01*
X11408158Y-15395150D02*
X11436729Y-15395150D01*
X11436729Y-15395150D02*
X11455777Y-15404674D01*
X11455777Y-15404674D02*
X11465301Y-15423722D01*
X11465301Y-15423722D02*
X11465301Y-15528484D01*
X11465301Y-15423722D02*
X11474824Y-15404674D01*
X11474824Y-15404674D02*
X11493872Y-15395150D01*
X11493872Y-15395150D02*
X11522443Y-15395150D01*
X11522443Y-15395150D02*
X11541491Y-15404674D01*
X11541491Y-15404674D02*
X11551015Y-15423722D01*
X11551015Y-15423722D02*
X11551015Y-15528484D01*
X11941491Y-15318960D02*
X11770063Y-15576103D01*
X12198634Y-15328484D02*
X12217682Y-15328484D01*
X12217682Y-15328484D02*
X12236729Y-15338008D01*
X12236729Y-15338008D02*
X12246253Y-15347531D01*
X12246253Y-15347531D02*
X12255777Y-15366579D01*
X12255777Y-15366579D02*
X12265301Y-15404674D01*
X12265301Y-15404674D02*
X12265301Y-15452293D01*
X12265301Y-15452293D02*
X12255777Y-15490388D01*
X12255777Y-15490388D02*
X12246253Y-15509436D01*
X12246253Y-15509436D02*
X12236729Y-15518960D01*
X12236729Y-15518960D02*
X12217682Y-15528484D01*
X12217682Y-15528484D02*
X12198634Y-15528484D01*
X12198634Y-15528484D02*
X12179586Y-15518960D01*
X12179586Y-15518960D02*
X12170063Y-15509436D01*
X12170063Y-15509436D02*
X12160539Y-15490388D01*
X12160539Y-15490388D02*
X12151015Y-15452293D01*
X12151015Y-15452293D02*
X12151015Y-15404674D01*
X12151015Y-15404674D02*
X12160539Y-15366579D01*
X12160539Y-15366579D02*
X12170063Y-15347531D01*
X12170063Y-15347531D02*
X12179586Y-15338008D01*
X12179586Y-15338008D02*
X12198634Y-15328484D01*
X12351015Y-15509436D02*
X12360539Y-15518960D01*
X12360539Y-15518960D02*
X12351015Y-15528484D01*
X12351015Y-15528484D02*
X12341491Y-15518960D01*
X12341491Y-15518960D02*
X12351015Y-15509436D01*
X12351015Y-15509436D02*
X12351015Y-15528484D01*
X12484348Y-15328484D02*
X12503396Y-15328484D01*
X12503396Y-15328484D02*
X12522444Y-15338008D01*
X12522444Y-15338008D02*
X12531967Y-15347531D01*
X12531967Y-15347531D02*
X12541491Y-15366579D01*
X12541491Y-15366579D02*
X12551015Y-15404674D01*
X12551015Y-15404674D02*
X12551015Y-15452293D01*
X12551015Y-15452293D02*
X12541491Y-15490388D01*
X12541491Y-15490388D02*
X12531967Y-15509436D01*
X12531967Y-15509436D02*
X12522444Y-15518960D01*
X12522444Y-15518960D02*
X12503396Y-15528484D01*
X12503396Y-15528484D02*
X12484348Y-15528484D01*
X12484348Y-15528484D02*
X12465301Y-15518960D01*
X12465301Y-15518960D02*
X12455777Y-15509436D01*
X12455777Y-15509436D02*
X12446253Y-15490388D01*
X12446253Y-15490388D02*
X12436729Y-15452293D01*
X12436729Y-15452293D02*
X12436729Y-15404674D01*
X12436729Y-15404674D02*
X12446253Y-15366579D01*
X12446253Y-15366579D02*
X12455777Y-15347531D01*
X12455777Y-15347531D02*
X12465301Y-15338008D01*
X12465301Y-15338008D02*
X12484348Y-15328484D01*
X12617682Y-15328484D02*
X12741491Y-15328484D01*
X12741491Y-15328484D02*
X12674825Y-15404674D01*
X12674825Y-15404674D02*
X12703396Y-15404674D01*
X12703396Y-15404674D02*
X12722444Y-15414198D01*
X12722444Y-15414198D02*
X12731967Y-15423722D01*
X12731967Y-15423722D02*
X12741491Y-15442769D01*
X12741491Y-15442769D02*
X12741491Y-15490388D01*
X12741491Y-15490388D02*
X12731967Y-15509436D01*
X12731967Y-15509436D02*
X12722444Y-15518960D01*
X12722444Y-15518960D02*
X12703396Y-15528484D01*
X12703396Y-15528484D02*
X12646253Y-15528484D01*
X12646253Y-15528484D02*
X12627206Y-15518960D01*
X12627206Y-15518960D02*
X12617682Y-15509436D01*
X12836729Y-15528484D02*
X12874825Y-15528484D01*
X12874825Y-15528484D02*
X12893872Y-15518960D01*
X12893872Y-15518960D02*
X12903396Y-15509436D01*
X12903396Y-15509436D02*
X12922444Y-15480865D01*
X12922444Y-15480865D02*
X12931967Y-15442769D01*
X12931967Y-15442769D02*
X12931967Y-15366579D01*
X12931967Y-15366579D02*
X12922444Y-15347531D01*
X12922444Y-15347531D02*
X12912920Y-15338008D01*
X12912920Y-15338008D02*
X12893872Y-15328484D01*
X12893872Y-15328484D02*
X12855777Y-15328484D01*
X12855777Y-15328484D02*
X12836729Y-15338008D01*
X12836729Y-15338008D02*
X12827206Y-15347531D01*
X12827206Y-15347531D02*
X12817682Y-15366579D01*
X12817682Y-15366579D02*
X12817682Y-15414198D01*
X12817682Y-15414198D02*
X12827206Y-15433246D01*
X12827206Y-15433246D02*
X12836729Y-15442769D01*
X12836729Y-15442769D02*
X12855777Y-15452293D01*
X12855777Y-15452293D02*
X12893872Y-15452293D01*
X12893872Y-15452293D02*
X12912920Y-15442769D01*
X12912920Y-15442769D02*
X12922444Y-15433246D01*
X12922444Y-15433246D02*
X12931967Y-15414198D01*
X13103396Y-15395150D02*
X13103396Y-15528484D01*
X13055777Y-15318960D02*
X13008158Y-15461817D01*
X13008158Y-15461817D02*
X13131967Y-15461817D01*
X13198634Y-15328484D02*
X13198634Y-15366579D01*
X13274825Y-15328484D02*
X13274825Y-15366579D01*
X13570063Y-15604674D02*
X13560539Y-15595150D01*
X13560539Y-15595150D02*
X13541491Y-15566579D01*
X13541491Y-15566579D02*
X13531968Y-15547531D01*
X13531968Y-15547531D02*
X13522444Y-15518960D01*
X13522444Y-15518960D02*
X13512920Y-15471341D01*
X13512920Y-15471341D02*
X13512920Y-15433246D01*
X13512920Y-15433246D02*
X13522444Y-15385627D01*
X13522444Y-15385627D02*
X13531968Y-15357055D01*
X13531968Y-15357055D02*
X13541491Y-15338008D01*
X13541491Y-15338008D02*
X13560539Y-15309436D01*
X13560539Y-15309436D02*
X13570063Y-15299912D01*
X13627206Y-15328484D02*
X13751015Y-15328484D01*
X13751015Y-15328484D02*
X13684348Y-15404674D01*
X13684348Y-15404674D02*
X13712920Y-15404674D01*
X13712920Y-15404674D02*
X13731968Y-15414198D01*
X13731968Y-15414198D02*
X13741491Y-15423722D01*
X13741491Y-15423722D02*
X13751015Y-15442769D01*
X13751015Y-15442769D02*
X13751015Y-15490388D01*
X13751015Y-15490388D02*
X13741491Y-15509436D01*
X13741491Y-15509436D02*
X13731968Y-15518960D01*
X13731968Y-15518960D02*
X13712920Y-15528484D01*
X13712920Y-15528484D02*
X13655777Y-15528484D01*
X13655777Y-15528484D02*
X13636729Y-15518960D01*
X13636729Y-15518960D02*
X13627206Y-15509436D01*
X13817682Y-15328484D02*
X13951015Y-15328484D01*
X13951015Y-15328484D02*
X13865301Y-15528484D01*
X14179587Y-15528484D02*
X14179587Y-15328484D01*
X14265301Y-15528484D02*
X14265301Y-15423722D01*
X14265301Y-15423722D02*
X14255777Y-15404674D01*
X14255777Y-15404674D02*
X14236730Y-15395150D01*
X14236730Y-15395150D02*
X14208158Y-15395150D01*
X14208158Y-15395150D02*
X14189110Y-15404674D01*
X14189110Y-15404674D02*
X14179587Y-15414198D01*
X14389110Y-15528484D02*
X14370063Y-15518960D01*
X14370063Y-15518960D02*
X14360539Y-15509436D01*
X14360539Y-15509436D02*
X14351015Y-15490388D01*
X14351015Y-15490388D02*
X14351015Y-15433246D01*
X14351015Y-15433246D02*
X14360539Y-15414198D01*
X14360539Y-15414198D02*
X14370063Y-15404674D01*
X14370063Y-15404674D02*
X14389110Y-15395150D01*
X14389110Y-15395150D02*
X14417682Y-15395150D01*
X14417682Y-15395150D02*
X14436730Y-15404674D01*
X14436730Y-15404674D02*
X14446253Y-15414198D01*
X14446253Y-15414198D02*
X14455777Y-15433246D01*
X14455777Y-15433246D02*
X14455777Y-15490388D01*
X14455777Y-15490388D02*
X14446253Y-15509436D01*
X14446253Y-15509436D02*
X14436730Y-15518960D01*
X14436730Y-15518960D02*
X14417682Y-15528484D01*
X14417682Y-15528484D02*
X14389110Y-15528484D01*
X14570063Y-15528484D02*
X14551015Y-15518960D01*
X14551015Y-15518960D02*
X14541491Y-15499912D01*
X14541491Y-15499912D02*
X14541491Y-15328484D01*
X14722444Y-15518960D02*
X14703396Y-15528484D01*
X14703396Y-15528484D02*
X14665301Y-15528484D01*
X14665301Y-15528484D02*
X14646253Y-15518960D01*
X14646253Y-15518960D02*
X14636730Y-15499912D01*
X14636730Y-15499912D02*
X14636730Y-15423722D01*
X14636730Y-15423722D02*
X14646253Y-15404674D01*
X14646253Y-15404674D02*
X14665301Y-15395150D01*
X14665301Y-15395150D02*
X14703396Y-15395150D01*
X14703396Y-15395150D02*
X14722444Y-15404674D01*
X14722444Y-15404674D02*
X14731968Y-15423722D01*
X14731968Y-15423722D02*
X14731968Y-15442769D01*
X14731968Y-15442769D02*
X14636730Y-15461817D01*
X14808158Y-15518960D02*
X14827206Y-15528484D01*
X14827206Y-15528484D02*
X14865301Y-15528484D01*
X14865301Y-15528484D02*
X14884349Y-15518960D01*
X14884349Y-15518960D02*
X14893872Y-15499912D01*
X14893872Y-15499912D02*
X14893872Y-15490388D01*
X14893872Y-15490388D02*
X14884349Y-15471341D01*
X14884349Y-15471341D02*
X14865301Y-15461817D01*
X14865301Y-15461817D02*
X14836730Y-15461817D01*
X14836730Y-15461817D02*
X14817682Y-15452293D01*
X14817682Y-15452293D02*
X14808158Y-15433246D01*
X14808158Y-15433246D02*
X14808158Y-15423722D01*
X14808158Y-15423722D02*
X14817682Y-15404674D01*
X14817682Y-15404674D02*
X14836730Y-15395150D01*
X14836730Y-15395150D02*
X14865301Y-15395150D01*
X14865301Y-15395150D02*
X14884349Y-15404674D01*
X14960539Y-15604674D02*
X14970063Y-15595150D01*
X14970063Y-15595150D02*
X14989111Y-15566579D01*
X14989111Y-15566579D02*
X14998634Y-15547531D01*
X14998634Y-15547531D02*
X15008158Y-15518960D01*
X15008158Y-15518960D02*
X15017682Y-15471341D01*
X15017682Y-15471341D02*
X15017682Y-15433246D01*
X15017682Y-15433246D02*
X15008158Y-15385627D01*
X15008158Y-15385627D02*
X14998634Y-15357055D01*
X14998634Y-15357055D02*
X14989111Y-15338008D01*
X14989111Y-15338008D02*
X14970063Y-15309436D01*
X14970063Y-15309436D02*
X14960539Y-15299912D01*
X9895000Y-15801000D02*
X9995000Y-15701000D01*
X9895000Y-15601000D01*
X9795000Y-15701000D01*
X9895000Y-15801000D01*
X10236729Y-15592484D02*
X10360539Y-15592484D01*
X10360539Y-15592484D02*
X10293872Y-15668674D01*
X10293872Y-15668674D02*
X10322444Y-15668674D01*
X10322444Y-15668674D02*
X10341491Y-15678198D01*
X10341491Y-15678198D02*
X10351015Y-15687722D01*
X10351015Y-15687722D02*
X10360539Y-15706769D01*
X10360539Y-15706769D02*
X10360539Y-15754388D01*
X10360539Y-15754388D02*
X10351015Y-15773436D01*
X10351015Y-15773436D02*
X10341491Y-15782960D01*
X10341491Y-15782960D02*
X10322444Y-15792484D01*
X10322444Y-15792484D02*
X10265301Y-15792484D01*
X10265301Y-15792484D02*
X10246253Y-15782960D01*
X10246253Y-15782960D02*
X10236729Y-15773436D01*
X10446253Y-15773436D02*
X10455777Y-15782960D01*
X10455777Y-15782960D02*
X10446253Y-15792484D01*
X10446253Y-15792484D02*
X10436729Y-15782960D01*
X10436729Y-15782960D02*
X10446253Y-15773436D01*
X10446253Y-15773436D02*
X10446253Y-15792484D01*
X10531967Y-15611531D02*
X10541491Y-15602008D01*
X10541491Y-15602008D02*
X10560539Y-15592484D01*
X10560539Y-15592484D02*
X10608158Y-15592484D01*
X10608158Y-15592484D02*
X10627205Y-15602008D01*
X10627205Y-15602008D02*
X10636729Y-15611531D01*
X10636729Y-15611531D02*
X10646253Y-15630579D01*
X10646253Y-15630579D02*
X10646253Y-15649627D01*
X10646253Y-15649627D02*
X10636729Y-15678198D01*
X10636729Y-15678198D02*
X10522444Y-15792484D01*
X10522444Y-15792484D02*
X10646253Y-15792484D01*
X10770063Y-15592484D02*
X10789110Y-15592484D01*
X10789110Y-15592484D02*
X10808158Y-15602008D01*
X10808158Y-15602008D02*
X10817682Y-15611531D01*
X10817682Y-15611531D02*
X10827205Y-15630579D01*
X10827205Y-15630579D02*
X10836729Y-15668674D01*
X10836729Y-15668674D02*
X10836729Y-15716293D01*
X10836729Y-15716293D02*
X10827205Y-15754388D01*
X10827205Y-15754388D02*
X10817682Y-15773436D01*
X10817682Y-15773436D02*
X10808158Y-15782960D01*
X10808158Y-15782960D02*
X10789110Y-15792484D01*
X10789110Y-15792484D02*
X10770063Y-15792484D01*
X10770063Y-15792484D02*
X10751015Y-15782960D01*
X10751015Y-15782960D02*
X10741491Y-15773436D01*
X10741491Y-15773436D02*
X10731967Y-15754388D01*
X10731967Y-15754388D02*
X10722444Y-15716293D01*
X10722444Y-15716293D02*
X10722444Y-15668674D01*
X10722444Y-15668674D02*
X10731967Y-15630579D01*
X10731967Y-15630579D02*
X10741491Y-15611531D01*
X10741491Y-15611531D02*
X10751015Y-15602008D01*
X10751015Y-15602008D02*
X10770063Y-15592484D01*
X10960539Y-15592484D02*
X10979586Y-15592484D01*
X10979586Y-15592484D02*
X10998634Y-15602008D01*
X10998634Y-15602008D02*
X11008158Y-15611531D01*
X11008158Y-15611531D02*
X11017682Y-15630579D01*
X11017682Y-15630579D02*
X11027205Y-15668674D01*
X11027205Y-15668674D02*
X11027205Y-15716293D01*
X11027205Y-15716293D02*
X11017682Y-15754388D01*
X11017682Y-15754388D02*
X11008158Y-15773436D01*
X11008158Y-15773436D02*
X10998634Y-15782960D01*
X10998634Y-15782960D02*
X10979586Y-15792484D01*
X10979586Y-15792484D02*
X10960539Y-15792484D01*
X10960539Y-15792484D02*
X10941491Y-15782960D01*
X10941491Y-15782960D02*
X10931967Y-15773436D01*
X10931967Y-15773436D02*
X10922444Y-15754388D01*
X10922444Y-15754388D02*
X10912920Y-15716293D01*
X10912920Y-15716293D02*
X10912920Y-15668674D01*
X10912920Y-15668674D02*
X10922444Y-15630579D01*
X10922444Y-15630579D02*
X10931967Y-15611531D01*
X10931967Y-15611531D02*
X10941491Y-15602008D01*
X10941491Y-15602008D02*
X10960539Y-15592484D01*
X11112920Y-15792484D02*
X11112920Y-15659150D01*
X11112920Y-15678198D02*
X11122444Y-15668674D01*
X11122444Y-15668674D02*
X11141491Y-15659150D01*
X11141491Y-15659150D02*
X11170063Y-15659150D01*
X11170063Y-15659150D02*
X11189110Y-15668674D01*
X11189110Y-15668674D02*
X11198634Y-15687722D01*
X11198634Y-15687722D02*
X11198634Y-15792484D01*
X11198634Y-15687722D02*
X11208158Y-15668674D01*
X11208158Y-15668674D02*
X11227205Y-15659150D01*
X11227205Y-15659150D02*
X11255777Y-15659150D01*
X11255777Y-15659150D02*
X11274824Y-15668674D01*
X11274824Y-15668674D02*
X11284348Y-15687722D01*
X11284348Y-15687722D02*
X11284348Y-15792484D01*
X11379586Y-15792484D02*
X11379586Y-15659150D01*
X11379586Y-15678198D02*
X11389110Y-15668674D01*
X11389110Y-15668674D02*
X11408158Y-15659150D01*
X11408158Y-15659150D02*
X11436729Y-15659150D01*
X11436729Y-15659150D02*
X11455777Y-15668674D01*
X11455777Y-15668674D02*
X11465301Y-15687722D01*
X11465301Y-15687722D02*
X11465301Y-15792484D01*
X11465301Y-15687722D02*
X11474824Y-15668674D01*
X11474824Y-15668674D02*
X11493872Y-15659150D01*
X11493872Y-15659150D02*
X11522443Y-15659150D01*
X11522443Y-15659150D02*
X11541491Y-15668674D01*
X11541491Y-15668674D02*
X11551015Y-15687722D01*
X11551015Y-15687722D02*
X11551015Y-15792484D01*
X11941491Y-15582960D02*
X11770063Y-15840103D01*
X12198634Y-15592484D02*
X12217682Y-15592484D01*
X12217682Y-15592484D02*
X12236729Y-15602008D01*
X12236729Y-15602008D02*
X12246253Y-15611531D01*
X12246253Y-15611531D02*
X12255777Y-15630579D01*
X12255777Y-15630579D02*
X12265301Y-15668674D01*
X12265301Y-15668674D02*
X12265301Y-15716293D01*
X12265301Y-15716293D02*
X12255777Y-15754388D01*
X12255777Y-15754388D02*
X12246253Y-15773436D01*
X12246253Y-15773436D02*
X12236729Y-15782960D01*
X12236729Y-15782960D02*
X12217682Y-15792484D01*
X12217682Y-15792484D02*
X12198634Y-15792484D01*
X12198634Y-15792484D02*
X12179586Y-15782960D01*
X12179586Y-15782960D02*
X12170063Y-15773436D01*
X12170063Y-15773436D02*
X12160539Y-15754388D01*
X12160539Y-15754388D02*
X12151015Y-15716293D01*
X12151015Y-15716293D02*
X12151015Y-15668674D01*
X12151015Y-15668674D02*
X12160539Y-15630579D01*
X12160539Y-15630579D02*
X12170063Y-15611531D01*
X12170063Y-15611531D02*
X12179586Y-15602008D01*
X12179586Y-15602008D02*
X12198634Y-15592484D01*
X12351015Y-15773436D02*
X12360539Y-15782960D01*
X12360539Y-15782960D02*
X12351015Y-15792484D01*
X12351015Y-15792484D02*
X12341491Y-15782960D01*
X12341491Y-15782960D02*
X12351015Y-15773436D01*
X12351015Y-15773436D02*
X12351015Y-15792484D01*
X12551015Y-15792484D02*
X12436729Y-15792484D01*
X12493872Y-15792484D02*
X12493872Y-15592484D01*
X12493872Y-15592484D02*
X12474825Y-15621055D01*
X12474825Y-15621055D02*
X12455777Y-15640103D01*
X12455777Y-15640103D02*
X12436729Y-15649627D01*
X12627206Y-15611531D02*
X12636729Y-15602008D01*
X12636729Y-15602008D02*
X12655777Y-15592484D01*
X12655777Y-15592484D02*
X12703396Y-15592484D01*
X12703396Y-15592484D02*
X12722444Y-15602008D01*
X12722444Y-15602008D02*
X12731967Y-15611531D01*
X12731967Y-15611531D02*
X12741491Y-15630579D01*
X12741491Y-15630579D02*
X12741491Y-15649627D01*
X12741491Y-15649627D02*
X12731967Y-15678198D01*
X12731967Y-15678198D02*
X12617682Y-15792484D01*
X12617682Y-15792484D02*
X12741491Y-15792484D01*
X12912920Y-15592484D02*
X12874825Y-15592484D01*
X12874825Y-15592484D02*
X12855777Y-15602008D01*
X12855777Y-15602008D02*
X12846253Y-15611531D01*
X12846253Y-15611531D02*
X12827206Y-15640103D01*
X12827206Y-15640103D02*
X12817682Y-15678198D01*
X12817682Y-15678198D02*
X12817682Y-15754388D01*
X12817682Y-15754388D02*
X12827206Y-15773436D01*
X12827206Y-15773436D02*
X12836729Y-15782960D01*
X12836729Y-15782960D02*
X12855777Y-15792484D01*
X12855777Y-15792484D02*
X12893872Y-15792484D01*
X12893872Y-15792484D02*
X12912920Y-15782960D01*
X12912920Y-15782960D02*
X12922444Y-15773436D01*
X12922444Y-15773436D02*
X12931967Y-15754388D01*
X12931967Y-15754388D02*
X12931967Y-15706769D01*
X12931967Y-15706769D02*
X12922444Y-15687722D01*
X12922444Y-15687722D02*
X12912920Y-15678198D01*
X12912920Y-15678198D02*
X12893872Y-15668674D01*
X12893872Y-15668674D02*
X12855777Y-15668674D01*
X12855777Y-15668674D02*
X12836729Y-15678198D01*
X12836729Y-15678198D02*
X12827206Y-15687722D01*
X12827206Y-15687722D02*
X12817682Y-15706769D01*
X13055777Y-15592484D02*
X13074825Y-15592484D01*
X13074825Y-15592484D02*
X13093872Y-15602008D01*
X13093872Y-15602008D02*
X13103396Y-15611531D01*
X13103396Y-15611531D02*
X13112920Y-15630579D01*
X13112920Y-15630579D02*
X13122444Y-15668674D01*
X13122444Y-15668674D02*
X13122444Y-15716293D01*
X13122444Y-15716293D02*
X13112920Y-15754388D01*
X13112920Y-15754388D02*
X13103396Y-15773436D01*
X13103396Y-15773436D02*
X13093872Y-15782960D01*
X13093872Y-15782960D02*
X13074825Y-15792484D01*
X13074825Y-15792484D02*
X13055777Y-15792484D01*
X13055777Y-15792484D02*
X13036729Y-15782960D01*
X13036729Y-15782960D02*
X13027206Y-15773436D01*
X13027206Y-15773436D02*
X13017682Y-15754388D01*
X13017682Y-15754388D02*
X13008158Y-15716293D01*
X13008158Y-15716293D02*
X13008158Y-15668674D01*
X13008158Y-15668674D02*
X13017682Y-15630579D01*
X13017682Y-15630579D02*
X13027206Y-15611531D01*
X13027206Y-15611531D02*
X13036729Y-15602008D01*
X13036729Y-15602008D02*
X13055777Y-15592484D01*
X13198634Y-15592484D02*
X13198634Y-15630579D01*
X13274825Y-15592484D02*
X13274825Y-15630579D01*
X13570063Y-15868674D02*
X13560539Y-15859150D01*
X13560539Y-15859150D02*
X13541491Y-15830579D01*
X13541491Y-15830579D02*
X13531968Y-15811531D01*
X13531968Y-15811531D02*
X13522444Y-15782960D01*
X13522444Y-15782960D02*
X13512920Y-15735341D01*
X13512920Y-15735341D02*
X13512920Y-15697246D01*
X13512920Y-15697246D02*
X13522444Y-15649627D01*
X13522444Y-15649627D02*
X13531968Y-15621055D01*
X13531968Y-15621055D02*
X13541491Y-15602008D01*
X13541491Y-15602008D02*
X13560539Y-15573436D01*
X13560539Y-15573436D02*
X13570063Y-15563912D01*
X13636729Y-15611531D02*
X13646253Y-15602008D01*
X13646253Y-15602008D02*
X13665301Y-15592484D01*
X13665301Y-15592484D02*
X13712920Y-15592484D01*
X13712920Y-15592484D02*
X13731968Y-15602008D01*
X13731968Y-15602008D02*
X13741491Y-15611531D01*
X13741491Y-15611531D02*
X13751015Y-15630579D01*
X13751015Y-15630579D02*
X13751015Y-15649627D01*
X13751015Y-15649627D02*
X13741491Y-15678198D01*
X13741491Y-15678198D02*
X13627206Y-15792484D01*
X13627206Y-15792484D02*
X13751015Y-15792484D01*
X13989110Y-15792484D02*
X13989110Y-15592484D01*
X14074825Y-15792484D02*
X14074825Y-15687722D01*
X14074825Y-15687722D02*
X14065301Y-15668674D01*
X14065301Y-15668674D02*
X14046253Y-15659150D01*
X14046253Y-15659150D02*
X14017682Y-15659150D01*
X14017682Y-15659150D02*
X13998634Y-15668674D01*
X13998634Y-15668674D02*
X13989110Y-15678198D01*
X14198634Y-15792484D02*
X14179587Y-15782960D01*
X14179587Y-15782960D02*
X14170063Y-15773436D01*
X14170063Y-15773436D02*
X14160539Y-15754388D01*
X14160539Y-15754388D02*
X14160539Y-15697246D01*
X14160539Y-15697246D02*
X14170063Y-15678198D01*
X14170063Y-15678198D02*
X14179587Y-15668674D01*
X14179587Y-15668674D02*
X14198634Y-15659150D01*
X14198634Y-15659150D02*
X14227206Y-15659150D01*
X14227206Y-15659150D02*
X14246253Y-15668674D01*
X14246253Y-15668674D02*
X14255777Y-15678198D01*
X14255777Y-15678198D02*
X14265301Y-15697246D01*
X14265301Y-15697246D02*
X14265301Y-15754388D01*
X14265301Y-15754388D02*
X14255777Y-15773436D01*
X14255777Y-15773436D02*
X14246253Y-15782960D01*
X14246253Y-15782960D02*
X14227206Y-15792484D01*
X14227206Y-15792484D02*
X14198634Y-15792484D01*
X14379587Y-15792484D02*
X14360539Y-15782960D01*
X14360539Y-15782960D02*
X14351015Y-15763912D01*
X14351015Y-15763912D02*
X14351015Y-15592484D01*
X14531968Y-15782960D02*
X14512920Y-15792484D01*
X14512920Y-15792484D02*
X14474825Y-15792484D01*
X14474825Y-15792484D02*
X14455777Y-15782960D01*
X14455777Y-15782960D02*
X14446253Y-15763912D01*
X14446253Y-15763912D02*
X14446253Y-15687722D01*
X14446253Y-15687722D02*
X14455777Y-15668674D01*
X14455777Y-15668674D02*
X14474825Y-15659150D01*
X14474825Y-15659150D02*
X14512920Y-15659150D01*
X14512920Y-15659150D02*
X14531968Y-15668674D01*
X14531968Y-15668674D02*
X14541491Y-15687722D01*
X14541491Y-15687722D02*
X14541491Y-15706769D01*
X14541491Y-15706769D02*
X14446253Y-15725817D01*
X14617682Y-15782960D02*
X14636730Y-15792484D01*
X14636730Y-15792484D02*
X14674825Y-15792484D01*
X14674825Y-15792484D02*
X14693872Y-15782960D01*
X14693872Y-15782960D02*
X14703396Y-15763912D01*
X14703396Y-15763912D02*
X14703396Y-15754388D01*
X14703396Y-15754388D02*
X14693872Y-15735341D01*
X14693872Y-15735341D02*
X14674825Y-15725817D01*
X14674825Y-15725817D02*
X14646253Y-15725817D01*
X14646253Y-15725817D02*
X14627206Y-15716293D01*
X14627206Y-15716293D02*
X14617682Y-15697246D01*
X14617682Y-15697246D02*
X14617682Y-15687722D01*
X14617682Y-15687722D02*
X14627206Y-15668674D01*
X14627206Y-15668674D02*
X14646253Y-15659150D01*
X14646253Y-15659150D02*
X14674825Y-15659150D01*
X14674825Y-15659150D02*
X14693872Y-15668674D01*
X14770063Y-15868674D02*
X14779587Y-15859150D01*
X14779587Y-15859150D02*
X14798634Y-15830579D01*
X14798634Y-15830579D02*
X14808158Y-15811531D01*
X14808158Y-15811531D02*
X14817682Y-15782960D01*
X14817682Y-15782960D02*
X14827206Y-15735341D01*
X14827206Y-15735341D02*
X14827206Y-15697246D01*
X14827206Y-15697246D02*
X14817682Y-15649627D01*
X14817682Y-15649627D02*
X14808158Y-15621055D01*
X14808158Y-15621055D02*
X14798634Y-15602008D01*
X14798634Y-15602008D02*
X14779587Y-15573436D01*
X14779587Y-15573436D02*
X14770063Y-15563912D01*
M02*
