G04 #@! TF.GenerationSoftware,KiCad,Pcbnew,7.0.5*
G04 #@! TF.CreationDate,2023-09-10T10:54:51+02:00*
G04 #@! TF.ProjectId,LED-Matrix,4c45442d-4d61-4747-9269-782e6b696361,rev?*
G04 #@! TF.SameCoordinates,Original*
G04 #@! TF.FileFunction,Copper,L2,Bot*
G04 #@! TF.FilePolarity,Positive*
%FSLAX46Y46*%
G04 Gerber Fmt 4.6, Leading zero omitted, Abs format (unit mm)*
G04 Created by KiCad (PCBNEW 7.0.5) date 2023-09-10 10:54:51*
%MOMM*%
%LPD*%
G01*
G04 APERTURE LIST*
G04 #@! TA.AperFunction,ComponentPad*
%ADD10R,1.800000X1.800000*%
G04 #@! TD*
G04 #@! TA.AperFunction,ComponentPad*
%ADD11C,1.800000*%
G04 #@! TD*
G04 #@! TA.AperFunction,ComponentPad*
%ADD12R,1.600000X1.600000*%
G04 #@! TD*
G04 #@! TA.AperFunction,ComponentPad*
%ADD13O,1.600000X1.600000*%
G04 #@! TD*
G04 #@! TA.AperFunction,ComponentPad*
%ADD14C,4.000000*%
G04 #@! TD*
G04 #@! TA.AperFunction,ComponentPad*
%ADD15C,1.600000*%
G04 #@! TD*
G04 #@! TA.AperFunction,ViaPad*
%ADD16C,0.800000*%
G04 #@! TD*
G04 #@! TA.AperFunction,Conductor*
%ADD17C,0.250000*%
G04 #@! TD*
G04 #@! TA.AperFunction,Conductor*
%ADD18C,0.500000*%
G04 #@! TD*
G04 APERTURE END LIST*
D10*
X142000000Y-54000000D03*
D11*
X144540000Y-54000000D03*
D10*
X182000000Y-54000000D03*
D11*
X184540000Y-54000000D03*
D10*
X171965000Y-84000000D03*
D11*
X174505000Y-84000000D03*
D10*
X192000000Y-54000000D03*
D11*
X194540000Y-54000000D03*
D10*
X171965000Y-114000000D03*
D11*
X174505000Y-114000000D03*
D10*
X181965000Y-84000000D03*
D11*
X184505000Y-84000000D03*
D10*
X151965000Y-74000000D03*
D11*
X154505000Y-74000000D03*
D10*
X172000000Y-54000000D03*
D11*
X174540000Y-54000000D03*
D10*
X122000000Y-84000000D03*
D11*
X124540000Y-84000000D03*
D10*
X151965000Y-84000000D03*
D11*
X154505000Y-84000000D03*
D10*
X181965000Y-114000000D03*
D11*
X184505000Y-114000000D03*
D10*
X131965000Y-94000000D03*
D11*
X134505000Y-94000000D03*
D10*
X141965000Y-114000000D03*
D11*
X144505000Y-114000000D03*
D10*
X122000000Y-94000000D03*
D11*
X124540000Y-94000000D03*
D10*
X161965000Y-64000000D03*
D11*
X164505000Y-64000000D03*
D10*
X131965000Y-74000000D03*
D11*
X134505000Y-74000000D03*
D10*
X191965000Y-74000000D03*
D11*
X194505000Y-74000000D03*
D10*
X161965000Y-104000000D03*
D11*
X164505000Y-104000000D03*
D10*
X131965000Y-84000000D03*
D11*
X134505000Y-84000000D03*
D10*
X122000000Y-114000000D03*
D11*
X124540000Y-114000000D03*
D10*
X171965000Y-104000000D03*
D11*
X174505000Y-104000000D03*
D10*
X191965000Y-124000000D03*
D11*
X194505000Y-124000000D03*
D10*
X161965000Y-84000000D03*
D11*
X164505000Y-84000000D03*
D10*
X131965000Y-104000000D03*
D11*
X134505000Y-104000000D03*
D10*
X181965000Y-64000000D03*
D11*
X184505000Y-64000000D03*
D10*
X191965000Y-114000000D03*
D11*
X194505000Y-114000000D03*
D10*
X181965000Y-104000000D03*
D11*
X184505000Y-104000000D03*
D10*
X181965000Y-74000000D03*
D11*
X184505000Y-74000000D03*
D10*
X191965000Y-64000000D03*
D11*
X194505000Y-64000000D03*
D10*
X171965000Y-94000000D03*
D11*
X174505000Y-94000000D03*
D10*
X151965000Y-124000000D03*
D11*
X154505000Y-124000000D03*
D10*
X181965000Y-94000000D03*
D11*
X184505000Y-94000000D03*
D10*
X161965000Y-124000000D03*
D11*
X164505000Y-124000000D03*
D10*
X161965000Y-114000000D03*
D11*
X164505000Y-114000000D03*
D10*
X151965000Y-104000000D03*
D11*
X154505000Y-104000000D03*
D10*
X171965000Y-74000000D03*
D11*
X174505000Y-74000000D03*
D10*
X191965000Y-84000000D03*
D11*
X194505000Y-84000000D03*
D10*
X122000000Y-104000000D03*
D11*
X124540000Y-104000000D03*
D10*
X141965000Y-84000000D03*
D11*
X144505000Y-84000000D03*
D10*
X132000000Y-54000000D03*
D11*
X134540000Y-54000000D03*
D12*
X228967500Y-50800000D03*
D13*
X221347500Y-50800000D03*
D10*
X122060000Y-54000000D03*
D11*
X124600000Y-54000000D03*
D10*
X152000000Y-54000000D03*
D11*
X154540000Y-54000000D03*
D10*
X191965000Y-104000000D03*
D11*
X194505000Y-104000000D03*
D10*
X162000000Y-54000000D03*
D11*
X164540000Y-54000000D03*
D10*
X131965000Y-114000000D03*
D11*
X134505000Y-114000000D03*
D10*
X141965000Y-74000000D03*
D11*
X144505000Y-74000000D03*
D10*
X131965000Y-124000000D03*
D11*
X134505000Y-124000000D03*
D14*
X111420000Y-58175000D03*
X111420000Y-121675000D03*
D12*
X112840000Y-114855000D03*
D15*
X112840000Y-112085000D03*
X112840000Y-109315000D03*
X112840000Y-106545000D03*
X112840000Y-103775000D03*
X112840000Y-101005000D03*
X112840000Y-98235000D03*
X112840000Y-95465000D03*
X112840000Y-92695000D03*
X112840000Y-89925000D03*
X112840000Y-87155000D03*
X112840000Y-84385000D03*
X112840000Y-81615000D03*
X112840000Y-78845000D03*
X112840000Y-76075000D03*
X112840000Y-73305000D03*
X112840000Y-70535000D03*
X112840000Y-67765000D03*
X112840000Y-64995000D03*
X110000000Y-113470000D03*
X110000000Y-110700000D03*
X110000000Y-107930000D03*
X110000000Y-105160000D03*
X110000000Y-102390000D03*
X110000000Y-99620000D03*
X110000000Y-96850000D03*
X110000000Y-94080000D03*
X110000000Y-91310000D03*
X110000000Y-88540000D03*
X110000000Y-85770000D03*
X110000000Y-83000000D03*
X110000000Y-80230000D03*
X110000000Y-77460000D03*
X110000000Y-74690000D03*
X110000000Y-71920000D03*
X110000000Y-69150000D03*
X110000000Y-66380000D03*
D10*
X161965000Y-94000000D03*
D11*
X164505000Y-94000000D03*
D10*
X141965000Y-64000000D03*
D11*
X144505000Y-64000000D03*
D10*
X131965000Y-64000000D03*
D11*
X134505000Y-64000000D03*
D10*
X122000000Y-64000000D03*
D11*
X124540000Y-64000000D03*
D10*
X151965000Y-114000000D03*
D11*
X154505000Y-114000000D03*
D10*
X151965000Y-94000000D03*
D11*
X154505000Y-94000000D03*
D10*
X191965000Y-94000000D03*
D11*
X194505000Y-94000000D03*
D10*
X151965000Y-64000000D03*
D11*
X154505000Y-64000000D03*
D10*
X141965000Y-104000000D03*
D11*
X144505000Y-104000000D03*
D10*
X141965000Y-124000000D03*
D11*
X144505000Y-124000000D03*
D10*
X181965000Y-124000000D03*
D11*
X184505000Y-124000000D03*
D10*
X122000000Y-124000000D03*
D11*
X124540000Y-124000000D03*
D10*
X171965000Y-64000000D03*
D11*
X174505000Y-64000000D03*
D10*
X171965000Y-124000000D03*
D11*
X174505000Y-124000000D03*
D10*
X122000000Y-74000000D03*
D11*
X124540000Y-74000000D03*
D10*
X141965000Y-94000000D03*
D11*
X144505000Y-94000000D03*
D10*
X161965000Y-74000000D03*
D11*
X164505000Y-74000000D03*
D16*
X214561400Y-46247500D03*
X205740000Y-47746500D03*
X211113300Y-49462500D03*
X212490900Y-62748000D03*
X216612200Y-61275000D03*
X197166200Y-62970700D03*
X215150600Y-71240900D03*
X214904100Y-76229400D03*
X190117800Y-71273600D03*
X193040000Y-70792900D03*
X152174900Y-77576700D03*
X189230000Y-80268400D03*
X197880000Y-80625000D03*
X196326900Y-91766800D03*
X145331000Y-96602300D03*
X197531400Y-96100500D03*
X161632500Y-110087900D03*
X165676900Y-134113700D03*
X222000600Y-92236400D03*
X212090500Y-87304000D03*
X212956800Y-100097400D03*
X211657500Y-81121500D03*
X215410200Y-49510400D03*
X211760600Y-69375000D03*
X210975100Y-78540300D03*
X214666300Y-129868500D03*
X214644600Y-48827900D03*
X215095000Y-123794600D03*
X210891600Y-70152800D03*
X211615700Y-94025000D03*
X211377800Y-105181500D03*
X209940800Y-95488600D03*
X214747600Y-77533100D03*
X214743200Y-60024600D03*
X210152500Y-83975000D03*
X210120400Y-116873300D03*
X214650300Y-72221900D03*
X210810700Y-131263500D03*
X196850000Y-113030000D03*
X211638500Y-120550000D03*
X210960300Y-130261500D03*
X211462500Y-98896400D03*
X215686100Y-60542500D03*
X214878600Y-84347900D03*
X205056900Y-84529800D03*
X205000900Y-108688100D03*
X205840000Y-120462100D03*
X204937500Y-72646900D03*
X205904700Y-131806700D03*
X205000900Y-96546000D03*
X205019700Y-60542800D03*
X208756200Y-71965500D03*
X208637600Y-108371300D03*
X206032300Y-58860500D03*
X208884400Y-130228400D03*
X208627500Y-119900000D03*
X208632100Y-83975000D03*
X208632100Y-95975000D03*
X205088100Y-128495900D03*
X204164100Y-106293600D03*
X206203300Y-54634100D03*
X204157000Y-94147700D03*
X204050800Y-70079900D03*
X205088100Y-117682800D03*
X204295800Y-82142500D03*
X205846400Y-81352000D03*
X208366500Y-127354900D03*
X205846400Y-69367000D03*
X205756200Y-105656500D03*
X206998600Y-55256400D03*
X205783900Y-93285700D03*
X208270900Y-115264600D03*
X212874400Y-67254200D03*
X212854500Y-79271700D03*
X213746100Y-100725300D03*
X212909400Y-127148000D03*
X213000000Y-102094400D03*
X213888200Y-115111800D03*
X114343549Y-62273549D03*
X128270000Y-101600000D03*
X200660000Y-58420000D03*
X220466100Y-96574300D03*
X221185000Y-86565000D03*
X128270000Y-121920000D03*
X118000000Y-52450000D03*
X190500000Y-101600000D03*
X188000000Y-111450000D03*
X118000000Y-71000000D03*
X203200000Y-137160000D03*
X118000000Y-81450000D03*
X222454600Y-74525200D03*
X203200000Y-133652800D03*
X200660000Y-85980500D03*
X118000000Y-61000000D03*
X148000000Y-121450000D03*
X118000000Y-111450000D03*
X190500000Y-91440000D03*
X148000000Y-91450000D03*
X218343500Y-114203500D03*
X200660000Y-73660000D03*
X128057299Y-91507299D03*
X118000000Y-101450000D03*
X200660000Y-97999500D03*
X138430000Y-81280000D03*
X138430000Y-101600000D03*
X132080000Y-101600000D03*
X138430000Y-91440000D03*
X190500000Y-81280000D03*
X118110000Y-91440000D03*
X200660000Y-121920000D03*
X200660000Y-110490000D03*
X188000000Y-121450000D03*
X138430000Y-121920000D03*
X118000000Y-121450000D03*
X224615500Y-84097200D03*
X200660000Y-61176600D03*
X223825500Y-83410800D03*
X210600000Y-125730000D03*
X208752600Y-56075000D03*
X209079900Y-80353700D03*
X210093500Y-106000700D03*
X210618500Y-93324100D03*
X210176700Y-114491500D03*
X209075300Y-68075000D03*
X210880600Y-90916800D03*
X226847200Y-69871400D03*
X224266600Y-78502400D03*
X211546900Y-97894400D03*
X217224100Y-57050000D03*
X221001900Y-59395700D03*
X213340300Y-111021200D03*
X214456500Y-121662900D03*
X229573400Y-59650000D03*
X221129800Y-84625000D03*
X229542300Y-58371500D03*
X228508000Y-67370500D03*
X211628400Y-134194400D03*
X226585200Y-80293400D03*
X223169500Y-68243900D03*
X222812700Y-78018600D03*
X226597500Y-81814000D03*
X216842900Y-77097900D03*
X226833000Y-71650000D03*
D17*
X165810000Y-42730000D02*
X211043900Y-42730000D01*
X211043900Y-42730000D02*
X214561400Y-46247500D01*
X154540000Y-54000000D02*
X165810000Y-42730000D01*
X201623500Y-43630000D02*
X190744096Y-43630000D01*
X205740000Y-47746500D02*
X201623500Y-43630000D01*
X184540000Y-49834096D02*
X184540000Y-54000000D01*
X190744096Y-43630000D02*
X184540000Y-49834096D01*
X191116888Y-44530000D02*
X200861799Y-44530000D01*
X205253299Y-48921500D02*
X210572300Y-48921500D01*
X200861799Y-44530000D02*
X205253299Y-48921500D01*
X186215000Y-49431888D02*
X191116888Y-44530000D01*
X136228100Y-65723100D02*
X175185708Y-65723100D01*
X186215000Y-54693808D02*
X186215000Y-49431888D01*
X210572300Y-48921500D02*
X211113300Y-49462500D01*
X175185708Y-65723100D02*
X186215000Y-54693808D01*
X134505000Y-64000000D02*
X136228100Y-65723100D01*
X185765000Y-49245492D02*
X185765000Y-54507412D01*
X170740000Y-65225000D02*
X170740000Y-64210000D01*
X225288796Y-47611800D02*
X212090000Y-47611800D01*
X175047412Y-65225000D02*
X170740000Y-65225000D01*
X169723100Y-65226900D02*
X145731900Y-65226900D01*
X201048195Y-44080000D02*
X190930492Y-44080000D01*
X225936996Y-48260000D02*
X225288796Y-47611800D01*
X212490900Y-57413600D02*
X220789700Y-49114800D01*
X212490900Y-62748000D02*
X212490900Y-57413600D01*
X211230300Y-48471500D02*
X205439695Y-48471500D01*
X205439695Y-48471500D02*
X201048195Y-44080000D01*
X223113100Y-49114800D02*
X225925200Y-51926900D01*
X170740000Y-64210000D02*
X169723100Y-65226900D01*
X230094400Y-49864500D02*
X228489900Y-48260000D01*
X190930492Y-44080000D02*
X185765000Y-49245492D01*
X230094400Y-51735400D02*
X230094400Y-49864500D01*
X228489900Y-48260000D02*
X225936996Y-48260000D01*
X212090000Y-47611800D02*
X211230300Y-48471500D01*
X185765000Y-54507412D02*
X175047412Y-65225000D01*
X229902900Y-51926900D02*
X230094400Y-51735400D01*
X145731900Y-65226900D02*
X144505000Y-64000000D01*
X225925200Y-51926900D02*
X229902900Y-51926900D01*
X220789700Y-49114800D02*
X223113100Y-49114800D01*
X210468595Y-43180000D02*
X190557700Y-43180000D01*
X214261095Y-46972500D02*
X210468595Y-43180000D01*
X216612200Y-61275000D02*
X217951000Y-59936200D01*
X230551600Y-49643700D02*
X227880400Y-46972500D01*
X230551600Y-51940300D02*
X230551600Y-49643700D01*
X225741800Y-52382600D02*
X230109300Y-52382600D01*
X178194500Y-55543200D02*
X162961800Y-55543200D01*
X230109300Y-52382600D02*
X230551600Y-51940300D01*
X190557700Y-43180000D02*
X178194500Y-55543200D01*
X220931200Y-49615400D02*
X222974600Y-49615400D01*
X222974600Y-49615400D02*
X225741800Y-52382600D01*
X217951000Y-52595600D02*
X220931200Y-49615400D01*
X227880400Y-46972500D02*
X214261095Y-46972500D01*
X217951000Y-59936200D02*
X217951000Y-52595600D01*
X162961800Y-55543200D02*
X154505000Y-64000000D01*
X184505000Y-64000000D02*
X185743400Y-62761600D01*
X185743400Y-62761600D02*
X196957100Y-62761600D01*
X196957100Y-62761600D02*
X197166200Y-62970700D01*
X215377200Y-72523000D02*
X215377200Y-71467500D01*
X215377200Y-71467500D02*
X215150600Y-71240900D01*
X214904100Y-72996100D02*
X215377200Y-72523000D01*
X214904100Y-76229400D02*
X214904100Y-72996100D01*
X177231400Y-71273600D02*
X174505000Y-74000000D01*
X190117800Y-71273600D02*
X177231400Y-71273600D01*
X186504500Y-72000500D02*
X184505000Y-74000000D01*
X191832400Y-72000500D02*
X186504500Y-72000500D01*
X193040000Y-70792900D02*
X191832400Y-72000500D01*
X150928300Y-77576700D02*
X152174900Y-77576700D01*
X144505000Y-84000000D02*
X150928300Y-77576700D01*
X189230000Y-80268400D02*
X188971600Y-80010000D01*
X188971600Y-80010000D02*
X188495000Y-80010000D01*
X188495000Y-80010000D02*
X184505000Y-84000000D01*
X194505000Y-84000000D02*
X197880000Y-80625000D01*
X194730100Y-90170000D02*
X196326900Y-91766800D01*
X128370000Y-90170000D02*
X194730100Y-90170000D01*
X124540000Y-94000000D02*
X128370000Y-90170000D01*
X137107300Y-96602300D02*
X134505000Y-94000000D01*
X145331000Y-96602300D02*
X137107300Y-96602300D01*
X197531400Y-96100500D02*
X197111900Y-96520000D01*
X187025000Y-96520000D02*
X184505000Y-94000000D01*
X197111900Y-96520000D02*
X187025000Y-96520000D01*
X144505000Y-104000000D02*
X150592900Y-110087900D01*
X150592900Y-110087900D02*
X161632500Y-110087900D01*
X124540000Y-124000000D02*
X134653700Y-134113700D01*
X134653700Y-134113700D02*
X165676900Y-134113700D01*
X205367400Y-138430000D02*
X171400500Y-138430000D01*
X213231200Y-123169700D02*
X213636600Y-123575100D01*
X115093800Y-115981900D02*
X113966900Y-114855000D01*
X213636600Y-123575100D02*
X213636600Y-129001500D01*
X222000600Y-111571000D02*
X213231200Y-120340400D01*
X213636600Y-129001500D02*
X213487500Y-129150600D01*
X222000600Y-92236400D02*
X222000600Y-111571000D01*
X213487500Y-129150600D02*
X213487500Y-130309900D01*
X113966900Y-114855000D02*
X112840000Y-114855000D01*
X148952400Y-115981900D02*
X115093800Y-115981900D01*
X213231200Y-120340400D02*
X213231200Y-123169700D01*
X171400500Y-138430000D02*
X148952400Y-115981900D01*
X213487500Y-130309900D02*
X205367400Y-138430000D01*
X160740000Y-75225000D02*
X160740000Y-72775000D01*
X186665000Y-49618284D02*
X191303284Y-44980000D01*
X153190000Y-82775000D02*
X160740000Y-75225000D01*
X160740000Y-72775000D02*
X167341900Y-66173100D01*
X167341900Y-66173100D02*
X175372104Y-66173100D01*
X153190000Y-85225000D02*
X153190000Y-82775000D01*
X127133200Y-86226800D02*
X152188200Y-86226800D01*
X117895000Y-95465000D02*
X127133200Y-86226800D01*
X152188200Y-86226800D02*
X153190000Y-85225000D01*
X112840000Y-95465000D02*
X117895000Y-95465000D01*
X227840600Y-50800000D02*
X228967500Y-50800000D01*
X200675403Y-44980000D02*
X205882903Y-50187500D01*
X211413605Y-50187500D02*
X213539305Y-48061800D01*
X175372104Y-66173100D02*
X186665000Y-54880204D01*
X225102400Y-48061800D02*
X227840600Y-50800000D01*
X213539305Y-48061800D02*
X225102400Y-48061800D01*
X205882903Y-50187500D02*
X211413605Y-50187500D01*
X191303284Y-44980000D02*
X200675403Y-44980000D01*
X186665000Y-54880204D02*
X186665000Y-49618284D01*
X211734300Y-81121500D02*
X211657500Y-81121500D01*
X211734300Y-81121500D02*
X211734300Y-69401300D01*
X211734300Y-69401300D02*
X211760600Y-69375000D01*
X212090500Y-81477700D02*
X212090500Y-87304000D01*
X211734300Y-81121500D02*
X212090500Y-81477700D01*
X212956800Y-88170300D02*
X212956800Y-100097400D01*
X211760600Y-69375000D02*
X211760600Y-53160000D01*
X212090500Y-87304000D02*
X212956800Y-88170300D01*
X211760600Y-53160000D02*
X215410200Y-49510400D01*
X210891600Y-78540300D02*
X210975100Y-78540300D01*
X210891600Y-81390900D02*
X211347600Y-81846900D01*
X210891600Y-78540300D02*
X210891600Y-81390900D01*
X210891600Y-52580900D02*
X214644600Y-48827900D01*
X211347600Y-87764600D02*
X211615700Y-88032700D01*
X210891600Y-70152800D02*
X210891600Y-52580900D01*
X211347600Y-81846900D02*
X211347600Y-87764600D01*
X214666300Y-124223300D02*
X215095000Y-123794600D01*
X210694900Y-104498600D02*
X210694900Y-97305500D01*
X210694900Y-97305500D02*
X211615700Y-96384700D01*
X214666300Y-129868500D02*
X214666300Y-124223300D01*
X211377800Y-105181500D02*
X210694900Y-104498600D01*
X211615700Y-96384700D02*
X211615700Y-94025000D01*
X211615700Y-88032700D02*
X211615700Y-94025000D01*
X210891600Y-70152800D02*
X210891600Y-78540300D01*
X214747600Y-77533100D02*
X214151600Y-76937100D01*
X209891600Y-84235900D02*
X209891600Y-95439400D01*
X210810700Y-131263500D02*
X209833000Y-130285800D01*
X209359800Y-106294900D02*
X209449800Y-106384900D01*
X209940800Y-95488600D02*
X209359800Y-96069600D01*
X214151600Y-72720600D02*
X214650300Y-72221900D01*
X209449800Y-106384900D02*
X209449800Y-116202700D01*
X209359800Y-96069600D02*
X209359800Y-106294900D01*
X210152500Y-83975000D02*
X209891600Y-84235900D01*
X209449800Y-116202700D02*
X210120400Y-116873300D01*
X209891600Y-95439400D02*
X209940800Y-95488600D01*
X209833000Y-130285800D02*
X209833000Y-117160700D01*
X209833000Y-117160700D02*
X210120400Y-116873300D01*
X214423600Y-71995200D02*
X214650300Y-72221900D01*
X214423600Y-60344200D02*
X214423600Y-71995200D01*
X214743200Y-60024600D02*
X214423600Y-60344200D01*
X214151600Y-76937100D02*
X214151600Y-72720600D01*
X202750000Y-137980000D02*
X205122400Y-137980000D01*
X111669600Y-98706500D02*
X111669600Y-77245400D01*
X196850000Y-113030000D02*
X194310000Y-110490000D01*
X215923400Y-69419200D02*
X215686100Y-69181900D01*
X196850000Y-113030000D02*
X199390000Y-115570000D01*
X214878600Y-84347900D02*
X214924900Y-84394200D01*
X131905200Y-99620000D02*
X112583100Y-99620000D01*
X214924900Y-101908200D02*
X213547500Y-103285600D01*
X215635300Y-83591200D02*
X215635300Y-72904000D01*
X199390000Y-121675305D02*
X201930000Y-124215305D01*
X143904900Y-111619700D02*
X131905200Y-99620000D01*
X212506200Y-103285600D02*
X211462500Y-102241900D01*
X205122400Y-137980000D02*
X211540100Y-131562300D01*
X215686100Y-69181900D02*
X215686100Y-60542500D01*
X215923400Y-72615900D02*
X215923400Y-69419200D01*
X214924900Y-84394200D02*
X214924900Y-101908200D01*
X112583100Y-99620000D02*
X111669600Y-98706500D01*
X213547500Y-103285600D02*
X212506200Y-103285600D01*
X161430300Y-111619700D02*
X143904900Y-111619700D01*
X211638500Y-129583300D02*
X210960300Y-130261500D01*
X162560000Y-110490000D02*
X161430300Y-111619700D01*
X201930000Y-137160000D02*
X202750000Y-137980000D01*
X212506200Y-119682300D02*
X212506200Y-103285600D01*
X211462500Y-102241900D02*
X211462500Y-98896400D01*
X211540100Y-130841300D02*
X210960300Y-130261500D01*
X211540100Y-131562300D02*
X211540100Y-130841300D01*
X215635300Y-72904000D02*
X215923400Y-72615900D01*
X211638500Y-120550000D02*
X211638500Y-129583300D01*
X201930000Y-124215305D02*
X201930000Y-137160000D01*
X211638500Y-120550000D02*
X212506200Y-119682300D01*
X111669600Y-77245400D02*
X112840000Y-76075000D01*
X194310000Y-110490000D02*
X162560000Y-110490000D01*
X199390000Y-115570000D02*
X199390000Y-121675305D01*
X214878600Y-84347900D02*
X215635300Y-83591200D01*
X205056900Y-72766300D02*
X205056900Y-84529800D01*
X205019700Y-60542800D02*
X204937500Y-60625000D01*
X205840000Y-115301800D02*
X205000900Y-114462700D01*
X205056900Y-84529800D02*
X205056900Y-96490000D01*
X205840000Y-120462100D02*
X205840000Y-115301800D01*
X205000900Y-114462700D02*
X205000900Y-108688100D01*
X204937500Y-60625000D02*
X204937500Y-72646900D01*
X205904700Y-131806700D02*
X205840000Y-131742000D01*
X204937500Y-72646900D02*
X205056900Y-72766300D01*
X205840000Y-131742000D02*
X205840000Y-120462100D01*
X205056900Y-96490000D02*
X205000900Y-96546000D01*
X205000900Y-96546000D02*
X205000900Y-108688100D01*
X208345100Y-61173300D02*
X208345100Y-71965500D01*
X208997900Y-119529600D02*
X208627500Y-119900000D01*
X208345100Y-71965500D02*
X208756200Y-71965500D01*
X208345100Y-83688000D02*
X208632100Y-83975000D01*
X208884400Y-130228400D02*
X209093400Y-130019400D01*
X208632100Y-83975000D02*
X208632100Y-95975000D01*
X208632100Y-95975000D02*
X208632100Y-108365800D01*
X206032300Y-58860500D02*
X208345100Y-61173300D01*
X209093400Y-120365900D02*
X208627500Y-119900000D01*
X209093400Y-130019400D02*
X209093400Y-120365900D01*
X208997900Y-108731600D02*
X208997900Y-119529600D01*
X208632100Y-108365800D02*
X208637600Y-108371300D01*
X208345100Y-71965500D02*
X208345100Y-83688000D01*
X208637600Y-108371300D02*
X208997900Y-108731600D01*
X204295800Y-82142500D02*
X204050800Y-81897500D01*
X204164100Y-116758800D02*
X204164100Y-106293600D01*
X204164100Y-82274200D02*
X204295800Y-82142500D01*
X204050800Y-56786600D02*
X206203300Y-54634100D01*
X205088100Y-117682800D02*
X205088100Y-128495900D01*
X205088100Y-117682800D02*
X204164100Y-116758800D01*
X204050800Y-81897500D02*
X204050800Y-70079900D01*
X204164100Y-94147700D02*
X204157000Y-94147700D01*
X204164100Y-94147700D02*
X204164100Y-82274200D01*
X204164100Y-94147700D02*
X204164100Y-106293600D01*
X204050800Y-70079900D02*
X204050800Y-56786600D01*
X205846400Y-93223200D02*
X205783900Y-93285700D01*
X205756200Y-105656500D02*
X205756200Y-93313400D01*
X205287300Y-56967700D02*
X206998600Y-55256400D01*
X207892800Y-115264600D02*
X205756200Y-113128000D01*
X205287300Y-59160500D02*
X205287300Y-56967700D01*
X205846400Y-59719600D02*
X205287300Y-59160500D01*
X207892800Y-126881200D02*
X208366500Y-127354900D01*
X207892800Y-115264600D02*
X207892800Y-126881200D01*
X208270900Y-115264600D02*
X207892800Y-115264600D01*
X205756200Y-113128000D02*
X205756200Y-105656500D01*
X205846400Y-81352000D02*
X205846400Y-69367000D01*
X205756200Y-93313400D02*
X205783900Y-93285700D01*
X205846400Y-69367000D02*
X205846400Y-59719600D01*
X205846400Y-81352000D02*
X205846400Y-93223200D01*
X213000000Y-102094400D02*
X213683700Y-101410700D01*
X213683700Y-101410700D02*
X213683700Y-100725300D01*
X212854500Y-79271700D02*
X212854500Y-67274100D01*
D18*
X110000000Y-71920000D02*
X108750000Y-70670000D01*
D17*
X213683700Y-100725300D02*
X213746100Y-100725300D01*
X213888200Y-115111800D02*
X213888200Y-119044300D01*
X212775500Y-127014100D02*
X212909400Y-127148000D01*
X213888200Y-119044300D02*
X212775500Y-120157000D01*
D18*
X112338684Y-62273549D02*
X114343549Y-62273549D01*
D17*
X212775500Y-120157000D02*
X212775500Y-127014100D01*
D18*
X108750000Y-65862233D02*
X112338684Y-62273549D01*
D17*
X212854500Y-67274100D02*
X212874400Y-67254200D01*
X213683700Y-100725300D02*
X213683700Y-80100900D01*
X213683700Y-80100900D02*
X212854500Y-79271700D01*
D18*
X108750000Y-70670000D02*
X108750000Y-65862233D01*
X147530000Y-121920000D02*
X148000000Y-121450000D01*
X138430000Y-91440000D02*
X128124598Y-91440000D01*
X138430000Y-81280000D02*
X118170000Y-81280000D01*
X128124598Y-91440000D02*
X128057299Y-91507299D01*
X188000000Y-121450000D02*
X188000000Y-111450000D01*
X128270000Y-101600000D02*
X118150000Y-101600000D01*
X194100500Y-97999500D02*
X200660000Y-97999500D01*
X200660000Y-92710000D02*
X200660000Y-110490000D01*
D17*
X203200000Y-137160000D02*
X203200000Y-133652800D01*
D18*
X118000000Y-101450000D02*
X118000000Y-111450000D01*
X128270000Y-121920000D02*
X118470000Y-121920000D01*
X190500000Y-91440000D02*
X191676800Y-92616800D01*
X190500000Y-101600000D02*
X194100500Y-97999500D01*
X200660000Y-92710000D02*
X200660000Y-78740000D01*
X118110000Y-91440000D02*
X118000000Y-91330000D01*
X200660000Y-78740000D02*
X200660000Y-73660000D01*
D17*
X220466100Y-112080900D02*
X218343500Y-114203500D01*
D18*
X200660000Y-73660000D02*
X200660000Y-58420000D01*
X203200000Y-133652800D02*
X203200000Y-124460000D01*
X128057299Y-92792299D02*
X128057299Y-91507299D01*
D17*
X222085700Y-74894100D02*
X222454600Y-74525200D01*
D18*
X118000000Y-52450000D02*
X118000000Y-61000000D01*
X138430000Y-91440000D02*
X147990000Y-91440000D01*
D17*
X221185000Y-86565000D02*
X220466100Y-87283900D01*
D18*
X147990000Y-91440000D02*
X148000000Y-91450000D01*
X191676800Y-92616800D02*
X200566800Y-92616800D01*
X203200000Y-124460000D02*
X200660000Y-121920000D01*
D17*
X222085700Y-79901800D02*
X222085700Y-74894100D01*
D18*
X200566800Y-92616800D02*
X200660000Y-92710000D01*
X193040000Y-78740000D02*
X190500000Y-81280000D01*
X118000000Y-91330000D02*
X118000000Y-81450000D01*
X118470000Y-121920000D02*
X118000000Y-121450000D01*
D17*
X220466100Y-96574300D02*
X220466100Y-112080900D01*
X220466100Y-87283900D02*
X220466100Y-96574300D01*
D18*
X138430000Y-121920000D02*
X147530000Y-121920000D01*
D17*
X224615500Y-84097200D02*
X224615500Y-82431600D01*
D18*
X128270000Y-121920000D02*
X138430000Y-121920000D01*
X138430000Y-101600000D02*
X136865000Y-101600000D01*
X200660000Y-110490000D02*
X200660000Y-121920000D01*
D17*
X224615500Y-82431600D02*
X222085700Y-79901800D01*
D18*
X118150000Y-101600000D02*
X118000000Y-101450000D01*
X116150000Y-69150000D02*
X118000000Y-71000000D01*
X128270000Y-101600000D02*
X132080000Y-101600000D01*
X110000000Y-69150000D02*
X116150000Y-69150000D01*
X136865000Y-101600000D02*
X128057299Y-92792299D01*
X200660000Y-78740000D02*
X193040000Y-78740000D01*
X118170000Y-81280000D02*
X118000000Y-81450000D01*
D17*
X221347500Y-50800000D02*
X221347500Y-51926900D01*
X221728800Y-52308200D02*
X221347500Y-51926900D01*
X221612600Y-81197900D02*
X221612600Y-59813000D01*
X223825500Y-83410800D02*
X221612600Y-81197900D01*
X221728800Y-59696800D02*
X221728800Y-52308200D01*
X221612600Y-59813000D02*
X221728800Y-59696800D01*
X209495400Y-79938200D02*
X209079900Y-80353700D01*
X210093500Y-114408300D02*
X210176700Y-114491500D01*
X210684000Y-95773700D02*
X210093500Y-96364200D01*
X210853800Y-125476200D02*
X210853800Y-115168600D01*
X210880600Y-82154400D02*
X210880600Y-90916800D01*
X210093500Y-106000700D02*
X210093500Y-114408300D01*
X208752600Y-56075000D02*
X209075300Y-56397700D01*
X209075300Y-56397700D02*
X209075300Y-68075000D01*
X209075300Y-68075000D02*
X209495400Y-68495100D01*
X210880600Y-90916800D02*
X210880600Y-93127500D01*
X209495400Y-68495100D02*
X209495400Y-79938200D01*
X210600000Y-125730000D02*
X210853800Y-125476200D01*
X210853800Y-115168600D02*
X210176700Y-114491500D01*
X210684000Y-93324100D02*
X210684000Y-95773700D01*
X209079900Y-80353700D02*
X210880600Y-82154400D01*
X210880600Y-93127500D02*
X210684000Y-93324100D01*
X210684000Y-93324100D02*
X210618500Y-93324100D01*
X210093500Y-96364200D02*
X210093500Y-106000700D01*
X226847200Y-69871400D02*
X224266600Y-72452000D01*
X224266600Y-72452000D02*
X224266600Y-78502400D01*
X214473000Y-100424200D02*
X214473000Y-101704700D01*
X212189400Y-102318700D02*
X212189400Y-98595300D01*
X211546900Y-97952900D02*
X211546900Y-97894400D01*
X212703600Y-102832900D02*
X212189400Y-102318700D01*
X214151600Y-78172100D02*
X214151600Y-100102800D01*
X214151600Y-100102800D02*
X214473000Y-100424200D01*
X213699700Y-77720200D02*
X214151600Y-78172100D01*
X212189400Y-98595300D02*
X211547000Y-97952900D01*
X213699700Y-60040200D02*
X213699700Y-77720200D01*
X213344800Y-102832900D02*
X212703600Y-102832900D01*
X216689900Y-57050000D02*
X213699700Y-60040200D01*
X211547000Y-97952900D02*
X211546900Y-97952900D01*
X214473000Y-101704700D02*
X213344800Y-102832900D01*
X217224100Y-57050000D02*
X216689900Y-57050000D01*
X221001900Y-68176500D02*
X221001900Y-59395700D01*
X216092200Y-108269300D02*
X216092200Y-73086200D01*
X216092200Y-73086200D02*
X221001900Y-68176500D01*
X213340300Y-111021200D02*
X216092200Y-108269300D01*
X229573400Y-106546000D02*
X214456500Y-121662900D01*
X229573400Y-59650000D02*
X229573400Y-106546000D01*
X221129800Y-84625000D02*
X221801100Y-85296300D01*
X225086600Y-85296300D02*
X227843000Y-82539900D01*
X227749400Y-77292800D02*
X227749400Y-60164400D01*
X227843000Y-82539900D02*
X227843000Y-77386400D01*
X227749400Y-60164400D02*
X229542300Y-58371500D01*
X221801100Y-85296300D02*
X225086600Y-85296300D01*
X227843000Y-77386400D02*
X227749400Y-77292800D01*
X214088500Y-129418400D02*
X213939400Y-129567500D01*
X213683100Y-122982400D02*
X214088500Y-123387800D01*
X213939400Y-131883400D02*
X211628400Y-134194400D01*
X214088500Y-123387800D02*
X214088500Y-129418400D01*
X213683100Y-120527600D02*
X213683100Y-122982400D01*
X228508000Y-105702700D02*
X213683100Y-120527600D01*
X228508000Y-67370500D02*
X228508000Y-105702700D01*
X213939400Y-129567500D02*
X213939400Y-131883400D01*
X226585200Y-80293400D02*
X225027600Y-80293400D01*
X223539600Y-68614000D02*
X223169500Y-68243900D01*
X223539600Y-78805400D02*
X223539600Y-68614000D01*
X225027600Y-80293400D02*
X223539600Y-78805400D01*
X225883000Y-81814000D02*
X222812700Y-78743700D01*
X226597500Y-81814000D02*
X225883000Y-81814000D01*
X222812700Y-78743700D02*
X222812700Y-78018600D01*
X226833000Y-78792400D02*
X226833000Y-71650000D01*
X224917600Y-84824100D02*
X227331200Y-82410500D01*
X227331200Y-82410500D02*
X227331200Y-79290600D01*
X227331200Y-79290600D02*
X226833000Y-78792400D01*
X216842900Y-77469300D02*
X224197700Y-84824100D01*
X216842900Y-77097900D02*
X216842900Y-77469300D01*
X224197700Y-84824100D02*
X224917600Y-84824100D01*
M02*
